<?xml version="1.0" encoding="utf-8"?>
<!-- Generator: Adobe Illustrator 16.0.0, SVG Export Plug-In . SVG Version: 6.00 Build 0)  -->
<!DOCTYPE svg PUBLIC "-//W3C//DTD SVG 1.1//EN" "http://www.w3.org/Graphics/SVG/1.1/DTD/svg11.dtd">
<svg version="1.1" id="Calque_1" xmlns="http://www.w3.org/2000/svg" xmlns:xlink="http://www.w3.org/1999/xlink" x="0px" y="0px"
	 width="1260.563px" height="148.738px" viewBox="0 0 1260.563 148.738" enable-background="new 0 0 1260.563 148.738"
	 xml:space="preserve">
<g>
	<path fill="#34495F" d="M747.052,3980.082l-13.65-7.64v-0.1l13.645-8.182l-14.352-8.062l-13.639,8.03v15.946l13.242,8.222v0.109
		l-13.242,7.96l13.777,8.829l14.213-8.523l-0.031-0.018h0.037V3980.082z M732.298,3986.999l-12.096-7.537v-14.621l12.096,7.512
		V3986.999z M721.187,3964.155l11.52-6.783l12.143,6.82l-12.006,7.199L721.187,3964.155z M733.402,3988.288l12.545-7.543v15.321
		l-12.545,7.504V3988.288z"/>
	<path fill="#34495F" d="M763.646,3975.239c-0.385,0.316-0.574,0.732-0.574,1.252c0,0.519,0.232,0.932,0.701,1.238
		c0.469,0.306,1.549,0.668,3.242,1.084c1.691,0.417,3.008,1.043,3.943,1.876c0.936,0.835,1.404,2.051,1.404,3.65
		c0,1.601-0.6,2.897-1.801,3.894c-1.197,0.995-2.777,1.492-4.734,1.492c-2.824,0-5.369-1.046-7.633-3.139l2.375-2.91
		c1.924,1.685,3.701,2.526,5.334,2.526c0.732,0,1.307-0.157,1.723-0.472c0.418-0.314,0.627-0.74,0.627-1.276
		s-0.221-0.962-0.664-1.276s-1.318-0.634-2.629-0.957c-2.078-0.494-3.596-1.137-4.559-1.928c-0.959-0.791-1.441-2.033-1.441-3.727
		s0.609-3,1.826-3.918c1.217-0.92,2.734-1.379,4.557-1.379c1.189,0,2.383,0.204,3.574,0.613c1.189,0.407,2.229,0.986,3.113,1.735
		l-2.016,2.909c-1.549-1.174-3.15-1.762-4.801-1.762C764.552,3974.767,764.029,3974.925,763.646,3975.239"/>
	<path fill="#34495F" d="M782.927,3975.559c1.598,0,3.023,0.669,4.275,2.004c1.25,1.337,1.875,3.017,1.875,5.042
		s-0.625,3.719-1.875,5.08c-1.252,1.361-2.715,2.041-4.391,2.041c-1.678,0-3.025-0.672-4.047-2.016v6.764h-3.828v-18.686h3.828
		v1.531C779.939,3976.146,781.326,3975.559,782.927,3975.559 M778.714,3982.668c0,1.114,0.311,2.025,0.932,2.731
		c0.621,0.707,1.375,1.06,2.258,1.06c0.885,0,1.66-0.353,2.324-1.06c0.664-0.706,0.996-1.611,0.996-2.719
		c0-1.105-0.324-2.033-0.971-2.782s-1.422-1.123-2.322-1.123c-0.902,0-1.664,0.37-2.285,1.11S778.714,3981.554,778.714,3982.668"/>
	<path fill="#34495F" d="M803.515,3989.521h-3.6v-1.659c-0.986,1.242-2.207,1.863-3.664,1.863c-1.453,0-2.676-0.421-3.662-1.263
		c-0.988-0.843-1.48-1.966-1.48-3.37s0.51-2.454,1.531-3.152c1.021-0.697,2.416-1.047,4.186-1.047h2.859v-0.076
		c0-1.464-0.773-2.195-2.322-2.195c-0.664,0-1.365,0.132-2.105,0.396c-0.74,0.265-1.365,0.592-1.877,0.983l-1.711-2.477
		c1.805-1.311,3.863-1.966,6.18-1.966c1.666,0,3.027,0.417,4.084,1.251c1.055,0.834,1.582,2.153,1.582,3.957V3989.521z
		 M799.66,3984.289v-0.663h-2.4c-1.529,0-2.297,0.477-2.297,1.429c0,0.494,0.184,0.872,0.551,1.136
		c0.365,0.264,0.887,0.396,1.568,0.396s1.281-0.209,1.799-0.626C799.4,3985.544,799.66,3984.987,799.66,3984.289"/>
	<path fill="#34495F" d="M813.423,3986.331c1.275,0,2.424-0.639,3.445-1.914l2.271,2.553c-1.77,1.838-3.684,2.756-5.742,2.756
		c-2.061,0-3.801-0.65-5.221-1.952c-1.422-1.302-2.131-3.003-2.131-5.105c0-2.102,0.719-3.812,2.156-5.131s3.143-1.979,5.117-1.979
		c0.986,0,1.988,0.204,3,0.613c1.012,0.408,1.902,1.012,2.666,1.812l-1.99,2.604c-0.441-0.526-0.982-0.936-1.619-1.225
		c-0.639-0.289-1.273-0.434-1.902-0.434c-1.006,0-1.869,0.328-2.592,0.982c-0.723,0.655-1.084,1.566-1.084,2.731
		s0.361,2.072,1.084,2.719C811.605,3986.009,812.453,3986.331,813.423,3986.331"/>
	<path fill="#34495F" d="M833.589,3987.53c-1.551,1.465-3.367,2.195-5.451,2.195s-3.807-0.642-5.17-1.927
		c-1.361-1.284-2.041-3.008-2.041-5.169s0.693-3.881,2.08-5.156c1.387-1.277,3.025-1.915,4.914-1.915s3.492,0.571,4.812,1.71
		c1.318,1.141,1.979,2.707,1.979,4.697v2.043h-10.008c0.119,0.748,0.512,1.361,1.174,1.838c0.666,0.477,1.412,0.715,2.248,0.715
		c1.344,0,2.449-0.451,3.318-1.354L833.589,3987.53z M829.912,3979.388c-0.525-0.442-1.17-0.663-1.926-0.663
		c-0.758,0-1.451,0.229-2.08,0.688c-0.631,0.459-0.996,1.081-1.098,1.863h6.023C830.746,3980.46,830.439,3979.831,829.912,3979.388"
		/>
	<polygon fill="#34495F" points="842.535,3981.94 845.699,3971.679 849.861,3971.679 853,3981.94 856.548,3971.679 
		860.863,3971.679 854.634,3989.521 851.673,3989.521 847.767,3977.116 843.886,3989.521 840.927,3989.521 834.697,3971.679 
		839.011,3971.679 	"/>
	<path fill="#34495F" d="M872.783,3989.521h-3.6v-1.659c-0.986,1.242-2.207,1.863-3.662,1.863c-1.457,0-2.678-0.421-3.664-1.263
		c-0.986-0.843-1.48-1.966-1.48-3.37s0.512-2.454,1.533-3.152c1.02-0.697,2.414-1.047,4.186-1.047h2.859v-0.076
		c0-1.464-0.775-2.195-2.324-2.195c-0.664,0-1.365,0.132-2.105,0.396c-0.74,0.265-1.365,0.592-1.877,0.983l-1.709-2.477
		c1.803-1.311,3.861-1.966,6.176-1.966c1.668,0,3.029,0.417,4.084,1.251c1.057,0.834,1.584,2.153,1.584,3.957V3989.521z
		 M868.927,3984.289v-0.663h-2.398c-1.531,0-2.297,0.477-2.297,1.429c0,0.494,0.182,0.872,0.549,1.136
		c0.365,0.264,0.889,0.396,1.57,0.396c0.68,0,1.279-0.209,1.799-0.626C868.667,3985.544,868.927,3984.987,868.927,3984.289"/>
	<path fill="#34495F" d="M878.3,3994.934c-1.346,0-2.613-0.545-3.803-1.634l1.734-2.833c0.646,0.63,1.311,0.944,1.992,0.944
		c0.357,0,0.662-0.175,0.918-0.523s0.383-0.719,0.383-1.11s-1.77-5.054-5.311-13.989h4.086l3.344,8.552l3.344-8.552h4.084
		l-6.381,16.185c-0.373,0.936-0.957,1.663-1.748,2.183C880.15,3994.675,879.271,3994.934,878.3,3994.934"/>
	<path fill="#34495F" d="M900.72,3985.246c0,1.354-0.498,2.438-1.494,3.255c-0.994,0.816-2.26,1.225-3.791,1.225
		c-1.021,0-2.084-0.182-3.189-0.549c-1.107-0.365-2.104-0.906-2.986-1.62l1.684-2.399c1.43,1.105,2.951,1.659,4.568,1.659
		c0.494,0,0.885-0.098,1.176-0.294c0.289-0.195,0.434-0.455,0.434-0.778s-0.199-0.621-0.602-0.894
		c-0.398-0.271-0.979-0.527-1.734-0.766c-0.758-0.238-1.336-0.442-1.736-0.613c-0.4-0.17-0.855-0.416-1.365-0.74
		c-1.039-0.646-1.557-1.604-1.557-2.871s0.51-2.302,1.531-3.102s2.34-1.2,3.957-1.2c1.615,0,3.232,0.545,4.85,1.634l-1.43,2.553
		c-1.191-0.816-2.379-1.225-3.561-1.225c-1.184,0-1.775,0.322-1.775,0.97c0,0.357,0.188,0.638,0.562,0.842s0.996,0.443,1.863,0.716
		c0.869,0.271,1.484,0.48,1.852,0.625c0.365,0.145,0.803,0.37,1.312,0.676C900.242,3982.928,900.72,3983.894,900.72,3985.246"/>
</g>
<g id="GJAFlB.tif">
	<g>
		<path fill-rule="evenodd" clip-rule="evenodd" fill="#34495F" d="M401.276,3969.639c0.04-0.073,0.099-0.142,0.117-0.22
			c0.333-1.351,1.415-2.209,2.807-2.21c6.013-0.001,12.025-0.001,18.037-0.001c0.971,0,1.94,0,2.911,0
			c1.748,0.001,2.986,1.191,2.99,2.949c0.012,6.967,0.015,13.936-0.002,20.902c-0.004,1.705-1.124,2.772-2.453,2.909
			c-0.082,0.009-0.157,0.07-0.234,0.107c-7.176,0-14.351,0-21.526,0c-0.059-0.036-0.114-0.096-0.177-0.106
			c-1.275-0.207-2.049-0.947-2.356-2.193c-0.017-0.062-0.075-0.113-0.113-0.171C401.276,3984.283,401.276,3976.961,401.276,3969.639
			z M420.745,3992.541c0.667-0.56,1.293-1.04,1.859-1.581c0.23-0.221,0.432-0.561,0.475-0.871c0.09-0.648,0.14-1.32,0.076-1.969
			c-0.153-1.557-0.359-3.11-0.587-4.658c-0.215-1.461-0.615-2.87-1.419-4.129c-0.614-0.964-1.408-1.68-2.614-1.82
			c-0.49-0.057-0.969-0.211-1.457-0.295c-0.104-0.018-0.244,0.055-0.341,0.123c-1.241,0.867-2.545,0.969-3.909,0.328
			c-0.313-0.148-1.123-0.367-1.442-0.297c-0.683,0.148-1.4,0.24-2.028,0.524c-1.256,0.568-1.89,1.71-2.382,2.933
			c-0.723,1.799-0.781,3.713-0.97,5.604c-0.096,0.961-0.132,1.93-0.248,2.888c-0.166,1.351,0.115,1.971,1.305,2.655
			c0.202,0.117,0.421,0.208,0.625,0.323c0.304,0.171,0.529,0.177,0.551-0.271c0.275,0.075,0.512,0.153,0.754,0.204
			c0.686,0.143,1.004-0.006,1.293-0.572c0.027-0.053,0.102-0.092,0.162-0.114c0.297-0.108,0.306-0.346,0.31-0.61
			c0.007-0.42,0.371-0.823,0.058-1.261c-0.007-0.009,0.033-0.046,0.044-0.071c0.177-0.447,0.039-0.658-0.452-0.68
			c-0.177-0.008-0.354-0.002-0.529-0.003c-0.352-0.001-0.668-0.066-0.863-0.412c-0.053-0.097-0.157-0.198-0.259-0.229
			c-0.446-0.136-0.396-0.484-0.379-0.821c0.086-1.683,0.194-3.365,0.247-5.05c0.016-0.447,0.128-0.59,0.575-0.563
			c0.653,0.036,1.31,0.009,1.94,0.009c0.058-0.461,0.02-0.889,0.177-1.223c0.168-0.357,0.521-0.628,0.793-0.938
			c0.068-0.076,0.143-0.149,0.198-0.235c0.273-0.429,0.655-0.577,1.161-0.524c0.393,0.042,0.801,0.061,1.188,0
			c1.108-0.175,1.925,0.192,2.597,1.102c0.333,0.452,0.676,0.83,0.572,1.432c-0.054,0.315,0.106,0.403,0.403,0.393
			c0.514-0.02,1.029-0.023,1.542,0.008c0.121,0.007,0.328,0.168,0.334,0.268c0.108,1.889,0.192,3.777,0.278,5.667
			c0.004,0.096-0.005,0.24-0.065,0.284c-0.532,0.393-0.948,1.043-1.767,0.839c-0.083-0.021-0.177-0.009-0.265,0.003
			c-0.388,0.053-0.514,0.293-0.36,0.648c0.038,0.088,0.064,0.226,0.022,0.295c-0.164,0.264-0.146,0.488,0.05,0.725
			c0.054,0.064,0.09,0.189,0.065,0.265c-0.11,0.345-0.001,0.565,0.331,0.693c0.055,0.021,0.13,0.085,0.133,0.132
			c0.023,0.526,0.429,0.564,0.787,0.561c0.417-0.005,0.833-0.105,1.275-0.168C420.621,3992.168,420.656,3992.273,420.745,3992.541z
			 M413.83,3969.675c-0.032-0.029-0.065-0.058-0.098-0.086c-0.054,0.014-0.111,0.018-0.159,0.042
			c-0.797,0.396-1.597,0.788-2.385,1.198c-0.107,0.056-0.228,0.198-0.237,0.309c-0.062,0.71-0.096,1.422-0.139,2.134
			c-0.021,0.009-0.041,0.017-0.062,0.025c-0.167-0.506-0.334-1.013-0.509-1.541c-0.459,0.485-0.496,1.205,0.014,1.739
			c0.439,0.46,0.684,1.001,0.969,1.539c0.186,0.347,0.416,0.68,0.676,0.974c1.216,1.374,3.159,1.567,4.601,0.479
			c0.602-0.453,1.032-1.045,1.328-1.727c0.188-0.434,0.375-0.842,0.75-1.161c0.189-0.161,0.315-0.425,0.408-0.665
			c0.185-0.48,0.056-0.928-0.296-1.164c-0.172,0.529-0.344,1.059-0.516,1.588c-0.135-1.275,0.122-2.591-0.864-3.69
			c-1.354,1.195-2.878,1.859-4.737,1.673C413.008,3970.765,413.42,3970.22,413.83,3969.675z M414.434,3990.058
			c1.605,0.117,3.135-1.369,3.117-3.074c-0.017-1.731-1.369-3.053-3.104-3.105c-1.354-0.041-3.078,1.031-3.128,3.095
			C411.278,3988.683,412.7,3990.057,414.434,3990.058z M414.598,3980.1L414.598,3980.1c-0.251-0.001-0.5-0.001-0.75-0.001
			c-1.318,0-1.312-0.001-1.233,1.334c0.015,0.244,0.097,0.334,0.341,0.333c1.071-0.008,2.145-0.007,3.216-0.001
			c0.216,0.001,0.329-0.062,0.321-0.299c-0.012-0.353-0.011-0.705,0-1.058c0.007-0.227-0.081-0.315-0.309-0.312
			C415.654,3980.106,415.125,3980.1,414.598,3980.1z"/>
		<path fill-rule="evenodd" clip-rule="evenodd" fill="#34495F" d="M608.153,3986.224c-0.058,0.236-0.114,0.473-0.174,0.707
			c-0.495,1.933-1.8,3.143-3.585,3.836c-2.811,1.092-5.447,0.522-7.938-1.01c-0.386-0.237-0.743-0.525-1.092-0.818
			c-0.384-0.322-0.362-0.509,0.054-0.99c0.307-0.355,0.491-0.378,0.854-0.07c0.985,0.837,2.071,1.495,3.318,1.861
			c1.987,0.583,3.866,0.41,5.549-0.888c1.965-1.517,1.968-4.213,0.017-5.76c-1.243-0.984-2.728-1.468-4.185-2.021
			c-1.027-0.39-2.059-0.786-3.038-1.28c-2.097-1.057-3.046-2.823-2.778-5.135c0.243-2.104,1.503-3.536,3.463-4.238
			c2.777-0.996,5.433-0.519,7.941,0.946c0.387,0.227,0.385,0.418,0.072,0.92c-0.28,0.451-0.445,0.511-0.848,0.265
			c-1.154-0.706-2.391-1.214-3.744-1.313c-1.793-0.131-3.493,0.166-4.699,1.662c-1.469,1.822-1.047,4.223,1,5.459
			c0.957,0.577,2.034,0.973,3.087,1.373c1.482,0.564,2.985,1.077,4.312,1.977c1.348,0.914,2.223,2.119,2.311,3.803
			c0.004,0.093,0.068,0.183,0.104,0.274C608.153,3985.931,608.153,3986.077,608.153,3986.224z"/>
		<path fill-rule="evenodd" clip-rule="evenodd" fill="#34495F" d="M484.646,3991.233c-5.565,0.105-10.657-4.358-10.621-10.654
			c0.032-5.838,4.517-10.61,10.617-10.607c6.217,0.004,10.686,4.963,10.634,10.778
			C495.223,3986.806,490.272,3991.317,484.646,3991.233z M477.812,3980.622c-0.144,3.498,2.874,6.875,6.822,6.876
			c3.518,0.001,6.88-2.761,6.884-6.85c0.005-4.189-3.499-6.92-6.879-6.917C480.75,3973.734,477.688,3977.132,477.812,3980.622z"/>
		<path fill-rule="evenodd" clip-rule="evenodd" fill="#34495F" d="M469.98,3980.639c0,3.161,0,6.321,0,9.483
			c0,0.738-0.094,0.828-0.846,0.828c-0.736,0-1.471,0.002-2.206-0.001c-0.521-0.003-0.683-0.161-0.683-0.685
			c-0.003-2.515-0.01-5.028,0.007-7.543c0.003-0.404-0.111-0.519-0.517-0.516c-2.912,0.016-5.822,0.017-8.733,0
			c-0.415-0.004-0.552,0.096-0.548,0.53c0.02,2.47,0.01,4.94,0.009,7.41c0,0.667-0.136,0.803-0.792,0.804
			c-0.736,0.001-1.471,0.001-2.206,0c-0.653-0.001-0.808-0.152-0.808-0.799c0-4.971,0-9.939,0-14.908c0-1.397-0.001-2.794,0-4.19
			c0.002-0.612,0.146-0.761,0.745-0.763c0.794-0.002,1.588-0.002,2.382,0c0.52,0.003,0.677,0.16,0.679,0.688
			c0.001,2.397,0.01,4.793-0.008,7.189c-0.003,0.402,0.106,0.521,0.515,0.52c2.926-0.018,5.853-0.019,8.778,0
			c0.429,0.004,0.505-0.147,0.503-0.53c-0.015-2.366-0.008-4.734-0.007-7.101c0-0.65,0.117-0.766,0.772-0.766
			c0.721-0.001,1.441-0.001,2.161,0c0.717,0,0.802,0.085,0.802,0.821C469.98,3974.287,469.98,3977.463,469.98,3980.639z"/>
		<path fill-rule="evenodd" clip-rule="evenodd" fill="#34495F" d="M499.24,3980.623c0-3.146,0-6.29,0-9.437
			c0.002-0.779,0.117-0.896,0.884-0.896c2.249-0.001,4.497-0.002,6.746,0c3.222,0.003,5.968,2.447,6.431,5.646
			c0.474,3.273-1.773,6.842-5.559,7.393c-1.167,0.17-2.377,0.047-3.566,0.051c-1.133,0.005-1.133,0.002-1.133,1.141
			c0,1.866,0,3.732,0,5.6c-0.001,0.674-0.156,0.829-0.826,0.83c-0.691,0-1.382,0-2.072,0c-0.762,0-0.902-0.139-0.902-0.891
			c-0.002-2.646-0.002-5.292-0.002-7.938C499.24,3981.622,499.24,3981.122,499.24,3980.623z M503.089,3973.833
			c-0.021,0.107-0.04,0.162-0.04,0.218c-0.003,1.837,0.001,3.675-0.01,5.513c-0.002,0.328,0.181,0.344,0.423,0.343
			c1.045-0.003,2.089,0.017,3.131-0.006c1.587-0.034,2.882-1.274,3.044-2.882c0.146-1.422-0.845-2.766-2.377-3.091
			c-0.621-0.132-1.283-0.08-1.928-0.091C504.587,3973.823,503.842,3973.833,503.089,3973.833z"/>
		<path fill-rule="evenodd" clip-rule="evenodd" fill="#34495F" d="M441.875,3991.235c-2.162-0.002-4.144-0.574-5.895-1.869
			c-0.036-0.025-0.071-0.053-0.105-0.08c-0.794-0.633-0.804-0.678-0.307-1.543c0.256-0.445,0.509-0.894,0.773-1.334
			c0.29-0.484,0.609-0.528,1.109-0.26c1.006,0.537,2.01,1.089,3.055,1.543c0.748,0.325,1.564,0.354,2.369,0.091
			c1.811-0.593,2.328-2.54,1.029-3.932c-0.824-0.883-1.899-1.364-2.99-1.815c-1.281-0.529-2.529-1.119-3.584-2.041
			c-1.717-1.498-2.426-3.379-1.906-5.611c0.531-2.291,2.097-3.635,4.327-4.16c2.881-0.678,5.521,0.002,7.938,1.648
			c0.459,0.312,0.51,0.631,0.215,1.089c-0.335,0.519-0.677,1.032-1.03,1.539c-0.377,0.542-0.661,0.597-1.217,0.261
			c-0.969-0.59-1.966-1.117-3.077-1.395c-0.689-0.173-1.365-0.153-2.028,0.101c-1.587,0.608-1.988,2.329-0.83,3.572
			c0.679,0.728,1.55,1.159,2.446,1.538c1.435,0.606,2.879,1.189,4.131,2.148c1.13,0.864,1.981,1.924,2.312,3.336
			c0.595,2.544-0.571,5.05-2.917,6.299C444.5,3990.995,443.438,3991.237,441.875,3991.235z"/>
		<path fill-rule="evenodd" clip-rule="evenodd" fill="#34495F" d="M533.223,3987.744c0.046-0.13,0.099-0.257,0.137-0.39
			c1.565-5.498,3.131-10.998,4.695-16.497c0.168-0.593,0.774-0.896,1.316-0.608c0.108,0.057,0.175,0.357,0.133,0.51
			c-0.491,1.781-1.006,3.557-1.514,5.332c-1.399,4.877-2.798,9.752-4.197,14.628c-0.084,0.289-0.107,0.603-0.559,0.6
			c-0.437-0.003-0.484-0.289-0.573-0.589c-1.671-5.652-3.343-11.305-5.016-16.956c-0.056-0.188-0.131-0.37-0.293-0.552
			c-0.056,0.159-0.12,0.316-0.167,0.479c-1.667,5.638-3.331,11.277-5.004,16.914c-0.071,0.238-0.176,0.541-0.363,0.654
			c-0.347,0.213-0.649-0.005-0.785-0.475c-0.433-1.508-0.863-3.016-1.297-4.524c-1.465-5.116-2.932-10.231-4.397-15.349
			c-0.193-0.674-0.162-0.714,0.52-0.715c0.705-0.002,0.708-0.002,0.903,0.68c1.573,5.482,3.146,10.965,4.72,16.446
			c0.04,0.138,0.089,0.271,0.179,0.54c0.113-0.303,0.192-0.48,0.246-0.666c1.442-4.894,2.883-9.789,4.323-14.684
			c0.202-0.688,0.413-1.375,0.608-2.066c0.083-0.287,0.18-0.521,0.542-0.529c0.375-0.008,0.501,0.213,0.593,0.525
			c1.511,5.118,3.026,10.235,4.541,15.354c0.19,0.643,0.384,1.284,0.576,1.928C533.135,3987.736,533.18,3987.74,533.223,3987.744z"
			/>
		<path fill-rule="evenodd" clip-rule="evenodd" fill="#34495F" d="M552.855,3972.802c-0.012,0.196-0.034,0.392-0.034,0.588
			c-0.002,5.645-0.002,11.288-0.002,16.933c-0.001,0.638-0.089,0.724-0.706,0.714c-0.494-0.008-0.646-0.158-0.646-0.67
			c-0.001-6.6-0.003-13.2,0.013-19.799c0.001-0.205,0.145-0.525,0.304-0.59c0.322-0.133,0.658-0.094,0.927,0.26
			c1.785,2.352,3.591,4.688,5.389,7.03c2.738,3.565,5.477,7.132,8.212,10.698c0.086,0.111,0.151,0.24,0.226,0.359
			c0.053-0.034,0.105-0.068,0.158-0.104c0.01-0.197,0.026-0.395,0.026-0.591c0.001-5.541,0.012-11.083-0.009-16.624
			c-0.003-0.887,0.312-0.84,1.071-0.773c0.103,0.009,0.211,0.178,0.276,0.295c0.043,0.082,0.021,0.201,0.021,0.305
			c0,6.614,0.001,13.229,0,19.843c-0.001,0.551-0.217,0.744-0.728,0.615c-0.151-0.038-0.301-0.177-0.402-0.307
			c-1.719-2.2-3.444-4.395-5.139-6.612c-2.864-3.746-5.709-7.508-8.562-11.264c-0.087-0.113-0.18-0.221-0.27-0.332
			C552.939,3972.785,552.897,3972.794,552.855,3972.802z"/>
		<path fill-rule="evenodd" clip-rule="evenodd" fill="#34495F" d="M591.195,3985.304c0,1.028-0.032,2.059,0.012,3.086
			c0.026,0.605-0.227,0.953-0.729,1.225c-1.33,0.718-2.736,1.21-4.221,1.471c-2.218,0.391-4.423,0.368-6.536-0.492
			c-3.786-1.541-6.115-4.344-6.702-8.391c-0.827-5.697,2.684-10.768,8.309-12.021c3.442-0.767,6.616-0.06,9.327,2.315
			c0.432,0.38,0.438,0.484,0.076,0.896c-0.498,0.563-0.565,0.572-1.017,0.183c-1.616-1.397-3.464-2.184-5.624-2.312
			c-4.542-0.271-8.776,3.012-9.567,7.791c-0.823,4.977,2.365,9.675,7.309,10.686c2.644,0.539,5.188,0.037,7.588-1.191
			c0.298-0.152,0.413-0.365,0.41-0.703c-0.014-1.528-0.017-3.057,0-4.586c0.006-0.405-0.133-0.527-0.537-0.521
			c-1.454,0.021-2.91,0.01-4.364,0.008c-0.535-0.001-0.573-0.053-0.573-0.684c-0.002-0.645,0.014-0.668,0.569-0.668
			c1.881-0.003,3.763-0.004,5.645,0c0.563,0.001,0.625,0.066,0.626,0.646C591.197,3983.128,591.194,3984.216,591.195,3985.304z"/>
		<path fill-rule="evenodd" clip-rule="evenodd" fill="#34495F" d="M545.215,3980.622c0,3.231,0.004,6.463-0.012,9.694
			c-0.001,0.217-0.113,0.576-0.253,0.62c-0.298,0.094-0.648,0.043-0.973,0.006c-0.076-0.01-0.159-0.196-0.188-0.314
			c-0.034-0.139-0.018-0.291-0.018-0.438c0-6.391,0-12.78,0-19.17c0-0.76,0.421-1.072,1.12-0.773
			c0.162,0.068,0.306,0.387,0.309,0.592c0.023,1.821,0.014,3.643,0.014,5.465C545.215,3977.743,545.215,3979.183,545.215,3980.622z"
			/>
		<path fill-rule="evenodd" clip-rule="evenodd" fill="#34495F" d="M414.313,3988.81c-0.277-0.081-0.566-0.137-0.824-0.257
			c-0.097-0.046-0.122-0.245-0.181-0.374c0.138-0.053,0.279-0.155,0.413-0.146c0.243,0.019,0.483,0.153,0.72,0.146
			c0.151-0.006,0.362-0.154,0.421-0.291c0.042-0.099-0.086-0.338-0.204-0.423c-0.246-0.179-0.543-0.284-0.808-0.44
			c-0.509-0.301-0.727-0.728-0.61-1.152c0.114-0.416,0.539-0.691,1.115-0.673c0.286,0.009,0.577,0.071,0.852,0.156
			c0.09,0.028,0.212,0.255,0.181,0.308c-0.067,0.113-0.222,0.233-0.347,0.24c-0.182,0.01-0.371-0.127-0.551-0.112
			c-0.181,0.015-0.353,0.137-0.529,0.212c0.091,0.163,0.144,0.381,0.28,0.479c0.247,0.176,0.555,0.265,0.82,0.417
			c0.505,0.29,0.679,0.654,0.562,1.118c-0.105,0.418-0.517,0.714-1.03,0.736c-0.088,0.004-0.177,0-0.264,0
			C414.324,3988.772,414.317,3988.791,414.313,3988.81z"/>
	</g>
</g>
<path fill="#34495F" d="M1132.833,3938.167l4.668,3l-16,18.5c0,0-27.584-28.667-27.5-36.5l7.332,2.166
	c3.75,9.334,19.918,26,19.918,26L1132.833,3938.167z"/>
<path fill="#34495F" d="M1148.587,3921.668l-5.416-4c0,0,0.832-9.167-4.918-14l-2.584-11.083
	C1135.669,3892.585,1153.005,3901.085,1148.587,3921.668z"/>
<path fill="#34495F" d="M1099.503,3914.419"/>
<path fill="#34495F" d="M1093.587,3913.002l5.916,1.417c0,0,2.75-20.25,25.25-19.167l0.834-6.417
	C1125.587,3888.835,1097.755,3885.919,1093.587,3913.002z"/>
<path fill="#34495F" d="M1139.253,3939.003c0,0,6.834-7.834,8.834-14.5c0,0-8.918-6.416-9.668-7.666s-1.502-15.082-4.334-20.666
	c0,0-0.5-5.916,0-6.749s1.916-3.667,0.666-4.833c-1.25-1.167-7.084,1.832-7.334,5.916s-0.5,11.076-0.5,11.076
	s-7.25-1.576-9.582-2.076c-2.334-0.5-7.25,1.166-6.25,5.417c-1.498,1.917-4.334,1.243-2.25,6.747c0,0-5.418,1.752-3,6.419
	c0,0-8.828-1.75-12.248-3c-3.418-1.25-3.918,3.083-2.086,4.333c1.834,1.25,15.502,5.084,17.418,6.5
	c1.916,1.417,8.621,5.5,10.352,6.167s8.73,1,10.314,1.75S1139.253,3939.003,1139.253,3939.003z"/>
<path fill="#34495F" d="M1032.166,3972.837c0,0,0.918-3,0.834-3.666s4.5,1.5,5.5-2.666h9.5c0,0,7.25,2.416,6.75,8.166
	s-7.5,8.334-7.666,8.834c-0.168,0.5,1.084,1.416,1.166,2.082c0.084,0.668,0.168,8.417-0.582,11.417c0,0,2.834,3.083,4.084,2l1,3.833
	c0,0-3.168,1.5-5.584,1.417s-6.75-2.583-6-5.667c0.75-3.083,2.334-11.746,1.918-13.206c-0.418-1.46-1.584-2.377-1.584-2.377
	l1.166-2.583c0,0,6.668-2.084,6.584-5.834s-3.666-4.166-5.166-4.083s-7.418,26.667-7.418,26.667h-6.416l6.416-24.417
	L1032.166,3972.837z"/>
<path fill="#34495F" d="M1051.253,3997.171h5.416c0,0,5.25-18.584,5.166-19.084c-0.082-0.5-5.291,0-5.291,0L1051.253,3997.171z"/>
<ellipse fill="#34495F" cx="1060.42" cy="3972.171" rx="3.083" ry="2.083"/>
<g>
	<path fill="#34495F" d="M1077.585,3967.837l-2.951,12.807c-0.547-1.469-1.465-2.555-2.719-3.007
		c-3.234-1.168-7.441,2.278-9.396,7.697c-1.957,5.419-0.924,10.759,2.311,11.925c2.094,0.756,4.592-0.43,6.625-2.824l-0.703,3.052
		h6.084l6.834-29.649H1077.585z M1071.255,3988.451c-0.994,2.837-2.992,4.719-4.467,4.204c-1.475-0.516-1.865-3.234-0.873-6.07
		c0.992-2.838,2.992-4.719,4.467-4.204C1071.855,3982.896,1072.248,3985.614,1071.255,3988.451z"/>
</g>
<g>
	<path fill="#34495F" d="M1091.251,3977.865c-6.75,0-9.916,8.638-10.082,11.472c-0.168,2.832,0.082,8.149,6.832,8.149
		c3.334,0,4.084-1.483,4.084-1.483l0.75-3.834c0,0-1.168,1.25-4,1.25c-2.834,0-2.584-3-2.584-3l2.5,0.668
		c7.168,0,8.584-7.668,8.584-7.668S1098.001,3977.865,1091.251,3977.865z M1093.335,3984.253c0,1.5-3.834,2.916-3.834,2.916h-3.25
		c0,0,2.834-5.166,5.084-5.166S1093.335,3982.753,1093.335,3984.253z"/>
</g>
<path fill="#34495F" d="M1099.085,3973.252l0.75-3.442l3.25-0.475c0,0,5.082-3.25,9-3.25c3.916,0,8,1.752,8,1.752l-1.416,4.915
	l-6.418-1.583c0,0-5.332,0.166-5.332,3.583s9.5,4.616,9.5,12.767s-8.168,9.968-11.334,9.968s-8.5-2.151-8.5-2.151l1.416-5
	c0,0,1.584,1.917,6.918,1.917c5.332,0,5.125-1.884,5.25-4.576c0.182-3.919-9.168-5.508-9.168-12.508c0,0,3.5-0.578,4.584-2.997
	c-1.584,0.581-3.166,0.581-3.166,0.581L1099.085,3973.252z"/>
<path fill="#34495F" d="M1120.919,3977.865h5.416l-3.5,13.054c0,0-0.584,2.25,1.584,2.25c2.166,0,3.916-2.584,3.916-2.584
	l2.834-12.72h5.75l-4.918,19.621h-5.582l-0.25-0.901c0,0-0.25,0.901-4.5,0.901s-4.5-4.651-4.5-4.651L1120.919,3977.865z"/>
<path fill="#34495F" d="M1186.753,3997.486h-5.418l3.5-13.054c0,0,0.584-2.25-1.582-2.25c-2.168,0-3.918,2.584-3.918,2.584
	l-2.832,12.72h-5.75l4.916-19.621h5.584l0.25,0.901c0,0,0.25-0.901,4.5-0.901s4.5,4.651,4.5,4.651L1186.753,3997.486z"/>
<path fill="#34495F" d="M1135.585,3997.486h5.416l3-11.817c0,0,1.918-2.916,3.75-2.916c1.834,0,2,0.583,2,0.583l1.334-5.471h-3.334
	l-1.582,1.304v-1.304h-5.334L1135.585,3997.486z"/>
<polygon fill="#34495F" points="1166.251,3977.865 1171.501,3977.865 1166.251,3997.486 1160.835,3997.486 "/>
<g>
	<path fill="#34495F" d="M1204.419,3977.865l-0.584,1.304c0,0-0.082-1.304-3.5-1.304c-3.416,0-9.832,4.054-9.832,12.304
		c0,7.25,5.332,7.317,5.332,7.317l3.584-0.9c0,0-1.334,5.167-4.416,5.167c-3.084,0-3.168-2.167-3.168-2.167l-2.082,4
		c0,0,1.832,2.833,5.582,2.833c6,0,9.25-7.833,9.25-7.833l5.334-20.721H1204.419z M1202.585,3984.336
		c0,4.583-3.248,8.667-4.832,8.667s-1.75-0.084-1.75-3c0-4.334,3.416-8.167,5.082-8.167
		C1202.753,3981.836,1202.585,3982.729,1202.585,3984.336z"/>
</g>
<path fill="#34495F" d="M1144.169,3999.17l-0.834,2.833c0,0,1.002,1.75,3.502,1.75s6.416-1,8.332-5.916
	c1.918-4.917,3.918-16.051,3.918-16.051h3.75l0.75-3.921h-2.752c0,0,1.086-6.445,4.502-6.445c1.164,0,1.666,0.417,1.666,0.417
	s0.584,2.416,3.166,2.416c2.584,0,3.334-2.25,3.334-2.25s0.332-2.193-2.75-2.193c-2.584,0-2.084-1.973-5.25-1.973
	c-7.916,0-10.5,10.028-10.5,10.028h-2.666l-1.252,3.921h2.502l-3.918,15.7c0,0-1.332,2.851-3.332,2.851
	S1144.169,3999.17,1144.169,3999.17z"/>
<g>
	<g>
		<g id="LoXk5N.tif_1_">
			<g>
				<path fill-rule="evenodd" clip-rule="evenodd" fill="#34495F" d="M157.955,80.677c0,0.245,0,0.385,0,0.524
					c0,8.148-0.003,16.297,0.01,24.446c0.001,0.392-0.109,0.472-0.48,0.468c-1.801-0.02-3.602-0.015-5.402-0.003
					c-0.283,0.002-0.413-0.062-0.38-0.369c0.023-0.234,0.005-0.472,0.005-0.709c0-21.03,0-42.059,0-63.089
					c0-0.502,0-0.502,0.516-0.502c1.749,0,3.496,0.012,5.244-0.01c0.394-0.005,0.499,0.087,0.498,0.493
					c-0.012,12.473-0.01,24.946-0.01,37.419c0,0.139,0,0.277,0,0.521c0.708-0.906,1.353-1.729,1.992-2.552
					c4.28-5.506,8.56-11.013,12.84-16.519c0.854-1.099,1.713-2.195,2.565-3.295c0.108-0.139,0.209-0.245,0.413-0.244
					c2.261,0.008,4.521,0.005,6.782,0.007c0.036,0,0.072,0.016,0.16,0.037c-0.373,0.485-0.726,0.951-1.085,1.412
					c-4.166,5.329-8.332,10.657-12.499,15.986c-1.286,1.645-2.565,3.294-3.863,4.931c-0.165,0.209-0.155,0.334,0.005,0.527
					c2.725,3.305,5.443,6.611,8.162,9.92c2.568,3.125,5.136,6.25,7.702,9.377c1.759,2.142,3.518,4.283,5.277,6.426
					c0.041,0.049,0.079,0.101,0.12,0.152c-0.079,0.127-0.195,0.07-0.287,0.07c-2.418,0.004-4.838,0.001-7.256,0.007
					c-0.212,0-0.357-0.05-0.5-0.228c-3.214-3.955-6.434-7.904-9.652-11.855C165.231,89.608,161.632,85.189,157.955,80.677z"/>
				<path fill-rule="evenodd" clip-rule="evenodd" fill="#34495F" d="M51.494,62.718c0.447-0.439,0.848-0.831,1.245-1.223
					c2.58-2.529,5.675-4.065,9.201-4.765c1.835-0.364,3.692-0.506,5.56-0.457c3.578,0.096,7.005,0.822,10.141,2.626
					c3.995,2.3,6.468,5.745,7.604,10.185c0.468,1.825,0.661,3.685,0.8,5.558c0.196,2.638,0.16,5.277,0.161,7.917
					c0.005,7.676,0.002,15.352,0.002,23.026c0,0.52,0,0.52-0.534,0.52c-1.723,0.002-3.444-0.011-5.166,0.01
					c-0.371,0.006-0.48-0.078-0.48-0.469c0.014-9.186,0.018-18.373,0.006-27.561c-0.002-2.449-0.258-4.872-0.939-7.235
					c-0.536-1.863-1.334-3.59-2.683-5.022c-1.58-1.678-3.564-2.603-5.774-3.1c-1.636-0.367-3.296-0.502-4.967-0.454
					c-3.037,0.088-5.898,0.791-8.408,2.591c-2.849,2.042-4.536,4.831-5.22,8.243c-0.391,1.952-0.457,3.933-0.486,5.916
					c-0.136,8.87-0.027,17.74-0.052,26.611c0,0.373-0.082,0.484-0.471,0.48c-1.708-0.023-3.418-0.023-5.126-0.002
					c-0.385,0.006-0.502-0.073-0.502-0.486c0.014-9.279,0.011-18.559,0.011-27.838c0-6.676,0-13.353,0-20.03
					c0-0.499,0.001-0.499,0.514-0.499c1.696,0,3.392,0.017,5.086-0.011c0.42-0.006,0.493,0.126,0.488,0.509
					C51.482,59.389,51.494,61.019,51.494,62.718z"/>
				<path fill-rule="evenodd" clip-rule="evenodd" fill="#34495F" d="M312.352,100.199c-1.462-0.449-2.801-0.861-4.14-1.271
					c-2.168-0.664-4.336-1.329-6.507-1.986c-0.216-0.066-0.308-0.16-0.31-0.405c-0.002-1.051-0.014-1.058,0.979-1.362
					c3.21-0.984,6.42-1.963,9.629-2.942c0.086-0.026,0.184-0.024,0.243-0.138c-1.915-0.619-3.821-1.232-5.728-1.851
					c-1.609-0.521-3.217-1.046-4.828-1.561c-0.207-0.065-0.3-0.154-0.292-0.383c0.017-0.46,0.019-0.92,0.001-1.38
					c-0.012-0.286,0.07-0.33,0.338-0.237c1.785,0.614,3.575,1.216,5.363,1.819c2.871,0.969,5.738,1.941,8.613,2.898
					c0.271,0.092,0.364,0.208,0.359,0.496c-0.016,0.859-0.002,0.859-0.836,1.115c-3.246,0.998-6.492,1.994-9.736,2.992
					c-0.159,0.049-0.336,0.062-0.487,0.205c2.735,0.832,5.452,1.656,8.169,2.48c0.865,0.264,1.729,0.532,2.596,0.789
					c0.201,0.061,0.293,0.145,0.295,0.381c0.01,0.936,0.019,0.934-0.863,1.23c-4.447,1.503-8.895,3.006-13.343,4.508
					c-0.462,0.156-0.463,0.155-0.463-0.328c-0.001-0.381,0.019-0.764-0.007-1.143c-0.021-0.277,0.086-0.385,0.34-0.467
					c2.283-0.733,4.564-1.48,6.845-2.226C309.802,101.036,311.022,100.635,312.352,100.199z"/>
				<path fill-rule="evenodd" clip-rule="evenodd" fill="#34495F" d="M303.009,78.982c-1.59-1.495-2.036-3.275-1.868-5.273
					c0.097-1.138,0.424-2.189,1.122-3.101c0.913-1.19,2.175-1.748,3.629-1.889c2.555-0.25,5.117-0.118,7.677-0.146
					c0.735-0.007,1.472,0.006,2.208-0.005c0.223-0.004,0.301,0.07,0.294,0.293c-0.014,0.42-0.017,0.841,0.001,1.261
					c0.012,0.257-0.07,0.337-0.332,0.334c-1.209-0.013-2.419-0.007-3.627-0.006c-1.576,0.001-3.154-0.005-4.73,0.011
					c-0.75,0.009-1.487,0.125-2.201,0.375c-1.149,0.403-1.859,1.2-2.116,2.386c-0.31,1.438-0.233,2.825,0.646,4.072
					c0.666,0.945,1.612,1.431,2.744,1.596c0.586,0.085,1.176,0.089,1.767,0.09c2.472,0.002,4.94,0.008,7.412-0.008
					c0.348-0.002,0.47,0.092,0.439,0.442c-0.029,0.353-0.023,0.71-0.001,1.063c0.021,0.303-0.098,0.378-0.385,0.375
					c-1.236-0.014-2.471-0.006-3.706-0.006c-3.391,0-6.78-0.005-10.171,0.008c-0.332,0.001-0.437-0.092-0.412-0.418
					c0.027-0.379,0.018-0.762,0.002-1.143c-0.01-0.236,0.063-0.329,0.311-0.318C302.112,78.995,302.515,78.982,303.009,78.982z"/>
				<path fill-rule="evenodd" clip-rule="evenodd" fill="#34495F" d="M305.046,42.524c0,0.289,0.081,0.61-0.02,0.858
					c-0.118,0.288-0.51,0.175-0.773,0.274c-0.988,0.373-1.522,1.361-1.335,2.53c0.153,0.955,1.031,1.683,2.017,1.729
					c0.967,0.045,1.628-0.376,2.082-1.202c0.357-0.651,0.535-1.365,0.769-2.061c0.097-0.286,0.182-0.576,0.304-0.851
					c0.981-2.204,2.612-2.767,4.742-2.494c1.948,0.25,3.379,1.909,3.58,3.899c0.112,1.114,0.01,2.181-0.585,3.147
					c-0.829,1.344-2.106,1.966-3.628,2.145c-0.758,0.089-0.76,0.069-0.759-0.705c0-0.275,0.014-0.552-0.004-0.827
					c-0.019-0.26,0.048-0.362,0.338-0.369c0.91-0.022,1.675-0.382,2.288-1.064c0.966-1.075,0.771-2.853-0.423-3.773
					c-0.869-0.67-2.679-0.668-3.511,0.648c-0.426,0.672-0.693,1.41-0.975,2.145c-0.201,0.528-0.438,1.039-0.707,1.536
					c-0.817,1.499-2.012,1.963-3.626,1.822c-3.464-0.303-4.761-4.225-3.083-6.798c0.698-1.069,1.781-1.497,3.016-1.611
					c0.254-0.023,0.322,0.081,0.309,0.313c-0.016,0.235-0.005,0.473-0.005,0.709H305.046z"/>
				<path fill-rule="evenodd" clip-rule="evenodd" fill="#34495F" d="M308.748,85.456c-2.312,0-4.624-0.007-6.937,0.008
					c-0.329,0.001-0.44-0.091-0.413-0.419c0.027-0.326,0.027-0.658,0-0.984c-0.027-0.346,0.065-0.475,0.445-0.467
					c1.182,0.027,2.364,0.01,3.547,0.01c3.415,0,6.832,0.006,10.246-0.008c0.349-0.002,0.47,0.088,0.437,0.438
					c-0.03,0.312-0.03,0.633,0,0.945c0.038,0.373-0.08,0.489-0.469,0.486C313.319,85.446,311.034,85.456,308.748,85.456z"/>
				<path fill-rule="evenodd" clip-rule="evenodd" fill="#34495F" d="M298.167,85.455c-0.406,0.001-0.813-0.006-1.22,0.004
					c-0.2,0.005-0.284-0.059-0.279-0.27c0.011-0.445,0.01-0.893,0.002-1.338c-0.005-0.189,0.074-0.251,0.257-0.25
					c0.827,0.006,1.653,0.006,2.48-0.001c0.197-0.001,0.284,0.059,0.278,0.269c-0.012,0.447-0.009,0.893-0.001,1.34
					c0.003,0.188-0.074,0.252-0.257,0.248C299.008,85.45,298.587,85.455,298.167,85.455z"/>
				<path fill-rule="evenodd" clip-rule="evenodd" fill="#34495F" d="M289.892,41.887c0-0.381-0.127-0.454-0.473-0.45
					c-1.787,0.015-3.575,0.021-5.363-0.003c-0.401-0.006-0.498,0.101-0.497,0.5c0.013,7.229,0.009,14.458,0.009,21.688
					c0,0.407,0,0.812,0,1.315c-0.106-0.114-0.154-0.156-0.193-0.204c-0.699-0.888-1.454-1.724-2.273-2.505
					c-2.191-2.089-4.723-3.622-7.565-4.643c-3.323-1.193-6.757-1.562-10.269-1.351c-2.119,0.128-4.199,0.458-6.217,1.113
					c-6.225,2.021-10.793,6.052-13.984,11.689c-1.776,3.142-2.689,6.561-2.948,10.16c-0.176,2.432-0.127,4.855,0.274,7.262
					c0.728,4.338,2.451,8.23,5.232,11.645c2.434,2.986,5.319,5.41,8.829,7.037c4.652,2.158,9.537,2.714,14.569,1.914
					c5.294-0.842,9.812-3.217,13.504-7.123c0.337-0.357,0.65-0.738,1.041-1.182c0,0.221,0,0.346,0,0.471
					c0,2.156,0.006,4.312-0.007,6.467c-0.001,0.312,0.06,0.432,0.404,0.43c1.841-0.019,3.681-0.018,5.521,0
					c0.345,0.003,0.404-0.115,0.404-0.428C289.883,84.42,289.883,63.154,289.892,41.887z M279.025,94.789
					c-2.188,2.57-4.772,4.609-7.973,5.787c-1.55,0.571-3.151,0.887-4.803,0.959c-3.25,0.143-6.368-0.405-9.229-1.982
					c-5.088-2.807-8.399-7.035-9.861-12.675c-0.463-1.786-0.666-3.609-0.645-5.002c-0.014-4.456,0.94-8.183,3.241-11.494
					c2.79-4.016,6.454-6.869,11.302-7.92c5.663-1.228,10.818-0.113,15.286,3.691c3.505,2.984,5.914,6.667,6.863,11.206
					C284.557,83.814,283.367,89.688,279.025,94.789z"/>
				<path fill-rule="evenodd" clip-rule="evenodd" fill="#34495F" d="M236.047,79.553c-0.282-3.054-0.954-6.006-2.146-8.834
					c-1.585-3.762-3.946-6.954-7.086-9.559c-4.028-3.344-8.728-4.938-13.907-5.2c-2.656-0.134-5.302,0.019-7.907,0.604
					c-7.467,1.677-12.941,5.977-16.535,12.682c-1.969,3.672-2.723,7.666-2.812,11.799c-0.04,1.879,0.095,3.75,0.442,5.602
					c1.354,7.205,5.266,12.728,11.23,16.839c4.129,2.847,8.801,4.001,13.771,4.009c1.44,0.003,2.881-0.117,4.311-0.35
					c4.854-0.79,9.034-2.918,12.572-6.312c2.897-2.781,4.968-6.125,6.551-9.791c0.116-0.27,0.062-0.332-0.224-0.332
					c-2.156,0.008-4.311,0.008-6.466,0c-0.214,0-0.328,0.057-0.422,0.257c-0.187,0.404-0.4,0.798-0.622,1.186
					c-2.063,3.621-4.969,6.315-8.819,7.95c-2.581,1.096-5.286,1.477-8.077,1.359c-2.073-0.086-4.111-0.396-6.033-1.18
					c-7.222-2.941-10.867-8.502-11.685-16.105c-0.04-0.373,0.047-0.484,0.444-0.484c7.19,0.014,14.38,0.01,21.569,0.01
					c2.472,0,4.942,0,7.413,0c4.72,0,9.438-0.004,14.156,0.01c0.373,0,0.455-0.111,0.449-0.462
					C236.197,82.015,236.16,80.783,236.047,79.553z M228.857,78.24c-5.465,0-10.933,0-16.398,0c-0.551,0-1.104,0-1.655,0
					c-5.966,0-11.933,0-17.897,0c-0.563,0-0.577-0.002-0.484-0.559c0.479-2.866,1.387-5.579,3.02-8
					c2.643-3.918,6.232-6.519,10.905-7.418c4.715-0.908,9.312-0.487,13.623,1.78c3.066,1.611,5.247,4.105,6.847,7.139
					c1.121,2.127,1.854,4.392,2.407,6.722C229.316,78.295,229.083,78.24,228.857,78.24z"/>
				<path fill-rule="evenodd" clip-rule="evenodd" fill="#34495F" d="M142.596,92.187c0-11.46,0-22.921-0.001-34.382
					c0-0.606,0.061-0.54-0.555-0.541c-1.708-0.002-3.418,0.009-5.126-0.009c-0.351-0.004-0.439,0.094-0.437,0.44
					c0.015,2.287,0.006,4.574,0.006,6.86c0,0.125,0,0.25,0,0.458c-0.113-0.128-0.174-0.188-0.227-0.257
					c-0.816-1.082-1.713-2.091-2.718-3.003c-2.356-2.135-5.069-3.631-8.103-4.554c-3.537-1.075-7.141-1.238-10.791-0.798
					c-3.028,0.365-5.908,1.205-8.596,2.654c-4.442,2.396-7.867,5.834-10.297,10.25c-2.029,3.688-2.89,7.685-3.002,11.863
					c-0.055,2.039,0.091,4.068,0.473,6.072c1.275,6.654,4.762,11.902,10.227,15.84c3.803,2.741,8.125,4.035,12.774,4.273
					c3.618,0.184,7.15-0.268,10.546-1.592c3.385-1.32,6.353-3.242,8.691-6.063c0.327-0.396,0.639-0.803,1.021-1.285
					c0,0.243,0,0.372,0,0.499c0,2.261,0.008,4.521-0.006,6.782c-0.003,0.323,0.079,0.423,0.413,0.42
					c1.747-0.017,3.496-0.021,5.243,0.001c0.392,0.006,0.472-0.112,0.47-0.483C142.591,101.15,142.596,96.668,142.596,92.187z
					 M131.503,94.987c-2.047,2.389-4.461,4.294-7.42,5.446c-1.802,0.7-3.668,1.057-5.604,1.111c-3.202,0.09-6.262-0.492-9.055-2.07
					c-5.281-2.982-8.667-7.4-9.83-13.42c-0.252-1.307-0.358-2.625-0.329-3.672c-0.021-3.645,0.588-6.882,2.163-9.863
					c2.486-4.708,6.132-8.169,11.307-9.72c5.127-1.537,10.089-1.051,14.586,1.991c4.668,3.158,7.886,7.427,8.82,13.083
					C137.195,84.238,135.757,90.021,131.503,94.987z"/>
				<path fill-rule="evenodd" clip-rule="evenodd" fill="#34495F" d="M316.402,58.033c-0.373-2.934-2.129-4.789-4.728-5.971
					c-0.193-0.088-0.253-0.043-0.25,0.166c0.009,0.499,0.019,1-0.003,1.498c-0.013,0.272,0.081,0.41,0.321,0.545
					c1.926,1.081,2.929,2.713,2.921,4.947c-0.013,2.854-2.092,5.171-4.922,5.473c-0.312,0.033-0.437-0.024-0.434-0.38
					c0.018-2.063,0.008-4.127,0.008-6.19s-0.009-4.127,0.01-6.19c0.002-0.359-0.107-0.459-0.446-0.43
					c-0.418,0.035-0.837,0.038-1.255,0.097c-1.643,0.231-3.096,0.86-4.343,1.968c-2.62,2.328-2.817,6.296-1.506,8.967
					c1.173,2.389,3.146,3.74,5.795,4.072c2.58,0.324,4.841-0.352,6.702-2.205C316.044,62.636,316.712,60.489,316.402,58.033z
					 M307.356,64.613c-2.335-0.354-4.249-2.228-4.505-4.538c-0.338-3.059,0.902-5.355,4.146-6.326
					c0.7-0.209,0.701-0.202,0.701,0.516c0,1.616,0,3.232,0,4.849c0,1.721-0.003,3.442,0.005,5.164
					C307.706,64.541,307.657,64.659,307.356,64.613z"/>
			</g>
		</g>
	</g>
	<g>
		<path fill="#34495F" d="M752.291,73.803l-13.65-7.64v-0.1l13.645-8.182l-14.352-8.062l-13.639,8.03v15.946l13.242,8.221v0.109
			l-13.242,7.961l13.777,8.828l14.213-8.523l-0.031-0.018h0.037V73.803z M737.537,80.72l-12.096-7.537V58.562l12.096,7.512V80.72z
			 M726.425,57.876l11.52-6.783l12.143,6.82l-12.006,7.199L726.425,57.876z M738.64,82.009l12.545-7.542v15.322l-12.545,7.504
			V82.009z"/>
		<path fill="#34495F" d="M768.884,68.96c-0.385,0.316-0.574,0.732-0.574,1.252c0,0.519,0.232,0.932,0.701,1.238
			c0.469,0.306,1.549,0.668,3.242,1.084c1.691,0.417,3.008,1.043,3.943,1.876c0.936,0.834,1.404,2.051,1.404,3.651
			s-0.6,2.896-1.801,3.893c-1.197,0.996-2.777,1.492-4.734,1.492c-2.824,0-5.369-1.045-7.633-3.139l2.375-2.91
			c1.924,1.686,3.701,2.527,5.334,2.527c0.732,0,1.307-0.158,1.723-0.473c0.418-0.314,0.627-0.74,0.627-1.275
			c0-0.537-0.221-0.963-0.664-1.277s-1.318-0.633-2.629-0.957c-2.078-0.494-3.596-1.136-4.559-1.927
			c-0.959-0.791-1.441-2.033-1.441-3.727s0.609-3,1.826-3.918c1.217-0.92,2.734-1.379,4.557-1.379c1.189,0,2.383,0.204,3.574,0.613
			c1.189,0.407,2.229,0.986,3.113,1.735l-2.016,2.909c-1.549-1.174-3.15-1.762-4.801-1.762
			C769.791,68.488,769.267,68.646,768.884,68.96"/>
		<path fill="#34495F" d="M788.166,69.28c1.598,0,3.023,0.669,4.275,2.004c1.25,1.337,1.875,3.017,1.875,5.042
			c0,2.025-0.625,3.719-1.875,5.08c-1.252,1.361-2.715,2.041-4.391,2.041c-1.678,0-3.025-0.672-4.047-2.016v6.764h-3.828V69.509
			h3.828v1.531C785.177,69.867,786.564,69.28,788.166,69.28 M783.953,76.39c0,1.113,0.311,2.025,0.932,2.73
			c0.621,0.707,1.375,1.061,2.258,1.061c0.885,0,1.66-0.354,2.324-1.061c0.664-0.705,0.996-1.611,0.996-2.719
			c0-1.105-0.324-2.033-0.971-2.782s-1.422-1.123-2.322-1.123c-0.902,0-1.664,0.37-2.285,1.11S783.953,75.274,783.953,76.39"/>
		<path fill="#34495F" d="M808.753,83.243h-3.6v-1.66c-0.986,1.242-2.207,1.863-3.664,1.863c-1.453,0-2.676-0.42-3.662-1.262
			c-0.988-0.844-1.48-1.967-1.48-3.371s0.51-2.453,1.531-3.152c1.021-0.697,2.416-1.046,4.186-1.046h2.859v-0.076
			c0-1.464-0.773-2.195-2.322-2.195c-0.664,0-1.365,0.132-2.105,0.396c-0.74,0.265-1.365,0.592-1.877,0.983l-1.711-2.477
			c1.805-1.311,3.863-1.966,6.18-1.966c1.666,0,3.027,0.417,4.084,1.251c1.055,0.834,1.582,2.153,1.582,3.957V83.243z
			 M804.898,78.011v-0.664h-2.4c-1.529,0-2.297,0.477-2.297,1.43c0,0.494,0.184,0.871,0.551,1.135
			c0.365,0.264,0.887,0.396,1.568,0.396s1.281-0.209,1.799-0.625C804.638,79.265,804.898,78.708,804.898,78.011"/>
		<path fill="#34495F" d="M818.662,80.052c1.275,0,2.424-0.639,3.445-1.914l2.271,2.553c-1.77,1.838-3.684,2.756-5.742,2.756
			c-2.061,0-3.801-0.65-5.221-1.951c-1.422-1.303-2.131-3.004-2.131-5.105c0-2.102,0.719-3.812,2.156-5.131s3.143-1.979,5.117-1.979
			c0.986,0,1.988,0.204,3,0.613c1.012,0.408,1.902,1.012,2.666,1.812l-1.99,2.604c-0.441-0.526-0.982-0.936-1.619-1.225
			c-0.639-0.289-1.273-0.434-1.902-0.434c-1.006,0-1.869,0.328-2.592,0.982c-0.723,0.655-1.084,1.566-1.084,2.732
			c0,1.164,0.361,2.072,1.084,2.719S817.691,80.052,818.662,80.052"/>
		<path fill="#34495F" d="M838.828,81.251c-1.551,1.465-3.367,2.195-5.451,2.195s-3.807-0.641-5.17-1.926
			c-1.361-1.285-2.041-3.008-2.041-5.17c0-2.161,0.693-3.88,2.08-5.156c1.387-1.277,3.025-1.915,4.914-1.915s3.492,0.571,4.812,1.71
			c1.318,1.141,1.979,2.707,1.979,4.697v2.043h-10.008c0.119,0.748,0.512,1.361,1.174,1.838c0.666,0.477,1.412,0.715,2.248,0.715
			c1.344,0,2.449-0.451,3.318-1.354L838.828,81.251z M835.15,73.109c-0.525-0.442-1.17-0.663-1.926-0.663
			c-0.758,0-1.451,0.229-2.08,0.688c-0.631,0.459-0.996,1.081-1.098,1.863h6.023C835.984,74.181,835.677,73.552,835.15,73.109"/>
		<polygon fill="#34495F" points="847.773,75.661 850.937,65.4 855.099,65.4 858.238,75.661 861.787,65.4 866.101,65.4 
			859.873,83.243 856.912,83.243 853.005,70.837 849.125,83.243 846.166,83.243 839.935,65.4 844.25,65.4 		"/>
		<path fill="#34495F" d="M878.021,83.243h-3.6v-1.66c-0.986,1.242-2.207,1.863-3.662,1.863c-1.457,0-2.678-0.42-3.664-1.262
			c-0.986-0.844-1.48-1.967-1.48-3.371s0.512-2.453,1.533-3.152c1.02-0.697,2.414-1.046,4.186-1.046h2.859v-0.076
			c0-1.464-0.775-2.195-2.324-2.195c-0.664,0-1.365,0.132-2.105,0.396c-0.74,0.265-1.365,0.592-1.877,0.983l-1.709-2.477
			c1.803-1.311,3.861-1.966,6.176-1.966c1.668,0,3.029,0.417,4.084,1.251c1.057,0.834,1.584,2.153,1.584,3.957V83.243z
			 M874.166,78.011v-0.664h-2.398c-1.531,0-2.297,0.477-2.297,1.43c0,0.494,0.182,0.871,0.549,1.135
			c0.365,0.264,0.889,0.396,1.57,0.396c0.68,0,1.279-0.209,1.799-0.625C873.906,79.265,874.166,78.708,874.166,78.011"/>
		<path fill="#34495F" d="M883.539,88.655c-1.346,0-2.613-0.545-3.803-1.635l1.734-2.832c0.646,0.629,1.311,0.943,1.992,0.943
			c0.357,0,0.662-0.174,0.918-0.523c0.256-0.348,0.383-0.719,0.383-1.109c0-0.393-1.77-5.055-5.311-13.99h4.086l3.344,8.552
			l3.344-8.552h4.084l-6.381,16.185c-0.373,0.936-0.957,1.662-1.748,2.182C885.388,88.396,884.509,88.655,883.539,88.655"/>
		<path fill="#34495F" d="M905.958,78.968c0,1.354-0.498,2.438-1.494,3.254c-0.994,0.816-2.26,1.225-3.791,1.225
			c-1.021,0-2.084-0.182-3.189-0.549c-1.107-0.365-2.104-0.906-2.986-1.619l1.684-2.4c1.43,1.105,2.951,1.66,4.568,1.66
			c0.494,0,0.885-0.098,1.176-0.295c0.289-0.195,0.434-0.455,0.434-0.777c0-0.324-0.199-0.621-0.602-0.895
			c-0.398-0.271-0.979-0.527-1.734-0.766c-0.758-0.238-1.336-0.441-1.736-0.613c-0.4-0.17-0.855-0.416-1.365-0.74
			c-1.039-0.646-1.557-1.603-1.557-2.871s0.51-2.302,1.531-3.102s2.34-1.2,3.957-1.2c1.615,0,3.232,0.545,4.85,1.634l-1.43,2.553
			c-1.191-0.816-2.379-1.225-3.561-1.225c-1.184,0-1.775,0.322-1.775,0.97c0,0.357,0.188,0.638,0.562,0.842s0.996,0.443,1.863,0.716
			c0.869,0.271,1.484,0.48,1.852,0.625c0.365,0.145,0.803,0.371,1.312,0.676C905.48,76.649,905.958,77.614,905.958,78.968"/>
	</g>
	<g id="GJAFlB.tif_1_">
		<g>
			<path fill-rule="evenodd" clip-rule="evenodd" fill="#34495F" d="M406.516,63.366c0.04-0.073,0.099-0.142,0.117-0.22
				c0.333-1.351,1.415-2.209,2.807-2.21c6.013-0.001,12.025-0.001,18.037-0.001c0.971,0,1.94,0,2.911,0
				c1.748,0.001,2.986,1.191,2.99,2.949c0.012,6.967,0.015,13.935-0.002,20.902c-0.004,1.705-1.124,2.773-2.453,2.91
				c-0.082,0.008-0.157,0.07-0.234,0.107c-7.176,0-14.351,0-21.526,0c-0.059-0.037-0.114-0.096-0.177-0.107
				c-1.275-0.207-2.049-0.947-2.356-2.193c-0.017-0.062-0.075-0.113-0.113-0.17C406.516,78.011,406.516,70.688,406.516,63.366z
				 M425.984,86.269c0.667-0.561,1.293-1.041,1.859-1.582c0.23-0.221,0.432-0.561,0.475-0.871c0.09-0.648,0.14-1.32,0.076-1.969
				c-0.153-1.557-0.359-3.109-0.587-4.658c-0.215-1.461-0.615-2.87-1.419-4.128c-0.614-0.964-1.408-1.68-2.614-1.82
				c-0.49-0.057-0.969-0.211-1.457-0.295c-0.104-0.018-0.244,0.055-0.341,0.123c-1.241,0.867-2.545,0.969-3.909,0.328
				c-0.313-0.148-1.123-0.367-1.442-0.297c-0.683,0.148-1.4,0.24-2.028,0.524c-1.256,0.568-1.89,1.71-2.382,2.933
				c-0.723,1.798-0.781,3.712-0.97,5.603c-0.096,0.961-0.132,1.93-0.248,2.889c-0.166,1.35,0.115,1.971,1.305,2.654
				c0.202,0.117,0.421,0.209,0.625,0.324c0.304,0.17,0.529,0.176,0.551-0.271c0.275,0.074,0.512,0.152,0.754,0.203
				c0.686,0.143,1.004-0.006,1.293-0.572c0.027-0.053,0.102-0.092,0.162-0.113c0.297-0.109,0.306-0.346,0.31-0.611
				c0.007-0.42,0.371-0.822,0.058-1.26c-0.007-0.01,0.033-0.047,0.044-0.072c0.177-0.447,0.039-0.658-0.452-0.68
				c-0.177-0.008-0.354-0.002-0.529-0.002c-0.352-0.002-0.668-0.066-0.863-0.412c-0.053-0.098-0.157-0.199-0.259-0.23
				c-0.446-0.135-0.396-0.484-0.379-0.82c0.086-1.684,0.194-3.365,0.247-5.051c0.016-0.447,0.128-0.59,0.575-0.562
				c0.653,0.035,1.31,0.008,1.94,0.008c0.058-0.461,0.02-0.888,0.177-1.222c0.168-0.357,0.521-0.628,0.793-0.938
				c0.068-0.076,0.143-0.149,0.198-0.235c0.273-0.429,0.655-0.577,1.161-0.524c0.393,0.042,0.801,0.061,1.188,0
				c1.108-0.175,1.925,0.192,2.597,1.102c0.333,0.452,0.676,0.83,0.572,1.431c-0.054,0.316,0.106,0.404,0.403,0.393
				c0.514-0.02,1.029-0.023,1.542,0.008c0.121,0.008,0.328,0.168,0.334,0.268c0.108,1.889,0.192,3.777,0.278,5.668
				c0.004,0.096-0.005,0.24-0.065,0.283c-0.532,0.393-0.948,1.043-1.767,0.84c-0.083-0.021-0.177-0.01-0.265,0.002
				c-0.388,0.053-0.514,0.293-0.36,0.648c0.038,0.088,0.064,0.227,0.022,0.295c-0.164,0.264-0.146,0.488,0.05,0.725
				c0.054,0.064,0.09,0.189,0.065,0.266c-0.11,0.344-0.001,0.564,0.331,0.693c0.055,0.021,0.13,0.084,0.133,0.131
				c0.023,0.527,0.429,0.564,0.787,0.561c0.417-0.004,0.833-0.105,1.275-0.168C425.86,85.896,425.896,86.001,425.984,86.269z
				 M419.069,63.402c-0.032-0.029-0.065-0.058-0.098-0.086c-0.054,0.014-0.111,0.018-0.159,0.042
				c-0.797,0.396-1.597,0.788-2.385,1.198c-0.107,0.056-0.228,0.198-0.237,0.309c-0.062,0.71-0.096,1.422-0.139,2.134
				c-0.021,0.009-0.041,0.017-0.062,0.025c-0.167-0.506-0.334-1.013-0.509-1.541c-0.459,0.485-0.496,1.205,0.014,1.739
				c0.439,0.46,0.684,1.001,0.969,1.539c0.186,0.347,0.416,0.68,0.676,0.974c1.216,1.374,3.159,1.567,4.601,0.479
				c0.602-0.453,1.032-1.045,1.328-1.727c0.188-0.434,0.375-0.842,0.75-1.161c0.189-0.161,0.315-0.425,0.408-0.665
				c0.185-0.48,0.056-0.928-0.296-1.164c-0.172,0.529-0.344,1.059-0.516,1.588c-0.135-1.275,0.122-2.591-0.864-3.69
				c-1.354,1.195-2.878,1.859-4.737,1.673C418.247,64.492,418.659,63.947,419.069,63.402z M419.673,83.784
				c1.605,0.117,3.135-1.369,3.117-3.074c-0.017-1.73-1.369-3.053-3.104-3.105c-1.354-0.041-3.078,1.031-3.128,3.096
				C416.518,82.409,417.939,83.784,419.673,83.784z M419.837,73.827L419.837,73.827c-0.251-0.001-0.5-0.001-0.75-0.001
				c-1.318,0-1.312-0.001-1.233,1.333c0.015,0.244,0.097,0.334,0.341,0.334c1.071-0.008,2.145-0.008,3.216-0.002
				c0.216,0.002,0.329-0.062,0.321-0.299c-0.012-0.352-0.011-0.705,0-1.057c0.007-0.227-0.081-0.315-0.309-0.312
				C420.894,73.833,420.364,73.827,419.837,73.827z"/>
			<path fill-rule="evenodd" clip-rule="evenodd" fill="#34495F" d="M613.393,79.95c-0.058,0.236-0.114,0.473-0.174,0.707
				c-0.495,1.934-1.8,3.143-3.585,3.836c-2.811,1.092-5.447,0.523-7.938-1.01c-0.386-0.236-0.743-0.525-1.092-0.818
				c-0.384-0.322-0.362-0.508,0.054-0.99c0.307-0.355,0.491-0.377,0.854-0.07c0.985,0.838,2.071,1.496,3.318,1.861
				c1.987,0.584,3.866,0.41,5.549-0.887c1.965-1.518,1.968-4.213,0.017-5.76c-1.243-0.984-2.728-1.469-4.185-2.021
				c-1.027-0.39-2.059-0.786-3.038-1.28c-2.097-1.057-3.046-2.823-2.778-5.135c0.243-2.104,1.503-3.536,3.463-4.238
				c2.777-0.996,5.433-0.519,7.941,0.946c0.387,0.227,0.385,0.418,0.072,0.92c-0.28,0.451-0.445,0.511-0.848,0.265
				c-1.154-0.706-2.391-1.214-3.744-1.313c-1.793-0.131-3.493,0.166-4.699,1.662c-1.469,1.822-1.047,4.223,1,5.459
				c0.957,0.577,2.034,0.973,3.087,1.373c1.482,0.564,2.985,1.077,4.312,1.976c1.348,0.914,2.223,2.119,2.311,3.803
				c0.004,0.094,0.068,0.184,0.104,0.275C613.393,79.657,613.393,79.804,613.393,79.95z"/>
			<path fill-rule="evenodd" clip-rule="evenodd" fill="#34495F" d="M489.886,84.96c-5.565,0.105-10.657-4.357-10.621-10.654
				c0.032-5.838,4.517-10.61,10.617-10.607c6.217,0.004,10.686,4.963,10.634,10.778C500.462,80.532,495.512,85.044,489.886,84.96z
				 M483.052,74.349c-0.144,3.498,2.874,6.875,6.822,6.876c3.518,0,6.88-2.762,6.884-6.85c0.005-4.189-3.499-6.92-6.879-6.917
				C485.989,67.461,482.927,70.859,483.052,74.349z"/>
			<path fill-rule="evenodd" clip-rule="evenodd" fill="#34495F" d="M475.22,74.366c0,3.161,0,6.321,0,9.483
				c0,0.738-0.094,0.828-0.846,0.828c-0.736,0-1.471,0.002-2.206,0c-0.521-0.004-0.683-0.162-0.683-0.686
				c-0.003-2.514-0.01-5.027,0.007-7.543c0.003-0.404-0.111-0.518-0.517-0.516c-2.912,0.016-5.822,0.018-8.733,0
				c-0.415-0.004-0.552,0.096-0.548,0.531c0.02,2.469,0.01,4.939,0.009,7.41c0,0.666-0.136,0.803-0.792,0.803
				c-0.736,0.002-1.471,0.002-2.206,0c-0.653,0-0.808-0.152-0.808-0.799c0-4.971,0-9.939,0-14.908c0-1.397-0.001-2.794,0-4.19
				c0.002-0.612,0.146-0.761,0.745-0.763c0.794-0.002,1.588-0.002,2.382,0c0.52,0.003,0.677,0.16,0.679,0.688
				c0.001,2.397,0.01,4.793-0.008,7.189c-0.003,0.402,0.106,0.521,0.515,0.52c2.926-0.018,5.853-0.019,8.778,0
				c0.429,0.004,0.505-0.147,0.503-0.53c-0.015-2.366-0.008-4.734-0.007-7.101c0-0.65,0.117-0.766,0.772-0.766
				c0.721-0.001,1.441-0.001,2.161,0c0.717,0,0.802,0.085,0.802,0.821C475.22,68.014,475.22,71.19,475.22,74.366z"/>
			<path fill-rule="evenodd" clip-rule="evenodd" fill="#34495F" d="M504.479,74.35c0-3.146,0-6.29,0-9.437
				c0.002-0.779,0.117-0.896,0.884-0.896c2.249-0.001,4.497-0.002,6.746,0c3.222,0.003,5.968,2.447,6.431,5.646
				c0.474,3.273-1.773,6.841-5.559,7.392c-1.167,0.17-2.377,0.047-3.566,0.051c-1.133,0.006-1.133,0.002-1.133,1.141
				c0,1.867,0,3.732,0,5.6c-0.001,0.674-0.156,0.83-0.826,0.83c-0.691,0-1.382,0-2.072,0c-0.762,0-0.902-0.139-0.902-0.891
				c-0.002-2.646-0.002-5.291-0.002-7.938C504.479,75.349,504.479,74.849,504.479,74.35z M508.328,67.56
				c-0.021,0.107-0.04,0.162-0.04,0.218c-0.003,1.837,0.001,3.675-0.01,5.513c-0.002,0.328,0.181,0.344,0.423,0.343
				c1.045-0.003,2.089,0.017,3.131-0.006c1.587-0.034,2.882-1.274,3.044-2.882c0.146-1.422-0.845-2.766-2.377-3.091
				c-0.621-0.132-1.283-0.08-1.928-0.091C509.826,67.55,509.081,67.56,508.328,67.56z"/>
			<path fill-rule="evenodd" clip-rule="evenodd" fill="#34495F" d="M447.114,84.962c-2.162-0.002-4.144-0.574-5.895-1.869
				c-0.036-0.025-0.071-0.053-0.105-0.08c-0.794-0.633-0.804-0.678-0.307-1.543c0.256-0.445,0.509-0.893,0.773-1.334
				c0.29-0.484,0.609-0.527,1.109-0.26c1.006,0.537,2.01,1.09,3.055,1.543c0.748,0.326,1.564,0.355,2.369,0.092
				c1.811-0.594,2.328-2.541,1.029-3.932c-0.824-0.883-1.899-1.365-2.99-1.816c-1.281-0.529-2.529-1.119-3.584-2.041
				c-1.717-1.498-2.426-3.379-1.906-5.611c0.531-2.291,2.097-3.635,4.327-4.16c2.881-0.678,5.521,0.002,7.938,1.648
				c0.459,0.312,0.51,0.631,0.215,1.089c-0.335,0.519-0.677,1.032-1.03,1.539c-0.377,0.542-0.661,0.597-1.217,0.261
				c-0.969-0.59-1.966-1.117-3.077-1.395c-0.689-0.173-1.365-0.153-2.028,0.101c-1.587,0.608-1.988,2.329-0.83,3.572
				c0.679,0.728,1.55,1.159,2.446,1.538c1.435,0.606,2.879,1.189,4.131,2.148c1.13,0.865,1.981,1.923,2.312,3.335
				c0.595,2.545-0.571,5.051-2.917,6.299C449.739,84.722,448.678,84.964,447.114,84.962z"/>
			<path fill-rule="evenodd" clip-rule="evenodd" fill="#34495F" d="M538.462,81.472c0.046-0.131,0.099-0.258,0.137-0.391
				c1.565-5.498,3.131-10.998,4.695-16.497c0.168-0.593,0.774-0.896,1.316-0.608c0.108,0.057,0.175,0.357,0.133,0.51
				c-0.491,1.781-1.006,3.557-1.514,5.332c-1.399,4.877-2.798,9.751-4.197,14.628c-0.084,0.289-0.107,0.602-0.559,0.6
				c-0.437-0.004-0.484-0.289-0.573-0.59c-1.671-5.652-3.343-11.304-5.016-16.956c-0.056-0.188-0.131-0.37-0.293-0.552
				c-0.056,0.159-0.12,0.316-0.167,0.479c-1.667,5.638-3.331,11.277-5.004,16.914c-0.071,0.238-0.176,0.541-0.363,0.654
				c-0.347,0.213-0.649-0.004-0.785-0.475c-0.433-1.508-0.863-3.016-1.297-4.523c-1.465-5.117-2.932-10.232-4.397-15.349
				c-0.193-0.674-0.162-0.714,0.52-0.715c0.705-0.002,0.708-0.002,0.903,0.68c1.573,5.482,3.146,10.964,4.72,16.447
				c0.04,0.137,0.089,0.27,0.179,0.539c0.113-0.303,0.192-0.48,0.246-0.666c1.442-4.893,2.883-9.789,4.323-14.683
				c0.202-0.688,0.413-1.375,0.608-2.066c0.083-0.287,0.18-0.521,0.542-0.529c0.375-0.008,0.501,0.213,0.593,0.525
				c1.511,5.118,3.026,10.235,4.541,15.353c0.19,0.643,0.384,1.285,0.576,1.928C538.374,81.464,538.419,81.468,538.462,81.472z"/>
			<path fill-rule="evenodd" clip-rule="evenodd" fill="#34495F" d="M558.095,66.529c-0.012,0.196-0.034,0.392-0.034,0.588
				c-0.002,5.645-0.002,11.289-0.002,16.933c-0.001,0.637-0.089,0.723-0.706,0.713c-0.494-0.008-0.646-0.158-0.646-0.67
				c-0.001-6.6-0.003-13.2,0.013-19.798c0.001-0.205,0.145-0.525,0.304-0.59c0.322-0.133,0.658-0.094,0.927,0.26
				c1.785,2.352,3.591,4.688,5.389,7.03c2.738,3.565,5.477,7.131,8.212,10.698c0.086,0.111,0.151,0.24,0.226,0.359
				c0.053-0.033,0.105-0.068,0.158-0.104c0.01-0.197,0.026-0.395,0.026-0.59c0.001-5.541,0.012-11.083-0.009-16.625
				c-0.003-0.887,0.312-0.84,1.071-0.773c0.103,0.009,0.211,0.178,0.276,0.295c0.043,0.082,0.021,0.201,0.021,0.305
				c0,6.614,0.001,13.228,0,19.843c-0.001,0.551-0.217,0.744-0.728,0.615c-0.151-0.039-0.301-0.178-0.402-0.307
				c-1.719-2.201-3.444-4.395-5.139-6.613c-2.864-3.746-5.709-7.507-8.562-11.263c-0.087-0.113-0.18-0.221-0.27-0.332
				C558.179,66.512,558.137,66.521,558.095,66.529z"/>
			<path fill-rule="evenodd" clip-rule="evenodd" fill="#34495F" d="M596.435,79.03c0,1.029-0.032,2.059,0.012,3.086
				c0.026,0.605-0.227,0.953-0.729,1.225c-1.33,0.719-2.736,1.211-4.221,1.471c-2.218,0.391-4.423,0.369-6.536-0.492
				c-3.786-1.541-6.115-4.344-6.702-8.391c-0.827-5.697,2.684-10.767,8.309-12.02c3.442-0.767,6.616-0.06,9.327,2.315
				c0.432,0.38,0.438,0.484,0.076,0.896c-0.498,0.563-0.565,0.572-1.017,0.183c-1.616-1.397-3.464-2.184-5.624-2.312
				c-4.542-0.271-8.776,3.012-9.567,7.791c-0.823,4.976,2.365,9.675,7.309,10.685c2.644,0.539,5.188,0.037,7.588-1.191
				c0.298-0.152,0.413-0.365,0.41-0.703c-0.014-1.527-0.017-3.057,0-4.586c0.006-0.404-0.133-0.527-0.537-0.521
				c-1.454,0.021-2.91,0.01-4.364,0.008c-0.535,0-0.573-0.053-0.573-0.684c-0.002-0.645,0.014-0.668,0.569-0.668
				c1.881-0.002,3.763-0.004,5.645,0c0.563,0.002,0.625,0.066,0.626,0.646C596.437,76.854,596.434,77.942,596.435,79.03z"/>
			<path fill-rule="evenodd" clip-rule="evenodd" fill="#34495F" d="M550.454,74.349c0,3.232,0.004,6.462-0.012,9.695
				c-0.001,0.217-0.113,0.576-0.253,0.619c-0.298,0.094-0.648,0.043-0.973,0.006c-0.076-0.01-0.159-0.195-0.188-0.314
				c-0.034-0.139-0.018-0.291-0.018-0.438c0-6.391,0-12.78,0-19.169c0-0.76,0.421-1.072,1.12-0.773
				c0.162,0.068,0.306,0.387,0.309,0.592c0.023,1.821,0.014,3.643,0.014,5.465C550.454,71.47,550.454,72.91,550.454,74.349z"/>
			<path fill-rule="evenodd" clip-rule="evenodd" fill="#34495F" d="M419.553,82.536c-0.277-0.08-0.566-0.137-0.824-0.256
				c-0.097-0.047-0.122-0.246-0.181-0.375c0.138-0.053,0.279-0.154,0.413-0.145c0.243,0.018,0.483,0.152,0.72,0.145
				c0.151-0.006,0.362-0.154,0.421-0.291c0.042-0.098-0.086-0.338-0.204-0.422c-0.246-0.18-0.543-0.285-0.808-0.441
				c-0.509-0.301-0.727-0.727-0.61-1.152c0.114-0.416,0.539-0.691,1.115-0.672c0.286,0.008,0.577,0.07,0.852,0.156
				c0.09,0.027,0.212,0.254,0.181,0.307c-0.067,0.113-0.222,0.234-0.347,0.24c-0.182,0.01-0.371-0.127-0.551-0.111
				c-0.181,0.014-0.353,0.137-0.529,0.211c0.091,0.164,0.144,0.381,0.28,0.479c0.247,0.176,0.555,0.266,0.82,0.418
				c0.505,0.289,0.679,0.654,0.562,1.117c-0.105,0.418-0.517,0.715-1.03,0.736c-0.088,0.004-0.177,0-0.264,0
				C419.563,82.499,419.557,82.519,419.553,82.536z"/>
		</g>
	</g>
	<g>
		<path fill="#34495F" d="M1138.072,67.16l4.668,3l-16,18.5c0,0-27.584-28.667-27.5-36.5l7.332,2.166
			c3.75,9.334,19.918,26,19.918,26L1138.072,67.16z"/>
		<path fill="#34495F" d="M1153.826,50.661l-5.416-4c0,0,0.832-9.167-4.918-14l-2.584-11.083
			C1140.908,21.577,1158.244,30.078,1153.826,50.661z"/>
		<path fill="#34495F" d="M1104.742,43.412"/>
		<path fill="#34495F" d="M1098.826,41.995l5.916,1.417c0,0,2.75-20.25,25.25-19.167l0.834-6.417
			C1130.826,17.828,1102.994,14.911,1098.826,41.995z"/>
		<path fill="#34495F" d="M1144.492,67.996c0,0,6.834-7.834,8.834-14.5c0,0-8.918-6.416-9.668-7.666s-1.502-15.082-4.334-20.666
			c0,0-0.5-5.916,0-6.75s1.916-3.667,0.666-4.833s-7.084,1.833-7.334,5.917s-0.5,11.076-0.5,11.076s-7.25-1.576-9.582-2.076
			c-2.334-0.5-7.25,1.166-6.25,5.417c-1.498,1.917-4.334,1.243-2.25,6.747c0,0-5.418,1.752-3,6.419c0,0-8.828-1.75-12.248-3
			c-3.418-1.25-3.918,3.083-2.086,4.333c1.834,1.25,15.502,5.084,17.418,6.5c1.916,1.417,8.621,5.5,10.352,6.167s8.73,1,10.314,1.75
			S1144.492,67.996,1144.492,67.996z"/>
		<path fill="#34495F" d="M1037.404,101.829c0,0,0.918-3,0.834-3.666s4.5,1.5,5.5-2.666h9.5c0,0,7.25,2.416,6.75,8.166
			s-7.5,8.334-7.666,8.834c-0.168,0.5,1.084,1.416,1.166,2.082c0.084,0.668,0.168,8.417-0.582,11.417c0,0,2.834,3.083,4.084,2
			l1,3.833c0,0-3.168,1.5-5.584,1.417s-6.75-2.583-6-5.667c0.75-3.083,2.334-11.746,1.918-13.206
			c-0.418-1.46-1.584-2.377-1.584-2.377l1.166-2.583c0,0,6.668-2.084,6.584-5.834s-3.666-4.166-5.166-4.083
			s-7.418,26.667-7.418,26.667h-6.416l6.416-24.417L1037.404,101.829z"/>
		<path fill="#34495F" d="M1056.492,126.163h5.416c0,0,5.25-18.584,5.166-19.084c-0.082-0.5-5.291,0-5.291,0L1056.492,126.163z"/>
		<ellipse fill="#34495F" cx="1065.659" cy="101.163" rx="3.083" ry="2.083"/>
		<g>
			<path fill="#34495F" d="M1082.824,96.829l-2.951,12.807c-0.547-1.469-1.465-2.555-2.719-3.007
				c-3.234-1.168-7.441,2.278-9.396,7.697c-1.957,5.419-0.924,10.759,2.311,11.925c2.094,0.756,4.592-0.43,6.625-2.824l-0.703,3.052
				h6.084l6.834-29.649H1082.824z M1076.494,117.443c-0.994,2.837-2.992,4.719-4.467,4.204c-1.475-0.516-1.865-3.234-0.873-6.07
				c0.992-2.838,2.992-4.719,4.467-4.204C1077.093,111.889,1077.486,114.606,1076.494,117.443z"/>
		</g>
		<g>
			<path fill="#34495F" d="M1096.49,106.857c-6.75,0-9.916,8.638-10.082,11.472c-0.168,2.832,0.082,8.149,6.832,8.149
				c3.334,0,4.084-1.483,4.084-1.483l0.75-3.834c0,0-1.168,1.25-4,1.25c-2.834,0-2.584-3-2.584-3l2.5,0.668
				c7.168,0,8.584-7.668,8.584-7.668S1103.24,106.857,1096.49,106.857z M1098.574,113.245c0,1.5-3.834,2.916-3.834,2.916h-3.25
				c0,0,2.834-5.166,5.084-5.166S1098.574,111.745,1098.574,113.245z"/>
		</g>
		<path fill="#34495F" d="M1104.324,102.244l0.75-3.442l3.25-0.475c0,0,5.082-3.25,9-3.25c3.916,0,8,1.752,8,1.752l-1.416,4.915
			l-6.418-1.583c0,0-5.332,0.166-5.332,3.583s9.5,4.616,9.5,12.767s-8.168,9.968-11.334,9.968s-8.5-2.151-8.5-2.151l1.416-5
			c0,0,1.584,1.917,6.918,1.917c5.332,0,5.125-1.884,5.25-4.576c0.182-3.919-9.168-5.508-9.168-12.508c0,0,3.5-0.578,4.584-2.997
			c-1.584,0.581-3.166,0.581-3.166,0.581L1104.324,102.244z"/>
		<path fill="#34495F" d="M1126.158,106.857h5.416l-3.5,13.054c0,0-0.584,2.25,1.584,2.25c2.166,0,3.916-2.584,3.916-2.584
			l2.834-12.72h5.75l-4.918,19.621h-5.582l-0.25-0.901c0,0-0.25,0.901-4.5,0.901s-4.5-4.651-4.5-4.651L1126.158,106.857z"/>
		<path fill="#34495F" d="M1191.992,126.479h-5.418l3.5-13.054c0,0,0.584-2.25-1.582-2.25c-2.168,0-3.918,2.584-3.918,2.584
			l-2.832,12.72h-5.75l4.916-19.621h5.584l0.25,0.901c0,0,0.25-0.901,4.5-0.901s4.5,4.651,4.5,4.651L1191.992,126.479z"/>
		<path fill="#34495F" d="M1140.824,126.479h5.416l3-11.817c0,0,1.918-2.916,3.75-2.916c1.834,0,2,0.583,2,0.583l1.334-5.471h-3.334
			l-1.582,1.304v-1.304h-5.334L1140.824,126.479z"/>
		<polygon fill="#34495F" points="1171.49,106.857 1176.74,106.857 1171.49,126.479 1166.074,126.479 		"/>
		<g>
			<path fill="#34495F" d="M1209.658,106.857l-0.584,1.304c0,0-0.082-1.304-3.5-1.304c-3.416,0-9.832,4.054-9.832,12.304
				c0,7.25,5.332,7.317,5.332,7.317l3.584-0.9c0,0-1.334,5.167-4.416,5.167c-3.084,0-3.168-2.167-3.168-2.167l-2.082,4
				c0,0,1.832,2.833,5.582,2.833c6,0,9.25-7.833,9.25-7.833l5.334-20.721H1209.658z M1207.824,113.328
				c0,4.583-3.248,8.667-4.832,8.667s-1.75-0.084-1.75-3c0-4.334,3.416-8.167,5.082-8.167
				C1207.992,110.828,1207.824,111.722,1207.824,113.328z"/>
		</g>
		<path fill="#34495F" d="M1149.408,128.162l-0.834,2.833c0,0,1.002,1.75,3.502,1.75s6.416-1,8.332-5.916
			c1.918-4.917,3.918-16.051,3.918-16.051h3.75l0.75-3.921h-2.752c0,0,1.086-6.445,4.502-6.445c1.164,0,1.666,0.417,1.666,0.417
			s0.584,2.416,3.166,2.416c2.584,0,3.334-2.25,3.334-2.25s0.332-2.193-2.75-2.193c-2.584,0-2.084-1.973-5.25-1.973
			c-7.916,0-10.5,10.028-10.5,10.028h-2.666l-1.252,3.921h2.502l-3.918,15.7c0,0-1.332,2.851-3.332,2.851
			S1149.408,128.162,1149.408,128.162z"/>
	</g>
</g>
</svg>
