<?xml version="1.0" encoding="utf-8"?>
<!-- Generator: Adobe Illustrator 16.0.0, SVG Export Plug-In . SVG Version: 6.00 Build 0)  -->
<!DOCTYPE svg PUBLIC "-//W3C//DTD SVG 1.1//EN" "http://www.w3.org/Graphics/SVG/1.1/DTD/svg11.dtd">
<svg version="1.1" id="Calque_1" xmlns="http://www.w3.org/2000/svg" xmlns:xlink="http://www.w3.org/1999/xlink" x="0px" y="0px"
	 width="1260.562px" height="148.738px" viewBox="0 0 1260.562 148.738" enable-background="new 0 0 1260.562 148.738"
	 xml:space="preserve">
<g>
	<g>
		<path fill="#34495F" d="M998.646,87.752c0.655-1.52,1.042-7.355,1.195-10.035c-0.758-0.762-1.569-1.291-2.451-1.885
			c0.176,0.729,0.279,1.572,0.279,2.359c0,4.986-3.748,9.072-8.366,9.072c-4.623,0-8.368-4.021-8.368-9.008
			c0-0.893,0.123-1.736,0.345-2.548c-1.013,0.635-1.935,1.065-2.787,1.922c0.146,2.663,0.535,8.603,1.195,10.122H998.646z"/>
		<path fill="#34495F" d="M1002.688,78.184c-0.4,0-0.79,0.043-1.169,0.127c-0.123,2.17-0.455,6.917-1.164,10.254
			c0.516,0.227,0.88,0.768,0.88,1.404c0,0-1.149,6.981-1.562,12.865c2.979-2.941,4.912-7.102,5.096-11.758
			c2.374-0.926,4.083-3.359,4.083-6.238C1008.853,81.16,1006.092,78.184,1002.688,78.184"/>
		<path fill="#34495F" d="M977.281,89.969c0-0.566,0.297-1.039,0.723-1.301c-0.729-3.356-1.067-8.217-1.191-10.395
			c-0.293-0.053-0.59-0.09-0.897-0.09c-3.405,0-6.165,2.977-6.165,6.654c0,2.738,1.535,5.088,3.727,6.107
			c0.15,4.684,2.07,8.873,5.051,11.844C978.148,96.121,977.281,89.969,977.281,89.969"/>
		<path fill="#34495F" d="M1002.799,60.117c0-8.662-6.507-15.685-14.532-15.685c-8.027,0-14.533,7.022-14.533,15.685
			c0,4.697,1.043,4.003,1.188,11.258c0,1.458,1.367,2.689,3.106,2.689h4.818c0,0,2.7-2.538,0-4.418
			c-6.392-2.2-3.932-12.483-2.057-14.63c1.874-2.144,3.898-2.857,6.173-3.163c-0.082,0.025-0.164,0.046-0.244,0.073
			c-0.096,0.738-0.123,1.499-0.064,2.275c0.442,5.569,4.985,9.7,10.146,9.225c0.457-0.045,1.162-0.104,1.794-0.201
			c-0.448,3.255-2.527,5.261-4.474,6.42c-2.055,1.225,0,4.418,0,4.418h4.382c1.739,0,3.339-0.777,3.311-2.604
			C1001.578,65.482,1002.799,65.003,1002.799,60.117 M979.623,53.713c-1.088,1.202-1.942,2.611-2.545,4.127
			c0.744-5.993,5.463-10.757,11.192-10.757c5.362,0,9.84,4.03,11.006,9.435c-0.521-1.15-1.211-2.227-2.002-3.125
			c-1.195-1.313-2.569-2.302-4.114-2.988c-1.54-0.662-3.204-0.948-4.848-0.901C985.025,49.616,981.822,51.217,979.623,53.713"/>
		<path fill="#34495F" d="M988.961,111.645c-20.961,0-38.014-17.051-38.014-38.011c0-20.959,17.053-38.012,38.014-38.012
			c20.959,0,38.011,17.052,38.011,38.012C1026.972,94.594,1009.92,111.645,988.961,111.645 M988.961,40.34
			c-18.166,0-32.945,14.935-32.945,33.293c0,18.357,14.779,33.292,32.945,33.292c18.164,0,32.942-14.936,32.942-33.292
			C1021.903,55.275,1007.125,40.34,988.961,40.34"/>
		<path fill="#34495F" d="M1070.357,54.413l-3.547,16.716c-0.402-0.058-0.859-0.058-1.261-0.058c-1.83,0-3.778,0.401-5.725,0.744
			l3.721-17.402c-0.744-0.057-1.487-0.114-2.289-0.114c-9.56,0-20.094,7.27-20.094,14.882c0,4.123,2.176,5.554,6.125,5.554
			c-0.057-0.515-0.8-0.973-0.8-3.893c0-6.068,2.976-10.418,8.014-12.537l-8.301,38.927h8.243l4.58-21.582
			c0.916-0.113,2.004-0.229,3.092-0.229c1.202,0,2.403,0.115,3.663,0.572l-4.522,21.238h8.243l9.102-42.82H1070.357z"/>
		<path fill="#34495F" d="M1129.215,68.667c-1.431,0-2.805,0.401-4.007,1.029l0.229-1.086h-8.243l-4.405,20.781
			c-1.632,1.385-3.328,2.633-4.756,2.633c-2.232,0-2.862-0.859-2.862-2.119c0-0.457,0.114-0.973,0.286-1.831l6.583-30.914
			l-8.473,1.146l-5.959,27.921c-2.169,3.91-6.616,6.885-9.271,6.885c-2.232,0-4.694-1.146-4.694-4.924
			c0-0.687,0.058-1.545,0.172-2.461c5.438-0.688,12.938-4.694,12.938-11.678c0-4.008-2.634-5.953-7.327-5.953
			c-10.419,0-13.51,12.764-13.51,20.035c0,4.923,2.977,9.103,8.473,9.103c5.1,0,9.3-2.759,12.484-6.408
			c-0.001,0.056-0.003,0.113-0.003,0.169c0,4.293,2.69,6.239,7.099,6.239c2.441,0,5.483-2.277,8.169-4.772l-4.046,19.083l8.645-2.06
			l2.977-14.026c1.717,1.089,3.491,1.717,5.381,1.717c5.839,0,10.762-4.178,12.537-16.485c0.229-1.489,0.344-2.806,0.344-4.007
			C1137.975,70.785,1135.168,68.667,1129.215,68.667 M1091.314,71.129c1.718,0,2.004,2.002,2.004,3.205
			c-0.058,4.065-3.777,8.587-9.045,8.645C1085.476,77.598,1088.108,71.129,1091.314,71.129 M1130.303,81.375
			c-1.888,9.102-3.263,11.562-6.125,11.562c-0.915,0-2.348,0-3.721-1.029l4.122-19.235c1.087-0.744,2.175-1.201,3.262-1.201
			c1.832,0,3.207,0.687,3.207,4.122C1131.048,76.967,1130.818,78.855,1130.303,81.375"/>
		<path fill="#34495F" d="M1164.999,65.576c2.519,0,4.579-2.004,4.579-4.524c0-2.518-2.061-4.578-4.579-4.578
			c-2.52,0-4.523,2.06-4.523,4.578C1160.476,63.572,1162.479,65.576,1164.999,65.576"/>
		<path fill="#34495F" d="M1217.668,68.61l-0.571,2.747c-0.858-1.487-2.52-2.69-4.58-2.69c-11.106,0-14.142,13.739-14.142,21.638
			c0,0.373,0.021,0.752,0.064,1.133c-0.576,0.365-1.205,0.586-2.012,0.586c-2.232,0-2.861-0.859-2.861-2.119
			c0-0.572,0.113-1.201,0.285-1.831l2.347-10.933c0.114-0.459,0.114-0.918,0.114-1.375c0-3.836-3.491-7.156-6.582-7.156
			c-2.52,0-5.152,1.374-7.5,3.091l0.688-3.091h-8.243l-4.54,21.412c-1.387,1.111-2.784,2.002-3.991,2.002
			c-2.29,0-2.862-0.916-2.862-2.176c0-0.516,0.115-1.145,0.228-1.774l4.123-19.463h-8.243l-4.123,19.463
			c-0.107,0.52-0.19,1.013-0.248,1.479c-1.57,1.318-3.189,2.471-4.562,2.471c-2.232,0-2.862-0.859-2.862-2.119
			c0-0.457,0.114-0.973,0.286-1.831l6.583-30.914l-8.473,1.146l-6.354,29.768c-0.229,1.087-0.344,2.062-0.344,2.92
			c0,4.293,2.69,6.239,7.098,6.239c2.573,0,5.81-2.527,8.596-5.172c0.429,3.549,3.068,5.172,7.092,5.172
			c2.209,0,4.908-1.863,7.391-4.065l-0.862,4.065h8.243l4.867-23.127c1.201-0.801,2.231-1.202,3.606-1.202
			c1.544,0,2.633,1.317,2.633,3.378c0,0.457-0.058,0.973-0.172,1.487l-2.175,10.305c-0.229,1.087-0.345,2.004-0.345,2.92
			c0,4.293,2.634,6.239,7.099,6.239c2.307,0,4.583-1.65,6.607-3.607c0.869,2.184,2.804,3.951,6.505,3.951
			c2.633,0,4.865-1.03,6.583-2.404l-0.688,3.092c-5.323,1.029-9.56,1.889-9.56,7.098c0,3.721,3.265,6.182,6.757,6.182
			c3.778,0,8.7-1.545,10.418-9.73l6.983-33.203H1217.668z M1210.628,101.982c-0.744,3.379-2.175,4.467-3.378,4.467
			c-1.259,0-2.29-1.088-2.29-1.891c0-3.09,2.461-3.836,6.069-4.464L1210.628,101.982z M1212.917,90.936
			c-1.089,1.088-2.232,1.889-3.321,1.889c-2.519,0-4.178-0.859-4.178-3.605c0-4.924,2.176-17.346,7.727-17.346
			c0.975,0,2.406,0.744,3.321,2.461L1212.917,90.936z"/>
	</g>
	<g>
		<g id="LoXk5N.tif">
			<g>
				<path fill-rule="evenodd" clip-rule="evenodd" fill="#34495F" d="M452.326,76.453c0,0.244,0,0.385,0,0.523
					c0,8.149-0.003,16.299,0.01,24.447c0.001,0.391-0.109,0.473-0.48,0.469c-1.801-0.021-3.602-0.016-5.402-0.004
					c-0.283,0.002-0.413-0.062-0.38-0.369c0.023-0.234,0.005-0.473,0.005-0.709c0-21.029,0-42.059,0-63.089
					c0-0.502,0-0.502,0.516-0.502c1.749,0,3.496,0.012,5.244-0.01c0.394-0.005,0.499,0.087,0.498,0.493
					c-0.012,12.473-0.01,24.946-0.01,37.418c0,0.141,0,0.278,0,0.522c0.708-0.906,1.353-1.728,1.992-2.552
					c4.28-5.506,8.56-11.013,12.84-16.519c0.854-1.099,1.713-2.195,2.565-3.295c0.108-0.139,0.209-0.245,0.413-0.244
					c2.261,0.008,4.521,0.005,6.782,0.007c0.036,0,0.072,0.016,0.16,0.037c-0.373,0.485-0.726,0.951-1.085,1.412
					c-4.166,5.329-8.332,10.657-12.499,15.986c-1.286,1.645-2.565,3.294-3.863,4.93c-0.165,0.211-0.155,0.334,0.005,0.529
					c2.725,3.303,5.443,6.611,8.162,9.918c2.568,3.125,5.136,6.252,7.702,9.378c1.759,2.142,3.518,4.284,5.277,6.425
					c0.041,0.051,0.079,0.102,0.12,0.152c-0.079,0.128-0.195,0.071-0.287,0.072c-2.418,0.003-4.838,0-7.256,0.006
					c-0.212,0-0.357-0.051-0.5-0.227c-3.214-3.956-6.434-7.906-9.652-11.855C459.603,85.385,456.004,80.967,452.326,76.453z"/>
				<path fill-rule="evenodd" clip-rule="evenodd" fill="#34495F" d="M345.865,58.495c0.447-0.439,0.848-0.831,1.245-1.223
					c2.58-2.529,5.675-4.065,9.201-4.765c1.835-0.364,3.692-0.506,5.56-0.457c3.578,0.096,7.005,0.822,10.141,2.626
					c3.995,2.3,6.468,5.745,7.604,10.185c0.468,1.825,0.661,3.685,0.8,5.558c0.196,2.638,0.16,5.278,0.161,7.917
					c0.005,7.676,0.002,15.352,0.002,23.027c0,0.52,0,0.52-0.534,0.52c-1.723,0-3.444-0.012-5.166,0.01
					c-0.371,0.004-0.48-0.078-0.48-0.469c0.014-9.188,0.018-18.375,0.006-27.562c-0.002-2.449-0.258-4.872-0.939-7.235
					c-0.536-1.863-1.334-3.59-2.683-5.022c-1.58-1.678-3.564-2.603-5.774-3.1c-1.636-0.367-3.296-0.502-4.967-0.454
					c-3.037,0.088-5.898,0.791-8.408,2.591c-2.849,2.042-4.536,4.831-5.22,8.243c-0.391,1.952-0.457,3.934-0.486,5.916
					c-0.136,8.87-0.027,17.741-0.052,26.611c0,0.374-0.082,0.485-0.471,0.479c-1.708-0.023-3.418-0.021-5.126,0
					c-0.385,0.004-0.502-0.074-0.502-0.488c0.014-9.279,0.011-18.559,0.011-27.837c0-6.676,0-13.353,0-20.03
					c0-0.499,0.001-0.499,0.514-0.499c1.696,0,3.392,0.017,5.086-0.011c0.42-0.006,0.493,0.126,0.488,0.509
					C345.854,55.165,345.865,56.795,345.865,58.495z"/>
				<path fill-rule="evenodd" clip-rule="evenodd" fill="#34495F" d="M606.724,95.977c-1.462-0.451-2.801-0.863-4.14-1.273
					c-2.168-0.664-4.336-1.328-6.507-1.986c-0.216-0.064-0.308-0.158-0.31-0.404c-0.002-1.051-0.014-1.059,0.979-1.363
					c3.21-0.984,6.42-1.962,9.629-2.941c0.086-0.025,0.184-0.024,0.243-0.139c-1.915-0.617-3.821-1.232-5.728-1.85
					c-1.609-0.52-3.217-1.046-4.828-1.561c-0.207-0.064-0.3-0.154-0.292-0.383c0.017-0.459,0.019-0.92,0.001-1.379
					c-0.012-0.287,0.07-0.33,0.338-0.238c1.785,0.615,3.575,1.215,5.363,1.82c2.871,0.969,5.738,1.94,8.613,2.898
					c0.271,0.09,0.364,0.207,0.359,0.494c-0.016,0.859-0.002,0.859-0.836,1.117c-3.246,0.996-6.492,1.992-9.736,2.992
					c-0.159,0.049-0.336,0.061-0.487,0.205c2.735,0.83,5.452,1.654,8.169,2.48c0.865,0.264,1.729,0.531,2.596,0.789
					c0.201,0.059,0.293,0.145,0.295,0.379c0.01,0.936,0.019,0.934-0.863,1.231c-4.447,1.503-8.895,3.005-13.343,4.509
					c-0.462,0.156-0.463,0.154-0.463-0.328c-0.001-0.381,0.019-0.764-0.007-1.143c-0.021-0.277,0.086-0.386,0.34-0.467
					c2.283-0.734,4.564-1.482,6.845-2.227C604.174,96.812,605.394,96.412,606.724,95.977z"/>
				<path fill-rule="evenodd" clip-rule="evenodd" fill="#34495F" d="M597.381,74.759c-1.59-1.495-2.036-3.275-1.868-5.273
					c0.097-1.138,0.424-2.189,1.122-3.101c0.913-1.19,2.175-1.748,3.629-1.889c2.555-0.25,5.117-0.118,7.677-0.146
					c0.735-0.007,1.472,0.006,2.208-0.005c0.223-0.004,0.301,0.07,0.294,0.293c-0.014,0.42-0.017,0.841,0.001,1.261
					c0.012,0.257-0.07,0.337-0.332,0.334c-1.209-0.013-2.419-0.007-3.627-0.006c-1.576,0.001-3.154-0.005-4.73,0.011
					c-0.75,0.009-1.487,0.125-2.201,0.375c-1.149,0.403-1.859,1.2-2.116,2.386c-0.31,1.438-0.233,2.825,0.646,4.071
					c0.666,0.946,1.612,1.431,2.744,1.596c0.586,0.085,1.176,0.089,1.767,0.09c2.472,0.002,4.94,0.008,7.412-0.007
					c0.348-0.002,0.47,0.092,0.439,0.442c-0.029,0.352-0.023,0.71-0.001,1.062c0.021,0.304-0.098,0.379-0.385,0.376
					c-1.236-0.013-2.471-0.005-3.706-0.005c-3.391,0-6.78-0.006-10.171,0.006c-0.332,0.002-0.437-0.091-0.412-0.418
					c0.027-0.379,0.018-0.762,0.002-1.143c-0.01-0.236,0.063-0.328,0.311-0.317C596.483,74.771,596.887,74.759,597.381,74.759z"/>
				<path fill-rule="evenodd" clip-rule="evenodd" fill="#34495F" d="M599.418,38.3c0,0.289,0.081,0.61-0.02,0.858
					c-0.118,0.288-0.51,0.175-0.773,0.274c-0.988,0.373-1.522,1.361-1.335,2.53c0.153,0.955,1.031,1.683,2.017,1.729
					c0.967,0.045,1.628-0.376,2.082-1.202c0.357-0.651,0.535-1.365,0.769-2.061c0.097-0.286,0.182-0.576,0.304-0.851
					c0.981-2.204,2.612-2.767,4.742-2.494c1.948,0.25,3.379,1.909,3.58,3.899c0.112,1.114,0.01,2.181-0.585,3.147
					c-0.829,1.344-2.106,1.966-3.628,2.145c-0.758,0.089-0.76,0.069-0.759-0.705c0-0.275,0.014-0.552-0.004-0.827
					c-0.019-0.26,0.048-0.362,0.338-0.369c0.91-0.022,1.675-0.382,2.288-1.064c0.966-1.075,0.771-2.853-0.423-3.773
					c-0.869-0.67-2.679-0.668-3.511,0.648c-0.426,0.672-0.693,1.41-0.975,2.145c-0.201,0.528-0.438,1.039-0.707,1.536
					c-0.817,1.499-2.012,1.963-3.626,1.822c-3.464-0.303-4.761-4.225-3.083-6.798c0.698-1.069,1.781-1.497,3.016-1.611
					c0.254-0.023,0.322,0.081,0.309,0.313c-0.016,0.235-0.005,0.473-0.005,0.709H599.418z"/>
				<path fill-rule="evenodd" clip-rule="evenodd" fill="#34495F" d="M603.119,81.232c-2.312,0-4.624-0.007-6.937,0.008
					c-0.329,0.002-0.44-0.091-0.413-0.418s0.027-0.658,0-0.984c-0.027-0.347,0.065-0.477,0.445-0.468
					c1.182,0.026,2.364,0.01,3.547,0.01c3.415,0,6.832,0.005,10.246-0.008c0.349-0.001,0.47,0.089,0.437,0.438
					c-0.03,0.312-0.03,0.633,0,0.945c0.038,0.373-0.08,0.488-0.469,0.486C607.69,81.223,605.405,81.232,603.119,81.232z"/>
				<path fill-rule="evenodd" clip-rule="evenodd" fill="#34495F" d="M592.539,81.232c-0.406,0-0.813-0.008-1.22,0.003
					c-0.2,0.005-0.284-0.06-0.279-0.269c0.011-0.447,0.01-0.893,0.002-1.34c-0.005-0.189,0.074-0.25,0.257-0.248
					c0.827,0.004,1.653,0.006,2.48-0.002c0.197-0.002,0.284,0.059,0.278,0.269c-0.012,0.446-0.009,0.894-0.001,1.339
					c0.003,0.189-0.074,0.254-0.257,0.25C593.38,81.227,592.959,81.232,592.539,81.232z"/>
				<path fill-rule="evenodd" clip-rule="evenodd" fill="#34495F" d="M584.264,37.663c0-0.381-0.127-0.454-0.473-0.45
					c-1.787,0.015-3.575,0.021-5.363-0.003c-0.401-0.006-0.498,0.101-0.497,0.5c0.013,7.229,0.009,14.458,0.009,21.688
					c0,0.407,0,0.812,0,1.315c-0.106-0.114-0.154-0.156-0.193-0.204c-0.699-0.888-1.454-1.724-2.273-2.505
					c-2.191-2.089-4.723-3.622-7.565-4.643c-3.323-1.193-6.757-1.562-10.269-1.351c-2.119,0.128-4.199,0.458-6.217,1.113
					c-6.225,2.021-10.793,6.052-13.984,11.689c-1.776,3.142-2.689,6.562-2.948,10.161c-0.176,2.43-0.127,4.855,0.274,7.262
					c0.728,4.336,2.451,8.229,5.232,11.645c2.434,2.985,5.319,5.408,8.829,7.036c4.652,2.157,9.537,2.714,14.569,1.913
					c5.294-0.84,9.812-3.216,13.504-7.121c0.337-0.357,0.65-0.739,1.041-1.183c0,0.222,0,0.347,0,0.472
					c0,2.155,0.006,4.311-0.007,6.467c-0.001,0.312,0.06,0.432,0.404,0.428c1.841-0.018,3.681-0.018,5.521,0
					c0.345,0.004,0.404-0.115,0.404-0.428C584.255,80.197,584.255,58.93,584.264,37.663z M573.396,90.564
					c-2.188,2.571-4.772,4.609-7.973,5.789c-1.55,0.57-3.151,0.885-4.803,0.957c-3.25,0.143-6.368-0.404-9.229-1.982
					c-5.088-2.805-8.399-7.034-9.861-12.674c-0.463-1.786-0.666-3.609-0.645-5.002c-0.014-4.457,0.94-8.183,3.241-11.494
					c2.79-4.016,6.454-6.869,11.302-7.92c5.663-1.228,10.818-0.113,15.286,3.691c3.505,2.984,5.914,6.667,6.863,11.206
					C578.929,79.59,577.738,85.465,573.396,90.564z"/>
				<path fill-rule="evenodd" clip-rule="evenodd" fill="#34495F" d="M530.419,75.328c-0.282-3.052-0.954-6.005-2.146-8.833
					c-1.585-3.762-3.946-6.954-7.086-9.559c-4.028-3.344-8.728-4.938-13.907-5.2c-2.656-0.134-5.302,0.019-7.907,0.604
					c-7.467,1.677-12.941,5.977-16.535,12.682c-1.969,3.672-2.723,7.667-2.812,11.798c-0.04,1.88,0.095,3.751,0.442,5.604
					c1.354,7.205,5.266,12.727,11.23,16.838c4.129,2.848,8.801,4.002,13.771,4.009c1.44,0.003,2.881-0.116,4.311-0.349
					c4.854-0.791,9.034-2.918,12.572-6.314c2.897-2.781,4.968-6.123,6.551-9.789c0.116-0.27,0.062-0.334-0.224-0.333
					c-2.156,0.009-4.311,0.008-6.466,0c-0.214-0.001-0.328,0.058-0.422,0.257c-0.187,0.404-0.4,0.798-0.622,1.186
					c-2.063,3.621-4.969,6.316-8.819,7.951c-2.581,1.094-5.286,1.477-8.077,1.359c-2.073-0.088-4.111-0.396-6.033-1.18
					c-7.222-2.942-10.867-8.504-11.685-16.107c-0.04-0.371,0.047-0.484,0.444-0.483c7.19,0.013,14.38,0.01,21.569,0.01
					c2.472,0,4.942,0,7.413,0c4.72,0,9.438-0.005,14.156,0.009c0.373,0.002,0.455-0.111,0.449-0.461
					C530.568,77.791,530.531,76.559,530.419,75.328z M523.229,74.016c-5.465,0-10.933,0-16.398,0c-0.551,0-1.104,0-1.655,0
					c-5.966,0-11.933,0-17.897,0c-0.563,0-0.577-0.002-0.484-0.558c0.479-2.866,1.387-5.579,3.02-8
					c2.643-3.918,6.232-6.519,10.905-7.418c4.715-0.908,9.312-0.487,13.623,1.78c3.066,1.611,5.247,4.105,6.847,7.139
					c1.121,2.127,1.854,4.392,2.407,6.723C523.688,74.071,523.454,74.017,523.229,74.016z"/>
				<path fill-rule="evenodd" clip-rule="evenodd" fill="#34495F" d="M436.968,87.963c0-11.461,0-22.921-0.001-34.382
					c0-0.606,0.061-0.54-0.555-0.541c-1.708-0.002-3.418,0.009-5.126-0.009c-0.351-0.004-0.439,0.094-0.437,0.44
					c0.015,2.287,0.006,4.574,0.006,6.86c0,0.125,0,0.25,0,0.458c-0.113-0.128-0.174-0.188-0.227-0.257
					c-0.816-1.082-1.713-2.091-2.718-3.003c-2.356-2.135-5.069-3.631-8.103-4.554c-3.537-1.075-7.141-1.238-10.791-0.798
					c-3.028,0.365-5.908,1.205-8.596,2.654c-4.442,2.396-7.867,5.834-10.297,10.25c-2.029,3.688-2.89,7.686-3.002,11.864
					c-0.055,2.038,0.091,4.068,0.473,6.072c1.275,6.654,4.762,11.9,10.227,15.839c3.803,2.741,8.125,4.036,12.774,4.272
					c3.618,0.184,7.15-0.267,10.546-1.59c3.385-1.32,6.353-3.242,8.691-6.064c0.327-0.395,0.639-0.803,1.021-1.285
					c0,0.242,0,0.371,0,0.5c0,2.26,0.008,4.521-0.006,6.781c-0.003,0.323,0.079,0.422,0.413,0.42
					c1.747-0.017,3.496-0.021,5.243,0.002c0.392,0.006,0.472-0.113,0.47-0.484C436.963,96.927,436.968,92.445,436.968,87.963z
					 M425.875,90.764c-2.047,2.389-4.461,4.295-7.42,5.445c-1.802,0.701-3.668,1.057-5.604,1.111
					c-3.202,0.091-6.262-0.492-9.055-2.068c-5.281-2.984-8.667-7.4-9.83-13.421c-0.252-1.306-0.358-2.626-0.329-3.671
					c-0.021-3.646,0.588-6.882,2.163-9.864c2.486-4.708,6.132-8.169,11.307-9.72c5.127-1.537,10.089-1.051,14.586,1.991
					c4.668,3.158,7.886,7.427,8.82,13.083C431.566,80.014,430.129,85.799,425.875,90.764z"/>
				<path fill-rule="evenodd" clip-rule="evenodd" fill="#34495F" d="M610.773,53.809c-0.373-2.934-2.129-4.789-4.728-5.971
					c-0.193-0.088-0.253-0.043-0.25,0.166c0.009,0.499,0.019,1-0.003,1.498c-0.013,0.272,0.081,0.41,0.321,0.545
					c1.926,1.081,2.929,2.713,2.921,4.947c-0.013,2.854-2.092,5.171-4.922,5.473c-0.312,0.033-0.437-0.024-0.434-0.38
					c0.018-2.063,0.008-4.127,0.008-6.19s-0.009-4.127,0.01-6.19c0.002-0.359-0.107-0.459-0.446-0.43
					c-0.418,0.035-0.837,0.038-1.255,0.097c-1.643,0.231-3.096,0.86-4.343,1.968c-2.62,2.328-2.817,6.296-1.506,8.967
					c1.173,2.389,3.146,3.74,5.795,4.072c2.58,0.324,4.841-0.352,6.702-2.205C610.416,58.412,611.084,56.265,610.773,53.809z
					 M601.728,60.39c-2.335-0.354-4.249-2.228-4.505-4.538c-0.338-3.059,0.902-5.355,4.146-6.326c0.7-0.209,0.701-0.202,0.701,0.516
					c0,1.616,0,3.232,0,4.849c0,1.721-0.003,3.442,0.005,5.164C602.077,60.317,602.028,60.436,601.728,60.39z"/>
			</g>
		</g>
	</g>
	<g>
		<g>
			<path fill="#34495F" d="M787.585,94.571V72.041c0-3.55-1.305-5.94-6.015-5.94h-6.157v34.412h6.302
				C786.424,100.512,787.585,98.121,787.585,94.571 M779.253,96.816V69.795h2.317c1.739,0,2.246,0.796,2.246,2.246v22.531
				c0,1.448-0.507,2.245-2.246,2.245H779.253z M754.115,65.593c-4.709,0-6.014,2.536-6.014,6.013v23.326
				c0,3.55,1.305,6.013,6.014,6.013c4.708,0,6.013-2.535,6.013-6.013V71.679C760.199,68.129,758.823,65.593,754.115,65.593
				 M756.36,94.933c0,1.449-0.507,2.608-2.245,2.608c-1.739,0-2.247-1.159-2.247-2.608V71.679c0-1.449,0.508-2.609,2.247-2.609
				c1.738,0,2.245,1.16,2.245,2.609V94.933z M726.949,100.512h6.375V66.1h-6.086c-4.709,0-5.867,1.812-5.867,5.361v7.244
				c0,2.174,0.651,3.623,2.389,4.347c-1.883,0.726-2.607,2.247-2.607,4.491v7.173C721.152,98.266,722.238,100.512,726.949,100.512
				 M725.137,72.041c0-1.449,0.508-2.246,2.246-2.246h2.174v11.519h-2.174c-1.738,0-2.246-1.015-2.246-2.536V72.041z
				 M724.992,87.398c0-1.449,0.508-2.535,2.246-2.535h2.318v11.953h-2.318c-1.738,0-2.246-0.797-2.246-2.245V87.398z
				 M908.493,65.593c-4.491,0-5.506,2.536-5.506,6.013v2.825c0,9.997,8.62,5.941,8.62,16.299v4.202c0,2.319-0.507,3.912-3.114,3.912
				c-2.536,0-3.116-1.737-3.116-3.912v-4.274h-2.39v4.274c0,3.55,1.015,6.013,5.506,6.013c4.492,0,5.433-2.535,5.433-6.013V90.73
				c0-11.445-8.621-7.679-8.621-16.299v-2.825c0-2.246,0.508-3.913,3.115-3.913c2.535,0,3.116,1.739,3.116,3.913v3.839h2.39v-3.766
				C913.926,68.129,912.912,65.593,908.493,65.593 M805.188,100.512h3.839v-13.91l4.637-20.501h-4.058l-2.535,14.851L804.608,66.1
				h-4.057l4.563,20.501v13.91H805.188z M855.754,66.1l-4.926,34.412h2.39l1.087-8.26h5.65l1.087,8.26h2.462L858.579,66.1H855.754z
				 M854.523,90.08l2.607-20.212l2.534,20.212H854.523z M832.645,66.1h-4.998v34.412h2.391V85.516h2.535
				c4.491,0,6.013-2.391,6.013-5.868v-7.607C838.512,68.491,837.354,66.1,832.645,66.1 M836.193,79.647
				c0,2.245-0.796,3.694-3.694,3.694h-2.462V68.346h2.535c2.897,0,3.621,1.449,3.621,3.694V79.647z M888.209,94.933V90.73
				c0-11.445-8.622-7.679-8.622-16.299v-2.825c0-2.246,0.507-3.913,3.116-3.913c2.535,0,3.114,1.739,3.114,3.913v3.839h2.392v-3.766
				c0-3.55-1.015-6.014-5.435-6.014c-4.49,0-5.505,2.536-5.505,6.014v2.825c0,9.997,8.621,5.939,8.621,16.299v4.201
				c0,2.319-0.508,3.913-3.116,3.913c-2.534,0-3.114-1.739-3.114-3.913v-4.347h-2.391v4.274c0,3.55,1.015,6.013,5.505,6.013
				C887.267,101.018,888.209,98.482,888.209,94.933"/>
		</g>
		<g>
			<path fill="#34495F" d="M675.729,58.494c-13.69,0-24.847,11.083-24.847,24.848c0,13.692,11.084,24.848,24.847,24.848
				c13.766,0,24.849-11.082,24.849-24.848C700.578,69.577,689.495,58.494,675.729,58.494 M673.557,96.672h-4.418
				c-4.202,0-4.782-2.246-4.782-4.637v-5.361c0-1.738,0.58-2.896,1.739-3.477c-1.088-0.652-1.594-1.739-1.594-3.333v-5.433
				c0-3.115,1.376-4.346,4.781-4.346h4.201v26.587H673.557z M687.177,80.59c0,3.188-1.667,4.781-4.926,4.781h-1.521v11.301h-2.535
				V69.94h4.129c4.274,0,4.854,2.608,4.854,4.854V80.59z M666.893,86.602v5.434c0,1.449,0.363,2.246,2.319,2.246h1.81v-9.926h-1.81
				C667.545,84.355,666.893,85.008,666.893,86.602 M667.109,74.576v5.216c0,1.304,0.436,2.173,2.318,2.173h1.594v-9.562h-1.667
				C667.689,72.403,667.109,72.91,667.109,74.576 M675.729,53.495c-16.371,0-29.773,13.402-29.773,29.847
				c0,16.445,13.402,29.775,29.773,29.775c16.373,0,29.774-13.402,29.774-29.775C705.578,66.897,692.175,53.495,675.729,53.495
				 M675.729,111.523c-15.574,0-28.179-12.679-28.179-28.182c0-15.575,12.676-28.181,28.179-28.181
				c15.504,0,28.183,12.678,28.183,28.181C703.983,98.845,691.306,111.523,675.729,111.523 M682.251,72.403h-1.521v10.577h1.448
				c2.029,0,2.391-0.941,2.391-2.39v-5.724C684.642,73.345,684.207,72.403,682.251,72.403"/>
		</g>
	</g>
	<g>
		<path fill="#34495F" d="M133.021,67.751l-11.333-21.667c-0.171-0.328-0.51-0.534-0.88-0.537c-0.418-0.015-0.711,0.2-0.887,0.526
			L108.255,67.74c-0.262,0.486-0.079,1.093,0.407,1.354c0.486,0.264,1.093,0.08,1.354-0.406l3.249-6.034H128.1l3.15,6.023
			c0.178,0.341,0.526,0.537,0.887,0.537c0.156,0,0.314-0.037,0.463-0.114C133.089,68.844,133.277,68.24,133.021,67.751z
			 M114.343,60.655l6.447-11.974l6.264,11.974H114.343z"/>
		<path fill="#34495F" d="M144.844,69.214c-9.131,0-10.477-8.268-10.489-8.352l-0.011-0.148V46.548c0-0.552,0.447-1,1-1s1,0.448,1,1
			V60.63c0.133,0.724,1.425,6.584,8.5,6.584c7.1,0,8.155-6.139,8.25-6.814V46.548c0-0.552,0.447-1,1-1s1,0.448,1,1l-0.006,14.029
			C155.078,60.663,154.006,69.214,144.844,69.214z"/>
		<path fill="#34495F" d="M200.969,69.214c-0.553,0-1-0.448-1-1V46.548c0-0.552,0.447-1,1-1s1,0.448,1,1v21.667
			C201.969,68.767,201.521,69.214,200.969,69.214z"/>
		<g>
			<path fill="#34495F" d="M222.529,69.214h-15.746c-0.553,0-1-0.448-1-1V47.381c0-0.552,0.447-1,1-1h15.746c0.553,0,1,0.448,1,1
				s-0.447,1-1,1h-14.746v18.833h14.746c0.553,0,1,0.448,1,1S223.082,69.214,222.529,69.214z"/>
			<path fill="#34495F" d="M221.087,58.798h-14.304c-0.553,0-1-0.448-1-1s0.447-1,1-1h14.304c0.553,0,1,0.448,1,1
				S221.64,58.798,221.087,58.798z"/>
		</g>
		<g>
			<path fill="#34495F" d="M284.654,100.131h-15.746c-0.553,0-1-0.447-1-1V78.298c0-0.552,0.447-1,1-1h15.746c0.553,0,1,0.448,1,1
				s-0.447,1-1,1h-14.746v18.833h14.746c0.553,0,1,0.447,1,1S285.207,100.131,284.654,100.131z"/>
			<path fill="#34495F" d="M283.211,89.715h-14.303c-0.553,0-1-0.448-1-1c0-0.553,0.447-1,1-1h14.303c0.553,0,1,0.447,1,1
				C284.211,89.267,283.764,89.715,283.211,89.715z"/>
		</g>
		<g>
			<path fill="#34495F" d="M222.529,100.131h-15.745c-0.553,0-1-0.447-1-1V78.298c0-0.552,0.447-1,1-1h15.745c0.553,0,1,0.448,1,1
				s-0.447,1-1,1h-14.745v18.833h14.745c0.553,0,1,0.447,1,1S223.082,100.131,222.529,100.131z"/>
			<path fill="#34495F" d="M221.087,89.715h-14.303c-0.553,0-1-0.448-1-1c0-0.553,0.447-1,1-1h14.303c0.553,0,1,0.447,1,1
				C222.087,89.267,221.64,89.715,221.087,89.715z"/>
		</g>
		<path fill="#34495F" d="M140.094,99.298c-6.065,0-11-4.935-11-11s4.935-11,11-11s11,4.935,11,11S146.159,99.298,140.094,99.298z
			 M140.094,79.298c-4.963,0-9,4.038-9,9s4.037,9,9,9s9-4.038,9-9S145.057,79.298,140.094,79.298z"/>
		<path fill="#34495F" d="M118.067,99.298C118.067,99.298,118.067,99.298,118.067,99.298c-6.066,0-11.001-4.935-11.001-11
			s4.935-11,11-11c3.506,0,6.832,1.694,8.898,4.53c0.325,0.447,0.227,1.072-0.22,1.398c-0.446,0.325-1.071,0.226-1.397-0.221
			c-1.69-2.322-4.413-3.708-7.281-3.708c-4.963,0-9,4.038-9,9s4.037,9,9,9h0.001c2.994,0,5.784-1.483,7.464-3.968
			c0.31-0.457,0.931-0.578,1.388-0.27c0.458,0.311,0.578,0.932,0.269,1.389C125.136,97.485,121.727,99.298,118.067,99.298z"/>
		<g>
			<polygon fill="#34495F" points="54.309,75.725 64.891,75.725 59.676,65.756 			"/>
			<path fill="#34495F" d="M69.844,44.589c-16.568,0-30,13.431-30,30c0,6.331,1.961,12.204,5.309,17.043
				c4.418-0.543,9.271,1.358,13.066,3.582c3.769,2.207,6.375,5.125,9.131,9.272c0.822,0.067,1.654,0.103,2.494,0.103
				c16.568,0,30-13.432,30-30S86.412,44.589,69.844,44.589z M69.981,83.301c-0.148,0.077-0.307,0.113-0.463,0.113
				c-0.36,0-0.709-0.195-0.887-0.536l-2.695-5.153H53.231l-2.78,5.164c-0.263,0.486-0.87,0.67-1.354,0.406
				c-0.486-0.262-0.669-0.868-0.407-1.354l10.118-18.792c0.176-0.326,0.514-0.498,0.887-0.526c0.37,0.002,0.709,0.208,0.88,0.537
				l9.829,18.792C70.659,82.44,70.471,83.045,69.981,83.301z M88.158,78.636c-1.873,2.772-4.986,4.427-8.327,4.427H79.83
				c-5.538,0-10.043-4.506-10.043-10.043c0-5.538,4.505-10.043,10.043-10.043c3.201,0,6.238,1.546,8.125,4.137
				c0.325,0.447,0.227,1.072-0.22,1.397c-0.447,0.324-1.071,0.227-1.397-0.22c-1.511-2.076-3.944-3.314-6.508-3.314
				c-4.435,0-8.043,3.608-8.043,8.043s3.608,8.043,8.043,8.043h0.001c2.676,0,5.169-1.326,6.671-3.547
				c0.309-0.457,0.932-0.578,1.388-0.269C88.348,77.557,88.468,78.178,88.158,78.636z"/>
		</g>
		<path fill="#34495F" d="M256.771,99.298C256.771,99.298,256.771,99.298,256.771,99.298c-6.066,0-11.001-4.935-11.001-11
			s4.935-11,11-11c3.506,0,6.832,1.694,8.898,4.53c0.325,0.447,0.227,1.072-0.22,1.398c-0.447,0.325-1.071,0.226-1.397-0.221
			c-1.69-2.322-4.413-3.708-7.281-3.708c-4.963,0-9,4.038-9,9s4.037,9,9,9h0.001c2.994,0,5.784-1.483,7.464-3.968
			c0.309-0.457,0.932-0.578,1.388-0.27c0.458,0.311,0.578,0.932,0.269,1.389C263.84,97.485,260.431,99.298,256.771,99.298z"/>
		<path fill="#34495F" d="M199.969,100.131c-0.553,0-1-0.447-1-1V81.562l-7.922,11.713c-0.186,0.275-0.496,0.44-0.828,0.44
			c-0.002,0-0.004,0-0.006,0c-0.334-0.002-0.646-0.172-0.829-0.45l-7.665-11.632v17.498c0,0.553-0.447,1-1,1s-1-0.447-1-1V78.298
			c0-0.442,0.29-0.831,0.713-0.958s0.879,0.039,1.122,0.408l8.676,13.166l8.911-13.176c0.246-0.364,0.701-0.525,1.121-0.396
			s0.707,0.517,0.707,0.956v20.833C200.969,99.684,200.521,100.131,199.969,100.131z"/>
		<path fill="#34495F" d="M174.469,100.131c-0.553,0-1-0.447-1-1V81.562l-7.922,11.713c-0.187,0.276-0.493,0.423-0.834,0.44
			c-0.334-0.002-0.646-0.172-0.829-0.45l-7.665-11.632v17.498c0,0.553-0.447,1-1,1s-1-0.447-1-1V78.298
			c0-0.442,0.29-0.831,0.713-0.958c0.422-0.127,0.879,0.039,1.122,0.408l8.676,13.166l8.911-13.176
			c0.246-0.364,0.7-0.525,1.121-0.396c0.42,0.129,0.707,0.517,0.707,0.956v20.833C175.469,99.684,175.021,100.131,174.469,100.131z"
			/>
		<path fill="#34495F" d="M237.916,91.365c2.699-0.771,6.053-2.789,6.053-6.9c0-5.041-3.754-6.887-5.739-7.158
			c-0.045-0.006-0.091-0.009-0.136-0.009h-10.875c-0.553,0-1,0.448-1,1v20.833c0,0.553,0.447,1,1,1s1-0.447,1-1v-7.666h7.196
			l6.779,8.299c0.197,0.242,0.485,0.367,0.775,0.367c0.222,0,0.446-0.074,0.632-0.226c0.428-0.349,0.491-0.979,0.142-1.407
			L237.916,91.365z M228.219,79.298h9.796c0.623,0.108,3.954,0.886,3.954,5.167c0,4.24-5.036,5.123-5.875,5.242v-0.242h-7.875
			V79.298z"/>
		<path fill="#34495F" d="M166.969,69.214c-4.356,0-7.339-0.944-8.865-2.806c-1.304-1.59-1.026-3.211-0.99-3.391
			c0.107-0.542,0.636-0.891,1.177-0.784c0.541,0.108,0.893,0.635,0.784,1.177c-0.003,0.021-0.136,0.893,0.609,1.77
			c0.788,0.928,2.691,2.034,7.285,2.034c3.498,0,5.969-0.727,7.146-2.101c0.911-1.064,0.75-2.185,0.742-2.232l-0.021-0.135
			l0.014-0.148c0.003-0.033,0.088-1.125-0.866-2.168c-1.226-1.34-3.651-2.048-7.016-2.048c-4.093,0-6.986-0.923-8.6-2.743
			c-1.398-1.579-1.301-3.23-1.271-3.518c0.055-0.81,0.777-6.573,10.246-6.573c4.236,0,7.119,0.875,8.568,2.599
			c1.141,1.357,0.943,2.715,0.917,2.865c-0.096,0.543-0.615,0.907-1.157,0.812c-0.537-0.094-0.899-0.6-0.816-1.136
			c0.006-0.055,0.055-0.659-0.519-1.306c-0.607-0.685-2.323-1.834-6.993-1.834c-8.056,0-8.246,4.486-8.25,4.677l-0.007,0.11
			c-0.003,0.028-0.082,1.035,0.815,2.018c0.846,0.926,2.759,2.029,7.066,2.029c4.042,0,6.916,0.928,8.544,2.757
			c1.307,1.468,1.355,3.054,1.335,3.543c0.053,0.495,0.112,2.144-1.168,3.679C174.099,68.254,171.168,69.214,166.969,69.214z"/>
		<path fill="#34495F" d="M187.969,69.214c-4.356,0-7.339-0.944-8.865-2.806c-1.304-1.59-1.026-3.211-0.99-3.391
			c0.107-0.542,0.639-0.891,1.177-0.784c0.541,0.108,0.893,0.635,0.784,1.177c-0.003,0.021-0.136,0.893,0.609,1.77
			c0.788,0.928,2.691,2.034,7.285,2.034c3.498,0,5.969-0.727,7.146-2.101c0.911-1.064,0.75-2.185,0.742-2.232l-0.021-0.135
			l0.014-0.148c0.003-0.033,0.088-1.125-0.866-2.168c-1.226-1.34-3.651-2.048-7.016-2.048c-4.093,0-6.986-0.923-8.6-2.743
			c-1.398-1.579-1.301-3.23-1.271-3.518c0.055-0.81,0.777-6.573,10.246-6.573c4.236,0,7.119,0.875,8.568,2.599
			c1.141,1.357,0.943,2.715,0.917,2.865c-0.095,0.543-0.618,0.907-1.157,0.812c-0.537-0.094-0.899-0.6-0.816-1.136
			c0.006-0.055,0.055-0.659-0.519-1.306c-0.607-0.685-2.323-1.834-6.993-1.834c-8.056,0-8.246,4.486-8.25,4.677l-0.007,0.11
			c-0.003,0.028-0.082,1.035,0.815,2.018c0.846,0.926,2.759,2.029,7.066,2.029c4.042,0,6.916,0.928,8.544,2.757
			c1.307,1.468,1.355,3.054,1.335,3.543c0.053,0.495,0.112,2.144-1.168,3.679C195.099,68.254,192.168,69.214,187.969,69.214z"/>
		<path fill="#34495F" d="M289.469,72.714H104.292c-0.978-18.361-16.222-33-34.823-33c-19.23,0-34.875,15.645-34.875,34.875
			s15.645,34.875,34.875,34.875s34.875-15.646,34.875-34.875c0-0.293-0.015-0.583-0.022-0.875h185.147c0.276,0,0.5-0.224,0.5-0.5
			S289.745,72.714,289.469,72.714z M69.469,107.465c-18.127,0-32.875-14.748-32.875-32.875s14.748-32.875,32.875-32.875
			s32.875,14.748,32.875,32.875S87.596,107.465,69.469,107.465z"/>
	</g>
</g>
</svg>
