<?xml version="1.0" encoding="utf-8"?>
<!-- Generator: Adobe Illustrator 16.0.0, SVG Export Plug-In . SVG Version: 6.00 Build 0)  -->
<!DOCTYPE svg PUBLIC "-//W3C//DTD SVG 1.1//EN" "http://www.w3.org/Graphics/SVG/1.1/DTD/svg11.dtd">
<svg version="1.1" id="Calque_1" xmlns="http://www.w3.org/2000/svg" xmlns:xlink="http://www.w3.org/1999/xlink" x="0px" y="0px"
	 width="1050.513px" height="148.738px" viewBox="0 0 1050.513 148.738" enable-background="new 0 0 1050.513 148.738"
	 xml:space="preserve">
<g>
	<g>
		<g id="Text_Logo_2_">
			<path id="R_2_" fill="#34495F" d="M113.32,119.749c-0.514,0.564-1.061,0.306-1.208,0.132l-3.543-4.466h0.225
				c6.79-1.455,5.072-9.527-0.489-9.668H96.686v15.867h1.851v-5.197c0-0.66,0.245-1.002,0.979-1.002h6.732l4.64,5.806
				c0.931,0.795,2.588,1.132,3.64,0L113.32,119.749z M99.364,113.682c-0.665,0-0.828,0.339-0.828,0.339v-6.512h9.769
				c4.124,0.163,4.248,5.961,0,6.173H99.364z"/>
			<path id="E_2_" fill="#34495F" d="M80.047,105.747H65.41v15.867h15.127v-1.813H67.26v-4.503c0-0.66,0.244-1,0.979-1h7.884v-1.735
				H68.09c-0.666,0-0.83,0.339-0.83,0.339v-5.393h12.787V105.747z"/>
			<path id="B_2_" fill="#34495F" d="M47.274,113.47c3.168-2.34,1.812-7.207-2.188-7.723H32.977v15.867h12.109
				C48.997,121.111,50.904,116.146,47.274,113.47z M34.826,107.509h10.072c3.244,0.375,3.13,4.751,0,5.054h-9.242
				c-0.666,0-0.83,0.339-0.83,0.339V107.509z M44.898,119.801H34.826v-4.503c0-0.66,0.244-1,0.983-1h9.089
				C48.35,114.733,48.238,119.448,44.898,119.801z"/>
			<path id="U_5_" fill="#34495F" d="M9.856,121.943c1.358,0,6.941-0.894,6.941-6.137v-10.06h-1.861v9.657
				c0,4.65-5.181,4.425-5.181,4.425H8.121c0,0-5.181,0.226-5.181-4.425v-6.94c0-1.435-1.133-2.717-2.94-2.717v1.813
				c0.729,0,1.08,0.677,1.08,1.204v7.042c0,5.243,5.583,6.137,6.939,6.137H9.856z"/>
		</g>
		<g id="Image_Logo_2_">
			<path fill="#34495F" d="M89.018,95.419H25.446c-4.629,0-8.393-3.766-8.393-8.394V23.457c0-4.627,3.764-8.392,8.393-8.392h63.571
				c4.628,0,8.391,3.764,8.391,8.392v63.568C97.408,91.653,93.646,95.419,89.018,95.419z M25.446,17.719
				c-3.165,0-5.74,2.574-5.74,5.738v63.568c0,3.166,2.575,5.741,5.74,5.741h63.571c3.164,0,5.738-2.575,5.738-5.741V23.457
				c0-3.164-2.574-5.738-5.738-5.738H25.446z"/>
			<path fill="#34495F" d="M88.77,19.486H25.697c-2.33,0-4.219,1.888-4.225,4.222v63.069c0,2.331,1.892,4.22,4.223,4.225h63.068
				c2.332,0,4.221-1.888,4.226-4.22v-63.08C92.986,21.374,91.101,19.487,88.77,19.486z M78.532,63.201
				c0,7.292-4.327,13.328-15.113,13.328H51.046c-10.787,0-15.113-6.035-15.113-13.328V36.798c0-1.586,1.132-2.842,2.943-2.842H49.64
				c1.891,0,2.865,1.564,2.865,2.842v3.217H41.768v22.432c0,7.795,5.885,8.297,9.405,8.297h12.119c3.521,0,9.405-0.502,9.405-8.297
				V40.015h-7.872c-1.891,0-2.865-1.564-2.865-2.839v-3.22h13.629c1.812,0,2.943,1.256,2.943,2.842V63.201z"/>
		</g>
	</g>
	<g>
		<path fill="#34495F" d="M596.314,77.4c0,2.177,1.211,3.269,3.545,3.269c0.929,0,1.858-0.323,2.821-0.766v-5.926
			c0,0-2.456,0.081-3.424,0.242C597.279,74.501,596.314,75.63,596.314,77.4z"/>
		<path fill="#34495F" d="M651.436,77.4c0,2.177,1.206,3.269,3.547,3.269c0.925,0,1.85-0.323,2.814-0.766v-5.926
			c0,0-2.456,0.081-3.424,0.242C652.402,74.501,651.436,75.63,651.436,77.4z"/>
		<path fill="#34495F" d="M722.63,83.649V58.426l-8.462,25.223h-2.779l-8.502-25.183v25.183h-2.578V55.204h4.109l8.42,24.938
			l8.139-24.938h4.272v28.445H722.63z"/>
		<path fill="#34495F" d="M745.434,73.939h-12.173c0,5.519,2.216,7.815,6.89,7.815c1.168,0,3.063-0.201,4.675-0.521v2.135
			c-1.731,0.359-3.464,0.604-5.236,0.604c-6.528,0-8.905-3.912-8.905-10.114c0-7.373,3.224-10.839,7.898-10.839
			c5.157,0,6.972,3.786,6.972,8.382C745.554,72.004,745.434,73.939,745.434,73.939z M738.419,65.234
			c-2.86,0-4.913,2.538-5.116,6.488h9.672c0-0.282,0.038-0.804,0.038-1.085C743.013,67.207,741.443,65.234,738.419,65.234z"/>
		<path fill="#34495F" d="M762.996,83.649l-0.282-1.051c-1.048,0.687-3.099,1.374-4.632,1.374c-6.812,0-8.945-4.958-8.945-10.196
			c0-5.277,2.418-10.757,9.025-10.757c1.453,0,3.103,0.523,4.434,1.248v-9.873h2.456v29.254H762.996z M762.596,66.724
			c-0.848-0.885-2.619-1.49-4.191-1.49c-4.192,0-6.729,3.224-6.729,8.42c0,4.835,1.976,8.101,6.81,8.101
			c1.249,0,2.863-0.442,4.111-1.086V66.724z"/>
		<path fill="#34495F" d="M772.502,60.036c-0.883,0-1.609-0.28-1.609-1.933c0-1.654,0.767-1.974,1.651-1.974
			c0.887,0,1.651,0.283,1.651,1.933C774.195,59.716,773.393,60.036,772.502,60.036z M771.298,83.649v-20.31h2.456v20.31H771.298z"/>
		<path fill="#34495F" d="M790.188,83.649l-0.446-1.45c-2.575,1.45-3.823,1.773-5.76,1.773c-3.222,0-5.722-1.937-5.722-5.763
			c0-3.747,2.017-5.887,5.235-6.206c1.616-0.16,6.046-0.401,6.046-0.401v-2.382c0-2.575-0.926-3.987-3.95-3.987
			c-1.166,0-3.019,0.282-4.146,0.683v-2.133c0.966-0.364,2.86-0.765,4.474-0.765c2.051,0,3.663,0.563,4.51,1.407
			c0.93,0.967,1.569,2.259,1.569,5.523v13.7H790.188z M789.541,73.694c0,0-3.906,0.164-4.994,0.323
			c-2.743,0.405-3.787,1.813-3.787,3.825c0,2.462,1.086,3.912,3.946,3.912c1.37,0,3.872-1.008,4.835-1.813V73.694z"/>
		<g>
			<path fill="#34495F" d="M628.416,6.771c-35.204,0-63.743,28.543-63.743,63.75c0,35.204,28.539,63.74,63.743,63.74
				c35.206,0,63.747-28.536,63.747-63.74C692.163,35.314,663.622,6.771,628.416,6.771z M591.441,58.504h-10.355v8.702h8.301v3.307
				h-8.301v13.136h-4.512V55.204h14.867V58.504z M606.994,83.649h-3.667l-0.36-1.293c-2.78,1.252-4.073,1.616-5.441,1.616
				c-3.427,0-5.6-2.46-5.6-6.13c0-3.703,1.933-5.76,5.72-6.162c1.611-0.163,5.035-0.241,5.035-0.241v-2.134
				c0-2.337-0.963-3.306-3.386-3.306c-1.406,0-2.735,0.201-4.311,0.646v-3.063c1.977-0.605,3.588-0.887,5.521-0.887
				c2.175,0,4.027,0.563,5.035,1.611c1.09,1.086,1.453,2.539,1.453,5.642V83.649z M616.704,83.649h-4.312V63.02h4.312V83.649z
				 M614.526,60.157c-1.734,0-2.619-0.887-2.619-2.619s0.927-2.657,2.659-2.657s2.619,0.885,2.619,2.616
				C617.186,59.232,616.261,60.157,614.526,60.157z M633.139,67.371c-1.085-0.603-1.81-0.885-3.341-0.885
				c-1.128,0-2.659,0.442-3.304,1.208v15.956h-4.309V63.02h3.662l0.365,1.935c0.886-1.129,2.66-2.258,4.229-2.258
				c1.211,0,1.939,0.363,2.697,0.887V67.371z M646.881,65.877h-4.23v17.772h-4.309V65.877h-2.501V63.42l2.501-0.401V60.6
				c0-4.389,1.971-6.484,6.083-6.484c1.126,0,2.86,0.161,3.785,0.361v2.902c-0.645-0.083-1.729-0.161-2.376-0.161
				c-2.416,0-3.184,0.844-3.184,3.345v2.457h4.23V65.877z M662.108,83.649h-3.665l-0.363-1.293
				c-2.779,1.252-4.068,1.616-5.438,1.616c-3.424,0-5.602-2.46-5.602-6.13c0-3.703,1.937-5.76,5.724-6.162
				c1.609-0.163,5.033-0.241,5.033-0.241v-2.134c0-2.337-0.965-3.306-3.381-3.306c-1.411,0-2.737,0.201-4.309,0.646v-3.063
				c1.968-0.605,3.584-0.887,5.521-0.887c2.168,0,4.023,0.563,5.033,1.611c1.085,1.086,1.446,2.539,1.446,5.642V83.649z
				 M673.352,75.63l-4.674,8.02h-3.908l6.77-10.839l-6-9.791h4.832l4.03,6.97l3.99-6.97h3.622l-5.762,9.549l6.729,11.081h-4.873
				L673.352,75.63z"/>
		</g>
	</g>
	<g>
		<path fill="#34495F" d="M301.407,70.072v-7.321c0-3.406-1.518-5.111-4.555-5.111h-7.796v29.751h3.979V75.359h2.409l2.604,12.031
			h3.778l-2.79-12.374C300.614,74.294,301.407,72.653,301.407,70.072z M297.421,69.812c0,1.453-0.589,2.174-1.78,2.174h-2.605
			v-10.74h2.605c1.191,0,1.78,0.728,1.78,2.173V69.812z"/>
		<path fill="#34495F" d="M313.092,57.64h-3.818c-3.167,0-4.771,1.706-4.771,5.111v19.576c0,3.363,1.61,5.063,4.811,5.063h3.724
			c3.215,0,4.804-1.7,4.804-5.063V62.751C317.841,59.346,316.258,57.64,313.092,57.64z M313.881,82.058
			c0,1.137-0.525,1.727-1.577,1.727h-2.035c-1.19,0-1.78-0.59-1.78-1.727V62.971c0-1.136,0.583-1.725,1.742-1.725h1.872
			c1.184,0,1.778,0.589,1.778,1.725V82.058z"/>
		<path fill="#34495F" d="M328.504,57.64h-2.566c-3.188,0-4.771,1.7-4.771,5.063v19.624c0,3.363,1.583,5.063,4.771,5.063h2.566
			c3.166,0,4.771-1.7,4.771-5.063v-1.9h-3.979v1.631c0,1.137-0.529,1.727-1.577,1.727h-0.994c-1.051,0-1.578-0.59-1.578-1.727
			V62.971c0-1.136,0.527-1.725,1.578-1.725h0.792c1.185,0,1.779,0.589,1.779,1.725v3.091h3.979v-3.359
			C333.274,59.339,331.67,57.64,328.504,57.64z"/>
		<rect x="336.377" y="57.64" fill="#34495F" width="3.979" height="29.751"/>
		<polygon fill="#34495F" points="348.354,57.64 344.705,57.64 340.559,72.592 340.559,72.842 345.532,87.391 349.514,87.391 
			344.152,72.438 		"/>
		<polygon fill="#34495F" points="351.788,87.391 361.641,87.391 361.641,83.784 355.77,83.784 355.77,73.896 360.98,73.896 
			360.98,70.275 355.77,70.275 355.77,61.246 361.641,61.246 361.641,57.64 351.788,57.64 		"/>
		<polygon fill="#34495F" points="363.055,57.64 363.055,61.246 366.869,61.246 366.869,87.391 370.85,87.391 370.85,61.246 
			374.664,61.246 374.664,57.64 		"/>
		<rect x="376.942" y="57.64" fill="#34495F" width="3.965" height="29.751"/>
		<polygon fill="#34495F" points="392.887,72.002 388.615,57.64 384.646,57.64 384.646,87.391 388.615,87.391 388.615,67.913 
			392.887,81.468 392.887,87.391 396.867,87.391 396.867,57.64 392.887,57.64 		"/>
		<polygon fill="#34495F" points="399.143,61.246 402.96,61.246 402.96,87.391 406.939,87.391 406.939,61.246 410.742,61.246 
			410.742,57.64 399.143,57.64 		"/>
		<polygon fill="#34495F" points="413.028,87.391 422.883,87.391 422.883,83.784 417,83.784 417,73.896 422.224,73.896 
			422.224,70.275 417,70.275 417,61.246 422.883,61.246 422.883,57.64 413.028,57.64 		"/>
		<path fill="#34495F" d="M438.094,70.072v-7.321c0-3.406-1.519-5.111-4.563-5.111h-7.782v29.751h3.978V75.359h2.403l2.607,12.031
			h3.767l-2.774-12.374C437.308,74.294,438.094,72.653,438.094,70.072 M434.112,69.812c0,1.453-0.593,2.174-1.778,2.174h-2.608
			v-10.74h2.608c1.186,0,1.778,0.728,1.778,2.173V69.812z"/>
		<polygon fill="#34495F" points="449.653,72.002 445.382,57.64 441.404,57.64 441.404,87.391 445.382,87.391 445.382,67.913 
			449.653,81.468 449.653,87.391 453.633,87.391 453.633,57.64 449.653,57.64 		"/>
		<polygon fill="#34495F" points="457.359,87.391 467.216,87.391 467.216,83.784 461.338,83.784 461.338,73.896 466.555,73.896 
			466.555,70.275 461.338,70.275 461.338,61.246 467.216,61.246 467.216,57.64 457.359,57.64 		"/>
		<polygon fill="#34495F" points="468.627,57.64 468.627,61.246 472.44,61.246 472.44,87.391 476.42,87.391 476.42,61.246 
			480.227,61.246 480.227,57.64 		"/>
		<g>
			<path fill="#34495F" d="M272.492,65.381c2.678,7.277,1.099,15.766-4.744,21.608c-3.312,3.312-7.476,5.248-11.788,5.819
				c-1.099,1.523-2.114,2.87-3.04,4.058c5.785-0.156,11.522-2.432,15.938-6.848c7.19-7.189,8.724-17.881,4.624-26.579
				C273.15,64.096,272.821,64.744,272.492,65.381z"/>
			<path fill="#34495F" d="M234.646,71.28c0.604-4.243,2.53-8.334,5.794-11.6c5.789-5.786,14.174-7.391,21.405-4.817
				c0.645-0.333,1.298-0.667,1.962-1.002c-8.662-3.993-19.257-2.427-26.396,4.711c-4.37,4.371-6.643,10.037-6.841,15.763
				C231.764,73.404,233.115,72.385,234.646,71.28z"/>
			
				<ellipse transform="matrix(0.7067 0.7075 -0.7075 0.7067 118.6604 -176.8414)" fill="#34495F" cx="272.64" cy="54.71" rx="0.332" ry="3.06"/>
			<path fill="#34495F" d="M274.803,52.546c-0.23-0.23-14.561,6.555-27.019,14.479c-15.101,9.605-21.552,16.058-21.552,16.058
				c-0.41,0.431-0.258,0.8,0.335,0.82c0,0,11.95,0.403,14.214,2.665c2.262,2.263,2.665,14.212,2.665,14.212
				c0.02,0.595,0.389,0.746,0.819,0.336c0,0,6.452-6.451,16.058-21.551C268.256,67.097,275.035,52.778,274.803,52.546z"/>
		</g>
	</g>
	<g id="svg_2_2_">
		<path id="svg_3_2_" fill="#34495F" d="M972.441,0.311c-1.111,0.292-2.025,0.701-2.771,1.232c-0.922,0.671-1.862,1.129-3.337,1.621
			c-2.882,0.946-5.721,1.053-8.729,0.305c-1.375-0.343-1.814-0.404-2.947-0.328c-2.453,0.149-4.822,1.164-6.321,2.693
			c-0.488,0.508-1.337,1.397-1.917,1.999c-2.342,2.531-5.939,4.208-9.501,4.453c-2.462,0.164-3.882,0.653-5.644,1.9
			c-1.679,1.209-2.709,2.561-3.457,4.571c-1.336,3.599-4.728,7.065-8.064,8.272c-3.244,1.175-5.787,3.536-6.672,6.204
			c-0.295,0.892-0.303,1.163-0.243,4.837l0.054,3.899l-0.881,0.957c-0.488,0.508-1.545,1.473-2.35,2.102
			c-0.824,0.652-1.816,1.438-2.227,1.759c-0.398,0.332-1.26,0.95-1.914,1.358c-1.439,0.927-3.643,3.086-4.398,4.322
			c-0.629,1.057-1.274,2.545-1.274,2.996c0,0.212,0.225,0.396,0.835,0.663c1.545,0.699,8.17,2.835,10.596,3.438
			c11.771,2.892,23.975,2.502,40.091-1.316c5.454-1.294,11.101-2.912,21.147-6.062c16.295-5.104,21.125-6.483,28.184-8.047
			c8.609-1.896,15.176-2.617,22.432-2.464c3.915,0.076,6.143,0.278,9.562,0.851c1.835,0.305,6.013,1.293,6.825,1.598
			c0.242,0.088,0.461,0.118,0.486,0.088c0.04-0.038-0.133-0.37-0.385-0.725c-1.451-2.136-2.508-5.22-2.508-7.375
			c0-1.862-0.836-4.147-2.166-5.861c-1.152-1.526-2.732-2.567-5.053-3.415c-1.594-0.565-4.311-2.762-5.646-4.528
			c-0.949-1.278-1.372-2.014-2.004-3.599c-0.688-1.72-1.635-3.059-2.895-4.108c-1.863-1.535-3.479-2.136-6.531-2.396
			c-3.557-0.309-7.397-2.193-9.471-4.666c-1.567-1.858-2.521-2.675-3.928-3.374c-1.741-0.835-3.381-1.178-5.113-1.056
			c-0.686,0.042-1.516,0.179-1.859,0.297c-3.207,1.152-8.591,0.397-11.621-1.602c-1.25-0.828-2.324-1.32-3.498-1.598
			c-1.266-0.309-3.597-0.264-4.89,0.076L972.441,0.311z M974.71,10.52c0.323,0.278,0.407,0.465,0.407,0.969
			c0,0.504-0.084,0.694-0.407,0.965c-0.89,0.771-2.149,0.191-2.149-0.965C972.561,10.328,973.826,9.752,974.71,10.52z
			 M979.277,10.694c0.752,0.847,0.177,2.119-0.973,2.119c-0.922,0-1.553-0.923-1.206-1.771
			C977.486,10.141,978.611,9.962,979.277,10.694z M970.262,10.836c0.645,0.625,0.388,1.815-0.472,2.145
			c-0.542,0.206-1.312-0.092-1.589-0.607c-0.309-0.607-0.281-0.942,0.16-1.457C968.865,10.309,969.717,10.267,970.262,10.836z
			 M983.68,10.969c0.895,0.782,0.307,2.297-0.895,2.297c-0.688,0-1.268-0.603-1.268-1.309
			C981.536,10.778,982.785,10.207,983.68,10.969z M965.729,11.293c0.604,0.382,0.626,1.389,0.046,1.973
			c-0.195,0.183-0.504,0.297-0.884,0.297c-1.479,0-1.824-1.945-0.447-2.483c0.412-0.16,0.797-0.088,1.279,0.217L965.729,11.293z
			 M988.193,11.802c0.624,0.725,0.467,1.541-0.35,1.98c-0.626,0.32-0.997,0.278-1.477-0.206c-0.873-0.87-0.328-2.224,0.889-2.224
			c0.447,0,0.648,0.087,0.945,0.461L988.193,11.802z M961.436,12.305c0.826,0.824,0.236,2.144-0.955,2.144
			c-0.756,0-1.319-0.553-1.319-1.259c0-1.114,1.472-1.69,2.28-0.885H961.436z M992.368,12.607c0.499,0.347,0.659,0.892,0.461,1.491
			c-0.444,1.366-2.491,1.03-2.491-0.435C990.338,12.595,991.496,11.993,992.368,12.607z M957.084,13.479
			c1.134,1.213-0.625,2.973-1.834,1.843c-0.508-0.473-0.516-1.343,0-1.843C955.754,12.969,956.623,12.981,957.084,13.479z
			 M996.833,14.129c0.235,0.244,0.417,0.572,0.417,0.744c0,0.77-0.721,1.476-1.475,1.476c-0.512,0-1.16-0.782-1.16-1.4
			c0-1.167,1.355-1.675,2.221-0.82H996.833z M952.861,15.021c0.385,0.397,0.436,0.527,0.357,0.992
			c-0.113,0.679-0.686,1.21-1.287,1.21c-0.629,0-1.312-0.702-1.312-1.355C950.633,14.663,951.988,14.152,952.861,15.021z
			 M1000.994,15.685c0.569,0.527,0.542,1.377-0.073,1.896c-0.708,0.607-1.563,0.45-1.981-0.347c-0.67-1.308,0.951-2.541,2.044-1.541
			L1000.994,15.685z M948.722,16.773c0.293,0.301,0.429,0.568,0.429,0.9c0,0.58-0.699,1.312-1.256,1.312
			c-1.279,0-1.859-1.312-0.973-2.216c0.298-0.305,0.572-0.424,0.896-0.424c0.32,0,0.603,0.134,0.893,0.424L948.722,16.773z
			 M1005.061,17.658c0.295,0.301,0.426,0.579,0.426,0.9c0,0.58-0.691,1.312-1.253,1.312c-0.823,0-1.377-0.526-1.377-1.312
			C1002.856,17.337,1004.195,16.799,1005.061,17.658z M944.42,18.634c1.215,0.63,0.777,2.423-0.607,2.423
			c-1.377,0-1.813-1.763-0.58-2.409C943.729,18.363,943.898,18.363,944.42,18.634z M1008.617,19.618
			c0.507,0.264,0.68,0.569,0.693,1.191c0.012,1.472-1.924,1.785-2.502,0.404C1006.348,20.118,1007.552,19.046,1008.617,19.618z
			 M940.679,21.003c0.306,0.115,0.664,0.82,0.664,1.305c0,0.606-0.602,1.106-1.32,1.106c-0.788,0-1.314-0.5-1.314-1.251
			c0-0.942,0.992-1.534,1.981-1.156L940.679,21.003z M1012.65,22.29c0.32,0.282,0.406,0.473,0.406,0.973
			c0,0.499-0.086,0.694-0.406,0.972c-0.896,0.767-2.145,0.187-2.168-0.984C1010.482,22.118,1011.764,21.542,1012.65,22.29z
			 M937.344,23.945c0.749,0.851,0.177,2.121-0.986,2.121c-0.469,0-0.645-0.087-0.954-0.461c-0.203-0.248-0.385-0.569-0.385-0.725
			c0-0.511,0.35-1.072,0.808-1.27c0.569-0.244,1.093-0.138,1.518,0.324V23.945z M1016.227,25.036c0.658,0.66,0.545,1.633-0.266,2.1
			c-1.277,0.755-2.586-0.905-1.575-2.018C1014.844,24.636,1015.763,24.571,1016.227,25.036z M933.861,26.784
			c0.301,0.301,0.428,0.579,0.428,0.9c0,0.584-0.699,1.32-1.252,1.32c-1.282,0-1.857-1.32-0.973-2.228
			c0.295-0.298,0.568-0.423,0.895-0.423c0.322,0,0.609,0.137,0.895,0.423L933.861,26.784z M1019.33,27.833
			c0.432,0.236,0.751,0.992,0.648,1.487c-0.117,0.508-0.705,1.011-1.204,1.011c-0.464,0-1.157-0.37-1.288-0.663
			c-0.141-0.405-0.076-1.16,0.111-1.417c0.404-0.525,1.177-0.721,1.732-0.427V27.833z M930.638,29.835
			c0.575,0.535,0.412,1.917-0.243,2.183c-1.63,0.618-2.793-1.5-1.275-2.343c0.459-0.244,1.129-0.179,1.535,0.16H930.638z
			 M1022.719,31.354c0.301,0.301,0.428,0.568,0.428,0.889c0,0.328-0.135,0.606-0.428,0.896c-0.293,0.302-0.564,0.431-0.893,0.431
			c-0.324,0-0.599-0.141-0.895-0.431c-0.292-0.301-0.426-0.568-0.426-0.896c0-0.321,0.142-0.603,0.426-0.889
			c0.299-0.302,0.57-0.427,0.895-0.427C1022.154,30.928,1022.432,31.064,1022.719,31.354z M927.379,33.056
			c0.516,0.267,0.809,1.045,0.603,1.595c-0.507,1.339-2.511,0.965-2.511-0.462c0-1.091,0.933-1.655,1.925-1.133H927.379z
			 M1025.267,34.475c0.47,0.218,0.87,1.023,0.731,1.526c-0.141,0.515-0.731,0.95-1.333,0.95c-1.179,0-1.675-1.491-0.765-2.258
			C1024.396,34.266,1024.705,34.22,1025.267,34.475z M924.916,36.753c0.536,0.511,0.465,1.591-0.166,2.075
			c-0.734,0.568-2.082-0.099-2.082-1.049C922.668,36.604,924.043,35.99,924.916,36.753z M1028.232,38.352
			c0.525,0.515,0.516,1.431-0.027,1.927c-0.336,0.324-0.512,0.362-1,0.301c-0.724-0.099-1.104-0.526-1.104-1.312
			c0-0.759,0.507-1.286,1.252-1.286c0.367,0,0.648,0.118,0.89,0.363L1028.232,38.352z M922.445,40.576
			c0.673,0.683,0.439,1.736-0.506,2.117c-0.828,0.345-1.763-0.319-1.763-1.27C920.177,40.309,921.613,39.771,922.445,40.576z
			 M920.199,44.437c0.861,0.873,0.319,2.209-0.912,2.22c-0.727,0-1.316-0.565-1.316-1.27c0-0.672,0.664-1.371,1.32-1.371
			c0.327,0,0.604,0.13,0.896,0.42H920.199z M918.279,48.562c0.232,0.24,0.428,0.564,0.428,0.755c0,0.504-0.395,1.106-0.851,1.305
			c-1.293,0.549-2.405-1.11-1.418-2.102C916.983,47.969,917.713,48.004,918.279,48.562z M916.341,52.48
			c1.215,0.618,0.719,2.426-0.678,2.426c-1.177,0-1.673-1.503-0.765-2.271C915.408,52.201,915.75,52.171,916.341,52.48z
			 M914.861,56.683c1.374,0.489,0.945,2.493-0.529,2.493c-1.334,0-1.691-2.003-0.42-2.512
			C914.318,56.485,914.318,56.485,914.861,56.683z"/>
		<path id="svg_4_2_" fill="#34495F" d="M1017.037,43.06c-0.32,0.023-1.407,0.137-2.421,0.206
			c-9.032,0.792-18.922,3.082-35.414,8.251c-2.05,0.626-5.399,1.694-7.425,2.323c-19.508,6.109-29.717,8.295-41.178,8.871
			c-6.855,0.347-14.169-0.382-20.388-2.018c-1.157-0.305-8.052-2.545-9.065-2.945c-0.249-0.103-0.249,0.732-0.222,18.838
			l0.04,18.967l0.345,1.16c0.423,1.541,1.157,2.846,1.9,3.414c0.788,0.607,3.662,1.823,6.59,2.781
			c3.689,1.217,7.764,2.088,12.212,2.605c2.557,0.306,11.18,0.248,14.191-0.076c10.073-1.11,18.959-3.221,36.484-8.729
			c13.578-4.273,17.113-5.318,23.27-6.896c17.772-4.509,31.801-5.05,44.33-1.692c1.337,0.347,7.867,2.482,8.799,2.867
			c0.239,0.104,0.248-0.826,0.248-18.293c0-15.665-0.027-18.561-0.226-19.629c-0.421-2.476-1.236-3.986-2.575-4.77
			c-1.629-0.984-6.604-2.765-10.068-3.635c-4.944-1.221-7.975-1.579-13.977-1.637c-2.662-0.019-5.109-0.019-5.438,0.019
			L1017.037,43.06z M1028.869,50.399c-0.347,1.481-1.073,6.471-1.383,9.561c-0.33,3.439-0.466,5.155-0.425,5.193
			c0.024,0.027,0.269-0.278,0.528-0.69c1.974-2.907,5.645-6.401,7.057-6.71c1.033-0.229,1.171,0.591,0.713,4.739
			c-0.366,3.41-0.342,4.28,0.219,4.833l0.342,0.347l-0.298,0.405c-0.881,1.155-2.812,2.853-3.017,2.632
			c-0.158-0.16-0.053-4.021,0.178-6.021c0.239-2.144,0.285-3.452,0.142-3.838c-0.328-0.835-2.735,1.026-4.177,3.212
			c-0.859,1.328-1.386,2.9-1.7,5.079c-0.239,1.656-0.244,1.709-0.786,2.187c-0.676,0.625-1.513,1.152-1.971,1.274l-0.353,0.084
			l0.195-2.548c0.455-6.048,1.388-14.021,2.006-16.963c0.45-2.06,0.669-2.587,1.328-3.083c0.505-0.385,1.569-0.988,1.653-0.911
			c0.012,0.011-0.092,0.56-0.252,1.205V50.399L1028.869,50.399z M996.08,56.723c0,0.286-1.662,2.044-2.299,2.43
			c-0.646,0.412-2.814,1.129-6.121,2.083c-5.753,1.617-7.219,2.056-8.895,2.67c-0.971,0.351-1.775,0.591-1.811,0.511
			c-0.087-0.236,0.986-1.72,1.881-2.609c1-0.996,0.889-0.946,8.916-3.01c2.998-0.771,6.08-1.592,6.836-1.844
			c0.766-0.236,1.421-0.442,1.439-0.442c0.02-0.019,0.022,0.084,0.022,0.206L996.08,56.723z M1021.746,61.541
			c-0.131,0.419-0.603,1.209-0.852,1.407c-0.114,0.111-0.424,0.088-0.986-0.053c-2.359-0.626-4.926,1.396-3.5,2.735
			c0.189,0.157,1.092,0.538,2.03,0.82c2.017,0.63,2.849,1.076,3.192,1.717c0.305,0.622,0.305,1.522-0.029,2.167
			c-0.36,0.717-2.345,2.621-3.337,3.208c-1.833,1.095-4.104,1.52-5.315,0.996c-0.594-0.244-1.12-0.881-1.12-1.37
			c0-0.473,0.386-1.369,0.768-1.762c0.403-0.431,0.46-0.431,0.672,0.076c0.253,0.569,0.995,1.316,1.681,1.663
			c1.635,0.832,4.077-0.351,4.324-2.122c0.146-1.011-0.588-1.65-2.725-2.311c-0.786-0.246-1.676-0.588-2.006-0.786
			c-0.702-0.397-1.145-1.156-1.047-1.812c0.301-2.03,4.671-4.857,7.563-4.892c0.748-0.019,0.786,0,0.694,0.305v0.012H1021.746z
			 M983.963,63.818c-0.412,1.438-1.633,7.539-1.514,7.638c0.076,0.078,5.265-1.289,8.383-2.185c1.113-0.328,1.718-0.443,1.718-0.34
			c0,0.458-1.054,1.637-1.829,2.026c-0.854,0.442-4.57,1.762-6.758,2.407c-1.473,0.441-1.912,0.629-2.007,0.866
			c-0.157,0.431-0.562,4.082-0.664,6.229l-0.105,1.809l-0.824,0.736c-1.055,0.95-2.786,2.121-2.911,1.995
			c-0.146-0.155,0.205-4.215,0.615-7.156c0.754-5.276,2.02-11.694,2.406-12.106c0.567-0.633,2.99-2.163,3.441-2.163
			c0.072,0,0.1,0.118,0.057,0.244H983.963L983.963,63.818z M1010.398,63.963c0.484,0.446,0.24,1.656-0.562,2.786
			c-1.055,1.503-2.888,3.094-4.448,3.868c-0.613,0.309-0.629,0.34-0.629,1.015c0,0.969,0.385,2.174,0.791,2.453
			c0.437,0.309,1.363,0.286,2.102-0.08c0.721-0.34,2.16-1.825,2.968-3.034c0.442-0.671,0.545-0.767,0.634-0.526
			c0.201,0.511,0.133,0.793-0.492,1.636c-1.451,1.999-4.141,4.242-5.797,4.826c-0.625,0.222-0.818,0.236-1.191,0.069
			c-1.15-0.467-1.676-3.229-1.15-6.002c0.34-1.808,1.19-3.376,2.633-4.818c2.087-2.125,4.204-3.006,5.137-2.182L1010.398,63.963z
			 M962.124,66.45c-0.96,3.767-1.821,11.316-2.028,17.627l-0.089,2.912l-0.729,0.582c-0.661,0.516-1.716,1.152-1.941,1.152
			c-0.297,0,0.299-7.695,0.971-12.713c0.526-3.921,1.372-8.213,1.814-9.262c0.232-0.561,0.688-0.969,1.559-1.469
			c0.826-0.473,0.846-0.385,0.461,1.171H962.124L962.124,66.45z M1002.125,66.244c0,0.191-0.221,0.767-0.486,1.282
			c-0.469,0.942-0.469,0.942-1.496,1.274c-0.869,0.267-1.152,0.462-1.762,1.114c-1.293,1.4-2.123,3.296-2.797,6.456
			c-0.31,1.514-0.398,1.721-0.836,2.106c-0.441,0.377-1.892,1.156-1.984,1.054c-0.01-0.017,0.093-0.928,0.244-2.012
			c0.353-2.438,0.627-6.333,0.51-7.466c-0.084-0.836-0.084-0.836,0.545-1.478c0.35-0.351,0.968-0.873,1.38-1.137l0.735-0.499
			l0.115,0.335c0.12,0.313,0.027,3.419-0.133,4.223c-0.084,0.443-0.205,0.592,1.432-1.896c1.592-2.43,2.99-3.662,4.143-3.692
			c0.307,0,0.4,0.072,0.4,0.324L1002.125,66.244z M955.531,67.787c-1.014,4.207-1.854,11.376-2.055,17.699l-0.092,2.865
			l-0.513,0.492c-0.499,0.461-1.879,1.35-2.147,1.35c-0.307,0,0.348-8.415,1.03-13.318c0.435-3.018,1.114-6.589,1.542-8.046
			c0.239-0.833,0.404-1.076,0.912-1.484c0.58-0.469,1.387-0.969,1.594-0.984c0.043,0-0.058,0.645-0.258,1.427H955.531
			L955.531,67.787z M939.416,69.923c-0.361,1.606-1.055,5.898-1.426,8.943c-0.47,3.863-0.621,6.143-0.668,10.063l-0.064,3.663
			l-0.488,0.504c-0.559,0.588-2.201,1.721-2.949,2.025l-0.512,0.221l-0.117-0.996c-0.176-1.734,0.244-10.27,0.621-11.986
			l0.084-0.412l-1.014,0.641c-0.543,0.374-1.318,0.832-1.746,1.02c-0.846,0.427-4.18,1.541-7.775,2.609
			c-1.35,0.403-2.482,0.744-2.512,0.781c-0.101,0.135-0.543,5.208-0.624,7.224l-0.079,2.323l-0.734,0.647
			c-0.78,0.706-2.613,1.878-3.188,2.058l-0.348,0.104l0.088-2.184c0.084-2.037,0.504-5.967,0.851-8.126
			c0.075-0.511,0.119-0.958,0.103-0.974c-0.027-0.027-0.854,0.198-1.859,0.508c-2.061,0.634-2.044,0.634-1.154-0.846
			c0.691-1.156,1.217-1.581,2.385-1.928l1.031-0.305l0.398-2.427c0.219-1.339,0.672-3.861,1.011-5.581l0.604-3.133l0.768-0.481
			c0.807-0.553,3.309-1.682,3.432-1.557c0.043,0.042-0.105,0.782-0.31,1.661c-0.854,3.616-2.112,10.286-1.968,10.423
			c0.076,0.064,9.512-2.361,11.748-3.021l0.965-0.307l0.169-1.204c0.097-0.671,0.455-2.945,0.788-5.052
			c0.592-3.693,0.619-3.841,1.047-4.243c0.445-0.408,3.213-1.865,3.562-1.865c0.141,0,0.113,0.282-0.105,1.209H939.416
			L939.416,69.923z M971.742,73.459c0.951,0.424,1.374,2.687,0.895,4.731c-0.765,3.235-3.5,6.855-6.238,8.245
			c-2.182,1.11-3.117,0.362-3.244-2.526c-0.125-3.141,0.989-5.662,3.651-8.252c1.899-1.854,3.819-2.713,4.934-2.19L971.742,73.459z
			 M947.849,78.712c0.282,0.242,0.35,0.412,0.323,0.947c-0.058,1.651-2.242,4.132-4.926,5.602l-0.99,0.545l0.088,0.767
			c0.182,1.911,0.629,2.603,1.658,2.603c1.177,0,2.559-1.069,4.045-3.148l0.724-1.018l0.116,0.477
			c0.188,0.629-0.363,1.411-2.299,3.334c-1.591,1.575-2.951,2.563-4.111,2.949c-0.656,0.217-0.775,0.217-1.199,0.016
			c-0.896-0.428-1.322-2.026-1.209-4.514c0.076-1.812,0.424-3.019,1.234-4.402c1.032-1.721,3.047-3.483,4.757-4.147
			c0.862-0.343,1.351-0.343,1.771,0L947.849,78.712z"/>
		<path id="svg_5_2_" fill="#34495F" d="M1006.744,65.71c-0.673,0.349-1.053,0.768-1.367,1.5c-0.319,0.743-0.704,2.483-0.571,2.62
			c0.119,0.119,1.556-0.644,2.413-1.278c0.891-0.675,1.219-1.209,1.219-2.01c0-0.978-0.736-1.329-1.696-0.833H1006.744z"/>
		<path id="svg_6_2_" fill="#34495F" d="M968.027,75.569c-0.271,0.137-0.753,0.525-1.094,0.896
			c-1.476,1.591-1.982,4.281-1.218,6.543c0.846,2.629,3.857,0.992,4.692-2.564c0.404-1.773,0.206-3.876-0.467-4.669
			C969.511,75.269,968.807,75.185,968.027,75.569z"/>
		<path id="svg_7_2_" fill="#34495F" d="M944.412,80.46c-0.549,0.218-1.294,1.107-1.578,1.866c-0.339,0.89-0.586,2.506-0.357,2.403
			c0.075-0.043,0.501-0.26,0.992-0.499c2.076-1.051,3.068-2.564,2.35-3.575c-0.223-0.32-0.87-0.428-1.415-0.211L944.412,80.46z"/>
		<path id="svg_8_2_" fill="#34495F" d="M1018.075,87.415c-4.517,0.282-10.595,1.156-15.79,2.281
			c-6.617,1.412-13.092,3.221-25.33,7.078c-16.049,5.048-22.334,6.791-29.575,8.264c-7.864,1.594-13.708,2.183-20.29,2.025
			c-6.098-0.129-11.529-0.95-16.342-2.438c-0.506-0.164-0.973-0.285-0.986-0.244c-0.024,0.02,0.189,0.396,0.49,0.832
			c1.426,2.083,2.311,4.723,2.546,7.496c0.217,2.878,0.987,4.617,2.884,6.531c1.134,1.161,1.975,1.705,3.438,2.244
			c3.698,1.336,6.918,4.514,8.494,8.383c0.69,1.697,0.869,2.006,1.731,3.036c0.827,0.983,2.155,1.962,3.54,2.606
			c1.386,0.652,2.172,0.835,4.025,0.95c3.381,0.221,7.656,2.3,9.602,4.65c1.402,1.701,2.543,2.708,3.828,3.334
			c1.54,0.753,2.633,1.05,4.318,1.161c1.163,0.079,1.518,0.025,2.873-0.341c1.413-0.381,1.754-0.408,3.904-0.408
			c2.041,0.019,2.523,0.062,3.749,0.401c1.702,0.457,2.958,1.03,4.345,1.922c1.439,0.959,2.996,1.436,4.951,1.541
			c2.569,0.111,3.965-0.305,6.688-1.979c1.371-0.855,2.968-1.428,4.947-1.768c1.815-0.305,4.456-0.202,6.004,0.241
			c2.104,0.602,4.033,0.545,6.227-0.222c1.521-0.545,2.529-1.195,3.638-2.339c2.445-2.567,3.15-3.193,4.28-3.907
			c2.342-1.426,4.449-2.121,7.355-2.342c2.626-0.229,4.491-1.054,6.271-2.786c1.068-1.018,1.752-2.062,2.378-3.666
			c1.499-3.751,4.514-6.825,8.167-8.278c1.779-0.73,2.104-0.9,3.056-1.679c2.126-1.726,3.646-4.831,3.646-7.383
			c0-3.136,2.02-7.463,4.527-9.786c0.516-0.469,1.697-1.352,2.592-1.938c3.15-2.095,4.958-4.182,5.901-6.812l0.355-1.014
			l-0.917-0.431c-1.338-0.619-8.408-2.931-10.553-3.458c-6.791-1.648-13.644-2.22-20.963-1.758h-0.005V87.415z M1036.75,89.976
			c0.678,0.667,0.322,1.977-0.592,2.189c-0.496,0.139-1.307-0.264-1.525-0.736c-0.244-0.553-0.201-0.861,0.219-1.369
			C1035.359,89.457,1036.213,89.415,1036.75,89.976z M1035.436,94.244c0.525,0.509,0.498,1.29-0.058,1.858
			c-0.241,0.232-0.577,0.424-0.753,0.424c-0.865,0-1.594-0.87-1.381-1.68C1033.47,93.916,1034.763,93.55,1035.436,94.244z
			 M1002.363,99.276c-0.188,4.449-1.765,10.313-3.99,14.834c-3.679,7.482-9.317,12.267-16.576,14.051
			c-4.411,1.068-8.429,0.951-11.914-0.351c-1.934-0.728-3.381-1.64-5.107-3.208c-0.865-0.786-1.67-1.43-1.822-1.442
			c-0.347,0-1.412,1.251-1.919,2.304c-0.252,0.512-0.505,0.932-0.55,0.932c-0.039,0-0.18-0.469-0.31-1.053l-0.233-1.037l0.632-1.111
			c0.987-1.735,1.111-2.689,0.708-5.254c-0.488-3.029-0.076-5.924,1.268-8.739c0.725-1.497,1.231-2.278,2.395-3.515
			c2.369-2.525,5.758-4.285,9.971-5.216c1.342-0.278,1.799-0.305,4.307-0.229c1.816,0.043,4.129,0.229,6.492,0.539
			c4.625,0.576,8.09,0.71,10.169,0.4c2.724-0.424,4.56-1.352,5.663-2.865c0.35-0.507,0.705-0.893,0.78-0.893
			c0.075-0.02,0.084,0.794,0.046,1.854H1002.363L1002.363,99.276z M1033.76,98.423c0.561,0.572,0.583,1.293,0.038,1.842
			c-0.542,0.547-1.271,0.508-1.835-0.045c-0.488-0.504-0.545-1.011-0.18-1.576C1032.269,97.899,1033.12,97.809,1033.76,98.423z
			 M1031.613,102.199c0.293,0.126,0.666,0.832,0.666,1.294c0,0.209-0.165,0.549-0.355,0.789c-0.422,0.5-1.35,0.573-1.843,0.139
			c-0.575-0.551-0.526-1.606,0.13-2.103c0.244-0.191,1.012-0.248,1.404-0.107L1031.613,102.199z M1029.75,106.464
			c0.722,0.837,0.131,2.126-1,2.126c-1.38,0-1.824-1.751-0.626-2.427C1028.658,105.862,1029.322,106.003,1029.75,106.464z
			 M923.771,108.51c0.385,0.354,0.516,1.049,0.301,1.625c-0.127,0.271-0.813,0.664-1.242,0.664c-0.864,0-1.471-1.003-1.113-1.843
			c0.371-0.881,1.363-1.088,2.065-0.446H923.771L923.771,108.51z M1027.205,110.151c0.477,0.511,0.488,1.232,0.049,1.738
			c-1.049,1.19-2.857-0.09-2.12-1.503c0.266-0.515,0.407-0.591,1.155-0.603c0.428-0.02,0.645,0.077,0.913,0.367H1027.205z
			 M926.434,112.19c0.515,0.509,0.507,1.371,0,1.844c-0.832,0.782-2.186,0.175-2.186-0.977
			C924.248,111.97,925.664,111.397,926.434,112.19z M1024.416,113.66c0.71,0.694,0.365,1.993-0.589,2.229
			c-0.884,0.221-1.813-0.669-1.615-1.572C1022.432,113.355,1023.722,112.958,1024.416,113.66z M929.326,115.641
			c0.293,0.298,0.426,0.567,0.426,0.894c0,0.629-0.694,1.322-1.326,1.322c-0.631,0-1.314-0.693-1.314-1.322
			c0-0.326,0.13-0.604,0.426-0.894c0.293-0.297,0.566-0.421,0.889-0.421S929.027,115.358,929.326,115.641z M1021.475,117.067
			c0.924,0.992-0.171,2.633-1.398,2.121c-0.811-0.336-1.076-1.103-0.67-1.914c0.252-0.486,0.404-0.562,1.157-0.57
			C1020.984,116.683,1021.203,116.782,1021.475,117.067z M932.454,118.823c0.282,0.267,0.382,0.507,0.382,0.908
			c-0.016,1.503-1.789,1.865-2.48,0.515c-0.626-1.21,1.088-2.369,2.099-1.431V118.823z M1018.225,120.165
			c0.55,0.542,0.515,1.268-0.041,1.835c-0.304,0.298-0.566,0.429-0.897,0.429c-0.624,0-1.317-0.695-1.317-1.32
			c0-0.328,0.139-0.604,0.428-0.894c0.564-0.565,1.297-0.591,1.836-0.046L1018.225,120.165z M935.902,121.925
			c0.737,0.823,0.139,2.121-0.984,2.121c-0.591-0.016-0.91-0.207-1.16-0.694C933.025,121.981,934.863,120.753,935.902,121.925z
			 M1014.844,123.175c0.488,0.574,0.488,1.049-0.021,1.619c-1.152,1.281-3.001-0.324-1.928-1.694
			c0.238-0.306,0.426-0.386,0.946-0.386c0.526,0,0.702,0.08,1.011,0.461H1014.844z M939.074,124.374
			c0.479,0.24,0.675,0.564,0.675,1.145c0,0.793-0.563,1.32-1.388,1.32c-0.557,0-1.244-0.737-1.244-1.32
			C937.117,124.573,938.233,123.923,939.074,124.374z M1011.184,125.743c0.787,0.764,0.223,2.133-0.869,2.133
			c-0.708,0-0.952-0.122-1.19-0.604c-0.304-0.602-0.266-1.056,0.149-1.514C1009.756,125.229,1010.666,125.21,1011.184,125.743z
			 M942.875,126.846c0.492,0.279,0.762,0.974,0.563,1.541c-0.485,1.474-2.483,1.152-2.503-0.408c0-0.973,1.05-1.591,1.926-1.133
			H942.875L942.875,126.846z M1007.354,128.101c0.67,0.641,0.429,1.694-0.458,2.076c-1.312,0.561-2.401-1.117-1.377-2.144
			c0.429-0.429,1.377-0.405,1.835,0.075V128.101L1007.354,128.101z M946.711,129.089c0.492,0.244,0.674,0.565,0.674,1.146
			c0,0.788-0.555,1.319-1.377,1.319c-0.553,0-1.246-0.732-1.246-1.319C944.762,129.295,945.875,128.635,946.711,129.089z
			 M1003.369,130.177c0.545,0.561,0.528,1.267-0.061,1.857c-0.395,0.383-0.527,0.447-1.002,0.367
			c-1.142-0.191-1.567-1.385-0.781-2.182C1002.098,129.654,1002.821,129.627,1003.369,130.177z M950.801,130.97
			c0.348,0.188,0.729,0.89,0.729,1.316c0,0.516-0.784,1.184-1.369,1.184c-0.708,0-1.282-0.593-1.282-1.328
			C948.879,131.195,949.966,130.528,950.801,130.97z M999.205,131.978c0.887,0.899,0.307,2.224-0.973,2.224
			c-0.562,0-1.258-0.728-1.258-1.319c0-0.32,0.141-0.603,0.434-0.89c0.582-0.576,1.209-0.576,1.794,0v-0.015H999.205z
			 M955.217,132.87c0.564,0.564,0.586,1.293,0.041,1.836c-0.543,0.549-1.271,0.515-1.836-0.043
			c-0.458-0.473-0.531-0.912-0.228-1.473C953.655,132.378,954.566,132.237,955.217,132.87z M995.044,133.499
			c0.452,0.443,0.442,1.336-0.052,1.81c-0.984,0.999-2.662-0.119-2.119-1.427C993.22,133.046,994.336,132.848,995.044,133.499z
			 M959.459,134.141c1.307,1.091-0.309,3.029-1.648,1.976c-0.715-0.563-0.626-1.696,0.174-2.136
			C958.554,133.676,958.949,133.718,959.459,134.141z M990.203,134.361c0.872,0.313,1.154,1.432,0.525,2.103
			c-0.765,0.832-2.277,0.302-2.277-0.785c0-0.768,0.264-1.076,1.261-1.478C989.736,134.201,989.942,134.278,990.203,134.361z
			 M963.899,135.221c0.566,0.563,0.591,1.293,0.046,1.835c-1.087,1.088-2.911-0.396-2.027-1.656
			C962.422,134.679,963.284,134.613,963.899,135.221z M985.879,135.297c1.339,0.557,0.945,2.442-0.516,2.442
			c-1.449,0-1.861-1.854-0.542-2.431C985.41,135.049,985.287,135.063,985.879,135.297z M968.351,135.915
			c0.933,0.927,0.138,2.441-1.155,2.209c-0.664-0.141-1.029-0.58-1.029-1.297C966.166,135.671,967.535,135.091,968.351,135.915z
			 M981.376,135.835c1.331,0.473,0.966,2.491-0.458,2.491c-1.482,0-1.818-2.026-0.412-2.548
			C980.826,135.655,980.858,135.655,981.376,135.835z M972.921,136.426c0.429,0.5,0.456,0.63,0.22,1.271
			c-0.307,0.892-1.605,1.11-2.195,0.351c-1.053-1.312,0.895-2.945,1.98-1.633L972.921,136.426z M977.022,136.144
			c0.505,0.244,0.673,0.568,0.688,1.172c0,0.411-0.104,0.625-0.458,0.907c-0.624,0.534-1.206,0.507-1.784-0.05
			c-0.385-0.408-0.436-0.525-0.359-1.003C975.264,136.22,976.215,135.704,977.022,136.144z"/>
		<path id="svg_9_2_" fill="#34495F" d="M992.696,104.034c-8.726,0.668-16.661,3.019-20.908,6.223
			c-1.613,1.217-3.942,3.666-5.089,5.326c-0.861,1.274-2.396,3.865-2.396,4.07c0,0.065,0.871-0.582,1.922-1.448
			c4.449-3.575,9.158-6.914,11.34-8.024c3.34-1.675,8.78-3.483,16.235-5.367l3.676-0.936l-1.54,0.02
			C995.084,103.897,993.626,103.978,992.696,104.034z"/>
	</g>
</g>
</svg>
