<?xml version="1.0" encoding="utf-8"?>
<!-- Generator: Adobe Illustrator 16.0.0, SVG Export Plug-In . SVG Version: 6.00 Build 0)  -->
<!DOCTYPE svg PUBLIC "-//W3C//DTD SVG 1.1//EN" "http://www.w3.org/Graphics/SVG/1.1/DTD/svg11.dtd">
<svg version="1.1" id="Calque_1" xmlns="http://www.w3.org/2000/svg" xmlns:xlink="http://www.w3.org/1999/xlink" x="0px" y="0px"
	 width="199.182px" height="111.706px" viewBox="0 0 199.182 111.706" enable-background="new 0 0 199.182 111.706"
	 xml:space="preserve">
<g>
	<g>
		<path fill="none" d="M68.324,47.133c0-2.192,0.672-2.931,2.789-2.931c0.566,0,1.518,0.068,2.082,0.141v-2.543
			c-0.811-0.175-2.33-0.316-3.316-0.316c-3.604,0-5.33,1.836-5.33,5.682v2.121l-2.191,0.352v2.152h2.191v15.572h3.775V51.789h3.707
			v-2.503h-3.707V47.133z"/>
		<polygon fill="none" points="97.766,57.653 102.814,49.285 99.641,49.285 96.145,55.392 92.613,49.285 88.379,49.285 
			93.637,57.864 87.705,67.361 91.129,67.361 95.225,60.334 99.393,67.361 103.662,67.361 		"/>
		<path fill="none" d="M79.695,49.002c-1.697,0-3.113,0.247-4.838,0.777v2.684c1.377-0.391,2.539-0.566,3.775-0.566
			c2.117,0,2.963,0.848,2.963,2.896v1.87c0,0-3,0.068-4.41,0.211c-3.318,0.353-5.016,2.155-5.016,5.4c0,3.215,1.908,5.37,4.908,5.37
			c1.201,0,2.33-0.319,4.766-1.416l0.318,1.133h3.211V55.357c0-2.719-0.316-3.993-1.268-4.943
			C83.221,49.496,81.596,49.002,79.695,49.002z M81.596,64.079c-0.846,0.389-1.656,0.672-2.467,0.672
			c-2.051,0-3.107-0.958-3.107-2.865c0-1.551,0.848-2.54,2.574-2.787c0.848-0.141,3-0.213,3-0.213V64.079z"/>
		<path fill="none" d="M31.396,49.002c-1.693,0-3.105,0.247-4.838,0.777v2.684c1.381-0.391,2.545-0.566,3.777-0.566
			c2.123,0,2.967,0.848,2.967,2.896v1.87c0,0-3,0.068-4.412,0.211c-3.318,0.353-5.012,2.155-5.012,5.4
			c0,3.215,1.904,5.37,4.906,5.37c1.199,0,2.332-0.319,4.768-1.416l0.316,1.133h3.213V55.357c0-2.719-0.318-3.993-1.273-4.943
			C34.926,49.496,33.303,49.002,31.396,49.002z M33.303,64.079c-0.844,0.389-1.658,0.672-2.473,0.672
			c-2.045,0-3.105-0.958-3.105-2.865c0-1.551,0.846-2.54,2.578-2.787c0.848-0.141,3-0.213,3-0.213V64.079z"/>
		<path fill="#D6D6D6" d="M27.725,61.885c0,1.907,1.061,2.865,3.105,2.865c0.814,0,1.629-0.283,2.473-0.672v-5.193
			c0,0-2.152,0.072-3,0.213C28.57,59.345,27.725,60.334,27.725,61.885z"/>
		<polygon fill="none" points="10.428,67.361 14.381,67.361 14.381,55.852 21.654,55.852 21.654,52.954 14.381,52.954 
			14.381,45.328 23.455,45.328 23.455,42.438 10.428,42.438 		"/>
		<path fill="#D6D6D6" d="M76.021,61.885c0,1.907,1.057,2.865,3.107,2.865c0.811,0,1.621-0.283,2.467-0.672v-5.193
			c0,0-2.152,0.072-3,0.213C76.869,59.345,76.021,60.334,76.021,61.885z"/>
	</g>
	<path fill="#D5D5D5" d="M138.402,67.361v-22.1l-7.414,22.1h-2.436l-7.449-22.065v22.065h-2.26V42.438h3.602l7.377,21.85
		l7.131-21.85h3.744v24.923H138.402z"/>
	<path fill="#D5D5D5" d="M158.383,58.854h-10.666c0,4.834,1.941,6.848,6.037,6.848c1.023,0,2.684-0.177,4.096-0.458v1.87
		c-1.518,0.315-3.035,0.53-4.588,0.53c-5.721,0-7.803-3.427-7.803-8.862c0-6.46,2.824-9.497,6.92-9.497
		c4.52,0,6.109,3.317,6.109,7.344C158.488,57.157,158.383,58.854,158.383,58.854z M152.236,51.226c-2.506,0-4.305,2.224-4.482,5.684
		h8.475c0-0.247,0.033-0.704,0.033-0.951C156.262,52.954,154.887,51.226,152.236,51.226z"/>
	<path fill="#D5D5D5" d="M173.771,67.361l-0.248-0.921c-0.918,0.602-2.715,1.204-4.059,1.204c-5.969,0-7.838-4.343-7.838-8.934
		c0-4.624,2.119-9.425,7.908-9.425c1.273,0,2.719,0.458,3.885,1.093v-8.65h2.152v25.633H173.771z M173.42,52.53
		c-0.742-0.774-2.295-1.305-3.672-1.305c-3.674,0-5.896,2.825-5.896,7.376c0,4.238,1.73,7.1,5.967,7.1
		c1.094,0,2.508-0.389,3.602-0.951V52.53z"/>
	<path fill="#D5D5D5" d="M182.1,46.67c-0.773,0-1.41-0.245-1.41-1.693c0-1.45,0.672-1.729,1.447-1.729
		c0.777,0,1.447,0.248,1.447,1.693C183.584,46.39,182.881,46.67,182.1,46.67z M181.045,67.361V49.565h2.152v17.795H181.045z"/>
	<path fill="#D5D5D5" d="M197.596,67.361l-0.391-1.271c-2.256,1.271-3.35,1.554-5.047,1.554c-2.822,0-5.014-1.696-5.014-5.05
		c0-3.282,1.768-5.156,4.588-5.438c1.416-0.139,5.297-0.352,5.297-0.352v-2.086c0-2.256-0.811-3.493-3.461-3.493
		c-1.021,0-2.645,0.247-3.633,0.598v-1.869c0.846-0.318,2.506-0.67,3.92-0.67c1.797,0,3.209,0.494,3.951,1.233
		c0.814,0.846,1.375,1.98,1.375,4.839v12.004H197.596z M197.029,58.638c0,0-3.422,0.144-4.375,0.283
		c-2.404,0.354-3.318,1.589-3.318,3.353c0,2.156,0.951,3.428,3.457,3.428c1.201,0,3.393-0.883,4.236-1.59V58.638z"/>
	<g>
		<path fill="none" d="M31.396,49.002c-1.693,0-3.105,0.247-4.838,0.777v2.684c1.381-0.391,2.545-0.566,3.777-0.566
			c2.123,0,2.967,0.848,2.967,2.896v1.87c0,0-3,0.068-4.412,0.211c-3.318,0.353-5.012,2.155-5.012,5.4
			c0,3.215,1.904,5.37,4.906,5.37c1.199,0,2.332-0.319,4.768-1.416l0.316,1.133h3.213V55.357c0-2.719-0.318-3.993-1.273-4.943
			C34.926,49.496,33.303,49.002,31.396,49.002z"/>
		<path fill="none" d="M43.717,42.153c-1.518,0-2.33,0.812-2.33,2.329s0.775,2.294,2.295,2.294s2.33-0.81,2.33-2.332
			C46.012,42.929,45.234,42.153,43.717,42.153z"/>
		<path fill="none" d="M53.922,50.98l-0.32-1.695h-3.209v18.076h3.775V53.38c0.564-0.67,1.906-1.059,2.895-1.059
			c1.342,0,1.977,0.248,2.928,0.776v-3.318c-0.664-0.459-1.303-0.777-2.363-0.777C56.252,49.002,54.697,49.991,53.922,50.98z"/>
		<polygon fill="none" points="10.428,67.361 14.381,67.361 14.381,55.852 21.654,55.852 21.654,52.954 14.381,52.954 
			14.381,45.328 23.455,45.328 23.455,42.438 10.428,42.438 		"/>
		<path fill="none" d="M68.324,47.133c0-2.192,0.672-2.931,2.789-2.931c0.566,0,1.518,0.068,2.082,0.141v-2.543
			c-0.811-0.175-2.33-0.316-3.316-0.316c-3.604,0-5.33,1.836-5.33,5.682v2.121l-2.191,0.352v2.152h2.191v15.572h3.775V51.789h3.707
			v-2.503h-3.707V47.133z"/>
		<polygon fill="none" points="97.766,57.653 102.814,49.285 99.641,49.285 96.145,55.392 92.613,49.285 88.379,49.285 
			93.637,57.864 87.705,67.361 91.129,67.361 95.225,60.334 99.393,67.361 103.662,67.361 		"/>
		<path fill="none" d="M79.695,49.002c-1.697,0-3.113,0.247-4.838,0.777v2.684c1.377-0.391,2.539-0.566,3.775-0.566
			c2.117,0,2.963,0.848,2.963,2.896v1.87c0,0-3,0.068-4.41,0.211c-3.318,0.353-5.016,2.155-5.016,5.4c0,3.215,1.908,5.37,4.908,5.37
			c1.201,0,2.33-0.319,4.766-1.416l0.318,1.133h3.211V55.357c0-2.719-0.316-3.993-1.268-4.943
			C83.221,49.496,81.596,49.002,79.695,49.002z"/>
		<path fill="#D6D6D6" d="M55.852,0C25.006,0,0,25.009,0,55.857c0,30.845,25.006,55.849,55.852,55.849
			c30.848,0,55.855-25.004,55.855-55.849C111.707,25.009,86.699,0,55.852,0z M23.455,45.328h-9.074v7.625h7.273v2.898h-7.273v11.509
			h-3.953V42.438h13.027V45.328z M37.082,67.361h-3.213l-0.316-1.133c-2.436,1.097-3.568,1.416-4.768,1.416
			c-3.002,0-4.906-2.155-4.906-5.37c0-3.245,1.693-5.048,5.012-5.4c1.412-0.143,4.412-0.211,4.412-0.211v-1.87
			c0-2.048-0.844-2.896-2.967-2.896c-1.232,0-2.396,0.175-3.777,0.566v-2.684c1.732-0.53,3.145-0.777,4.838-0.777
			c1.906,0,3.529,0.494,4.412,1.412c0.955,0.951,1.273,2.225,1.273,4.943V67.361z M45.59,67.361h-3.777V49.285h3.777V67.361z
			 M43.682,46.777c-1.52,0-2.295-0.777-2.295-2.294s0.812-2.329,2.33-2.329s2.295,0.776,2.295,2.292
			C46.012,45.967,45.201,46.777,43.682,46.777z M59.99,53.097c-0.951-0.528-1.586-0.776-2.928-0.776
			c-0.988,0-2.33,0.389-2.895,1.059v13.98h-3.775V49.285h3.209l0.32,1.695c0.775-0.989,2.33-1.978,3.705-1.978
			c1.061,0,1.699,0.317,2.363,0.777V53.097z M72.031,51.789h-3.707v15.572h-3.775V51.789h-2.191v-2.152l2.191-0.352v-2.121
			c0-3.846,1.727-5.682,5.33-5.682c0.986,0,2.506,0.141,3.316,0.316v2.543c-0.564-0.073-1.516-0.141-2.082-0.141
			c-2.117,0-2.789,0.739-2.789,2.931v2.152h3.707V51.789z M85.373,67.361h-3.211l-0.318-1.133c-2.436,1.097-3.564,1.416-4.766,1.416
			c-3,0-4.908-2.155-4.908-5.37c0-3.245,1.697-5.048,5.016-5.4c1.41-0.143,4.41-0.211,4.41-0.211v-1.87
			c0-2.048-0.846-2.896-2.963-2.896c-1.236,0-2.398,0.175-3.775,0.566v-2.684c1.725-0.53,3.141-0.777,4.838-0.777
			c1.9,0,3.525,0.494,4.41,1.412c0.951,0.951,1.268,2.225,1.268,4.943V67.361z M95.225,60.334l-4.096,7.026h-3.424l5.932-9.497
			l-5.258-8.579h4.234l3.531,6.107l3.496-6.107h3.174l-5.049,8.368l5.896,9.708h-4.27L95.225,60.334z"/>
	</g>
</g>
</svg>
