<?xml version="1.0" encoding="utf-8"?>
<!-- Generator: Adobe Illustrator 16.0.0, SVG Export Plug-In . SVG Version: 6.00 Build 0)  -->
<!DOCTYPE svg PUBLIC "-//W3C//DTD SVG 1.1//EN" "http://www.w3.org/Graphics/SVG/1.1/DTD/svg11.dtd">
<svg version="1.1" id="Calque_1" xmlns="http://www.w3.org/2000/svg" xmlns:xlink="http://www.w3.org/1999/xlink" x="0px" y="0px"
	 width="108.553px" height="107.166px" viewBox="0 0 108.553 107.166" enable-background="new 0 0 108.553 107.166"
	 xml:space="preserve">
<g id="svg_2_1_">
	<path id="svg_3_1_" fill="#D5D5D5" d="M52.303,0.224c-0.801,0.211-1.459,0.505-1.996,0.888c-0.664,0.483-1.342,0.813-2.404,1.168
		c-2.076,0.682-4.121,0.759-6.289,0.22c-0.99-0.248-1.307-0.292-2.123-0.236c-1.768,0.107-3.475,0.838-4.555,1.94
		c-0.352,0.366-0.963,1.006-1.381,1.44c-1.688,1.823-4.279,3.032-6.846,3.208c-1.773,0.118-2.797,0.471-4.066,1.37
		c-1.209,0.87-1.951,1.845-2.49,3.292c-0.963,2.593-3.406,5.091-5.811,5.96c-2.338,0.847-4.17,2.548-4.807,4.47
		c-0.213,0.643-0.219,0.838-0.176,3.486l0.039,2.81l-0.635,0.688c-0.352,0.367-1.113,1.062-1.693,1.515
		c-0.594,0.47-1.309,1.036-1.604,1.268c-0.287,0.239-0.908,0.685-1.379,0.979c-1.037,0.668-2.625,2.224-3.17,3.114
		C0.465,38.564,0,39.637,0,39.961c0,0.154,0.162,0.285,0.602,0.478c1.113,0.504,5.887,2.043,7.635,2.478
		c8.48,2.083,17.273,1.803,28.885-0.949c3.93-0.932,7.998-2.097,15.236-4.368c11.74-3.677,15.221-4.67,20.307-5.798
		c6.203-1.366,10.934-1.885,16.162-1.775c2.82,0.055,4.426,0.2,6.889,0.613c1.322,0.22,4.332,0.932,4.918,1.152
		c0.174,0.063,0.332,0.084,0.35,0.063c0.029-0.027-0.096-0.266-0.277-0.522c-1.045-1.539-1.807-3.761-1.807-5.313
		c0-1.342-0.602-2.988-1.561-4.222c-0.83-1.1-1.969-1.85-3.641-2.46c-1.148-0.407-3.105-1.991-4.068-3.263
		c-0.684-0.92-0.988-1.451-1.443-2.593c-0.496-1.239-1.178-2.204-2.086-2.96c-1.342-1.105-2.506-1.539-4.705-1.727
		c-2.562-0.223-5.33-1.58-6.824-3.361c-1.129-1.34-1.816-1.928-2.83-2.431c-1.254-0.602-2.436-0.848-3.684-0.761
		c-0.494,0.031-1.092,0.129-1.34,0.214c-2.311,0.83-6.189,0.286-8.373-1.155c-0.9-0.596-1.674-0.951-2.52-1.15
		c-0.912-0.224-2.592-0.19-3.523,0.054L52.303,0.224z M53.938,7.58c0.232,0.2,0.293,0.334,0.293,0.698
		c0,0.363-0.061,0.5-0.293,0.695c-0.641,0.556-1.549,0.137-1.549-0.695C52.389,7.442,53.301,7.026,53.938,7.58z M57.229,7.706
		c0.541,0.61,0.127,1.526-0.701,1.526c-0.664,0-1.119-0.666-0.869-1.276C55.938,7.307,56.748,7.177,57.229,7.706z M50.732,7.808
		c0.465,0.45,0.279,1.308-0.34,1.545c-0.391,0.148-0.945-0.066-1.145-0.438c-0.223-0.438-0.203-0.679,0.115-1.05
		C49.727,7.427,50.34,7.398,50.732,7.808z M60.4,7.903c0.645,0.563,0.221,1.655-0.645,1.655c-0.496,0-0.914-0.434-0.914-0.943
		C58.855,7.766,59.756,7.354,60.4,7.903z M47.467,8.137c0.436,0.275,0.451,1,0.033,1.421c-0.141,0.132-0.363,0.214-0.637,0.214
		c-1.066,0-1.314-1.401-0.322-1.79c0.297-0.115,0.574-0.062,0.922,0.157L47.467,8.137z M63.652,8.503
		c0.449,0.522,0.336,1.11-0.252,1.426c-0.451,0.23-0.719,0.201-1.064-0.148c-0.629-0.626-0.236-1.602,0.641-1.602
		c0.322,0,0.467,0.062,0.682,0.331L63.652,8.503z M44.373,8.865c0.596,0.594,0.17,1.545-0.688,1.545
		c-0.545,0-0.951-0.399-0.951-0.907c0-0.804,1.061-1.218,1.643-0.638H44.373z M66.66,9.083c0.359,0.249,0.475,0.642,0.332,1.074
		c-0.32,0.984-1.795,0.742-1.795-0.314C65.197,9.075,66.031,8.641,66.66,9.083z M41.238,9.712c0.816,0.874-0.451,2.142-1.322,1.328
		c-0.365-0.341-0.371-0.967,0-1.328C40.279,9.343,40.906,9.353,41.238,9.712z M69.877,10.18c0.17,0.176,0.301,0.412,0.301,0.537
		c0,0.554-0.52,1.063-1.062,1.063c-0.369,0-0.836-0.563-0.836-1.009c0-0.841,0.977-1.207,1.6-0.591H69.877z M38.195,10.823
		c0.277,0.286,0.314,0.38,0.258,0.715c-0.082,0.489-0.494,0.872-0.928,0.872c-0.453,0-0.945-0.506-0.945-0.976
		C36.59,10.564,37.566,10.197,38.195,10.823z M72.875,11.3c0.41,0.381,0.391,0.993-0.053,1.367c-0.51,0.437-1.127,0.324-1.428-0.251
		c-0.482-0.942,0.686-1.83,1.473-1.109L72.875,11.3z M35.213,12.085c0.211,0.216,0.309,0.41,0.309,0.649
		c0,0.417-0.504,0.945-0.904,0.945c-0.922,0-1.34-0.945-0.701-1.597c0.215-0.219,0.412-0.306,0.646-0.306
		c0.23,0,0.434,0.097,0.643,0.306L35.213,12.085z M75.805,12.723c0.213,0.217,0.307,0.417,0.307,0.648
		c0,0.418-0.498,0.945-0.902,0.945c-0.594,0-0.992-0.378-0.992-0.945C74.217,12.491,75.182,12.104,75.805,12.723z M32.113,13.425
		c0.875,0.455,0.561,1.747-0.438,1.747c-0.992,0-1.307-1.271-0.418-1.735C31.615,13.23,31.738,13.23,32.113,13.425z M78.367,14.134
		c0.365,0.191,0.49,0.411,0.5,0.859c0.008,1.061-1.387,1.286-1.803,0.291C76.732,14.496,77.6,13.723,78.367,14.134z M29.418,15.132
		c0.221,0.084,0.479,0.591,0.479,0.941c0,0.436-0.434,0.797-0.951,0.797c-0.568,0-0.947-0.361-0.947-0.901
		c0-0.679,0.715-1.105,1.428-0.833L29.418,15.132z M81.273,16.06c0.23,0.204,0.293,0.341,0.293,0.701s-0.062,0.5-0.293,0.701
		c-0.646,0.553-1.545,0.135-1.562-0.709C79.711,15.936,80.635,15.521,81.273,16.06z M27.016,17.252
		c0.539,0.613,0.127,1.529-0.711,1.529c-0.338,0-0.465-0.063-0.688-0.332c-0.146-0.179-0.277-0.411-0.277-0.523
		c0-0.368,0.252-0.771,0.582-0.915c0.41-0.175,0.787-0.099,1.094,0.234V17.252z M83.85,18.038c0.475,0.476,0.393,1.177-0.191,1.512
		c-0.92,0.544-1.863-0.652-1.135-1.453C82.854,17.75,83.516,17.704,83.85,18.038z M24.506,19.298
		c0.217,0.217,0.309,0.417,0.309,0.648c0,0.42-0.504,0.951-0.902,0.951c-0.924,0-1.338-0.951-0.701-1.606
		c0.213-0.215,0.41-0.305,0.645-0.305c0.232,0,0.439,0.099,0.645,0.305L24.506,19.298z M86.086,20.054
		c0.311,0.17,0.541,0.715,0.467,1.071c-0.084,0.367-0.508,0.729-0.867,0.729c-0.334,0-0.834-0.267-0.928-0.478
		c-0.102-0.292-0.055-0.836,0.08-1.02c0.291-0.379,0.848-0.52,1.248-0.308V20.054z M22.184,21.496
		c0.414,0.386,0.297,1.381-0.176,1.574c-1.174,0.445-2.012-1.081-0.918-1.689c0.33-0.175,0.812-0.129,1.105,0.115H22.184z
		 M88.527,22.591c0.217,0.217,0.309,0.409,0.309,0.641c0,0.235-0.098,0.436-0.309,0.645c-0.211,0.217-0.406,0.311-0.643,0.311
		c-0.234,0-0.432-0.102-0.645-0.311c-0.211-0.217-0.307-0.41-0.307-0.645c0-0.232,0.102-0.435,0.307-0.641
		c0.215-0.217,0.41-0.308,0.645-0.308C88.121,22.283,88.32,22.382,88.527,22.591z M19.836,23.816
		c0.371,0.192,0.582,0.753,0.434,1.15c-0.365,0.965-1.809,0.695-1.809-0.334c0-0.785,0.672-1.192,1.387-0.816H19.836z
		 M90.363,24.839c0.338,0.157,0.627,0.737,0.527,1.1c-0.102,0.371-0.527,0.685-0.961,0.685c-0.85,0-1.207-1.075-0.551-1.627
		C89.736,24.688,89.959,24.655,90.363,24.839z M18.061,26.48c0.387,0.369,0.336,1.147-0.119,1.495c-0.529,0.409-1.5-0.071-1.5-0.756
		C16.441,26.374,17.432,25.931,18.061,26.48z M92.5,27.632c0.379,0.371,0.371,1.031-0.02,1.388
		c-0.242,0.234-0.369,0.261-0.721,0.217c-0.521-0.071-0.795-0.379-0.795-0.945c0-0.546,0.365-0.927,0.902-0.927
		c0.264,0,0.467,0.085,0.641,0.262L92.5,27.632z M16.281,29.234c0.484,0.492,0.316,1.251-0.365,1.525
		c-0.596,0.248-1.27-0.23-1.27-0.915C14.646,29.042,15.682,28.655,16.281,29.234z M14.662,32.017
		c0.621,0.629,0.23,1.591-0.656,1.599c-0.523,0-0.949-0.407-0.949-0.915c0-0.485,0.479-0.987,0.951-0.987
		c0.236,0,0.436,0.093,0.646,0.303H14.662z M13.279,34.989c0.168,0.173,0.309,0.406,0.309,0.544c0,0.363-0.285,0.797-0.613,0.94
		c-0.932,0.395-1.732-0.8-1.021-1.515C12.346,34.562,12.871,34.587,13.279,34.989z M11.883,37.812
		c0.875,0.445,0.518,1.748-0.488,1.748c-0.848,0-1.205-1.083-0.551-1.635C11.211,37.61,11.457,37.589,11.883,37.812z M10.816,40.84
		c0.99,0.352,0.682,1.795-0.381,1.795c-0.961,0-1.219-1.443-0.303-1.809C10.426,40.697,10.426,40.697,10.816,40.84z"/>
	<path id="svg_4_1_" fill="#D5D5D5" d="M84.434,31.024c-0.23,0.016-1.014,0.099-1.744,0.148c-6.508,0.571-13.633,2.221-25.516,5.946
		c-1.477,0.451-3.891,1.22-5.35,1.673c-14.055,4.402-21.41,5.977-29.668,6.392c-4.939,0.25-10.209-0.276-14.689-1.454
		c-0.834-0.221-5.801-1.834-6.531-2.122c-0.18-0.075-0.18,0.526-0.16,13.573l0.029,13.665l0.248,0.836
		c0.305,1.11,0.834,2.051,1.369,2.46c0.568,0.438,2.639,1.314,4.748,2.004c2.658,0.877,5.594,1.504,8.799,1.877
		c1.842,0.221,8.055,0.179,10.225-0.055c7.258-0.8,13.66-2.32,26.287-6.289c9.783-3.079,12.33-3.832,16.766-4.967
		c12.805-3.25,22.912-3.639,31.939-1.221c0.963,0.25,5.668,1.789,6.34,2.066c0.172,0.074,0.178-0.596,0.178-13.181
		c0-11.286-0.02-13.373-0.162-14.143c-0.303-1.784-0.891-2.872-1.855-3.436c-1.174-0.709-4.758-1.993-7.254-2.619
		c-3.562-0.88-5.746-1.139-10.07-1.18c-1.918-0.014-3.682-0.014-3.918,0.014L84.434,31.024z M92.959,36.312
		c-0.25,1.068-0.773,4.662-0.996,6.889c-0.238,2.478-0.336,3.714-0.307,3.741c0.018,0.02,0.193-0.2,0.381-0.497
		c1.422-2.095,4.066-4.613,5.084-4.835c0.744-0.165,0.844,0.426,0.514,3.414c-0.264,2.458-0.246,3.084,0.158,3.482l0.246,0.25
		l-0.215,0.292c-0.635,0.832-2.025,2.056-2.174,1.896c-0.113-0.115-0.037-2.897,0.129-4.337c0.172-1.545,0.205-2.488,0.102-2.767
		c-0.236-0.601-1.971,0.74-3.01,2.315c-0.619,0.957-0.998,2.089-1.225,3.659c-0.172,1.193-0.176,1.231-0.566,1.575
		c-0.486,0.45-1.09,0.83-1.42,0.918l-0.254,0.061l0.141-1.836c0.328-4.358,1-10.102,1.445-12.221
		c0.324-1.485,0.482-1.865,0.957-2.222c0.363-0.278,1.131-0.712,1.191-0.657c0.008,0.008-0.066,0.403-0.182,0.868V36.312
		L92.959,36.312z M69.334,40.868c0,0.207-1.197,1.473-1.656,1.751c-0.465,0.296-2.027,0.813-4.41,1.5
		c-4.145,1.165-5.201,1.481-6.408,1.924c-0.699,0.253-1.279,0.425-1.305,0.368c-0.062-0.169,0.711-1.239,1.355-1.879
		c0.721-0.718,0.641-0.682,6.424-2.169c2.16-0.556,4.381-1.147,4.926-1.328c0.551-0.17,1.023-0.319,1.037-0.319
		c0.014-0.013,0.016,0.062,0.016,0.149L69.334,40.868z M87.826,44.34c-0.094,0.301-0.434,0.871-0.613,1.014
		c-0.082,0.08-0.305,0.062-0.711-0.038c-1.699-0.451-3.549,1.005-2.521,1.971c0.137,0.112,0.787,0.388,1.463,0.59
		c1.453,0.455,2.053,0.775,2.301,1.238c0.219,0.448,0.219,1.097-0.021,1.561c-0.26,0.517-1.689,1.889-2.404,2.312
		c-1.32,0.789-2.957,1.095-3.83,0.718c-0.428-0.176-0.807-0.635-0.807-0.988c0-0.34,0.277-0.985,0.553-1.269
		c0.291-0.311,0.332-0.311,0.484,0.055c0.182,0.41,0.717,0.948,1.211,1.198c1.178,0.599,2.938-0.252,3.115-1.528
		c0.105-0.728-0.424-1.19-1.963-1.666c-0.566-0.176-1.207-0.423-1.445-0.565c-0.506-0.287-0.824-0.833-0.754-1.307
		c0.217-1.462,3.365-3.5,5.449-3.524c0.539-0.014,0.566,0,0.5,0.22v0.009H87.826z M60.604,45.98
		c-0.297,1.037-1.176,5.432-1.09,5.502c0.055,0.057,3.793-0.928,6.039-1.574c0.803-0.236,1.238-0.319,1.238-0.245
		c0,0.331-0.76,1.179-1.318,1.46c-0.615,0.318-3.293,1.27-4.869,1.734c-1.061,0.318-1.377,0.454-1.445,0.624
		c-0.113,0.311-0.404,2.942-0.479,4.489l-0.076,1.303l-0.594,0.531c-0.76,0.684-2.008,1.527-2.098,1.438
		c-0.105-0.113,0.148-3.037,0.443-5.156c0.543-3.803,1.455-8.427,1.734-8.724c0.408-0.456,2.154-1.558,2.479-1.558
		c0.053,0,0.072,0.084,0.041,0.175H60.604L60.604,45.98z M79.65,46.085c0.35,0.322,0.174,1.194-0.404,2.006
		c-0.76,1.083-2.08,2.23-3.205,2.788c-0.441,0.223-0.453,0.245-0.453,0.731c0,0.699,0.277,1.566,0.57,1.768
		c0.314,0.223,0.982,0.206,1.514-0.058c0.52-0.246,1.557-1.314,2.139-2.187c0.318-0.483,0.393-0.552,0.457-0.378
		c0.145,0.368,0.096,0.571-0.355,1.178c-1.045,1.441-2.982,3.057-4.176,3.478c-0.451,0.159-0.59,0.17-0.859,0.05
		c-0.828-0.336-1.207-2.327-0.828-4.324c0.244-1.302,0.857-2.432,1.896-3.472c1.504-1.532,3.029-2.166,3.701-1.573L79.65,46.085z
		 M44.869,47.877c-0.691,2.714-1.312,8.153-1.461,12.7l-0.064,2.098l-0.525,0.42c-0.477,0.371-1.236,0.83-1.398,0.83
		c-0.215,0,0.215-5.544,0.699-9.159c0.379-2.825,0.988-5.918,1.307-6.674c0.168-0.403,0.496-0.698,1.123-1.058
		c0.596-0.341,0.609-0.277,0.332,0.844H44.869L44.869,47.877z M73.689,47.729c0,0.138-0.158,0.553-0.35,0.924
		c-0.338,0.679-0.338,0.679-1.078,0.918c-0.627,0.192-0.83,0.333-1.27,0.803c-0.932,1.009-1.529,2.375-2.016,4.651
		c-0.223,1.091-0.287,1.239-0.602,1.518c-0.318,0.271-1.363,0.834-1.43,0.758c-0.008-0.01,0.066-0.668,0.176-1.448
		c0.254-1.756,0.451-4.562,0.367-5.378c-0.061-0.603-0.061-0.603,0.393-1.065c0.252-0.252,0.697-0.628,0.994-0.819l0.529-0.359
		l0.084,0.241c0.086,0.226,0.02,2.463-0.096,3.042c-0.061,0.319-0.148,0.427,1.031-1.366c1.146-1.751,2.154-2.639,2.984-2.661
		c0.221,0,0.289,0.052,0.289,0.234L73.689,47.729z M40.119,48.84c-0.73,3.031-1.336,8.196-1.48,12.75l-0.066,2.066l-0.369,0.354
		c-0.359,0.332-1.354,0.973-1.547,0.973c-0.221,0,0.25-6.062,0.742-9.596c0.312-2.175,0.803-4.748,1.111-5.797
		c0.172-0.6,0.291-0.776,0.656-1.07c0.418-0.338,1-0.698,1.148-0.708c0.031,0-0.041,0.464-0.186,1.028H40.119L40.119,48.84z
		 M28.508,50.379c-0.26,1.157-0.76,4.25-1.027,6.444c-0.338,2.783-0.447,4.425-0.48,7.25l-0.047,2.64l-0.352,0.362
		c-0.402,0.424-1.586,1.24-2.125,1.46l-0.369,0.159l-0.084-0.717c-0.127-1.251,0.176-7.4,0.447-8.637l0.061-0.297l-0.73,0.461
		c-0.391,0.27-0.949,0.6-1.258,0.734c-0.609,0.308-3.012,1.11-5.602,1.881c-0.973,0.291-1.789,0.535-1.811,0.562
		c-0.072,0.097-0.391,3.752-0.449,5.205l-0.057,1.674l-0.529,0.466c-0.562,0.509-1.883,1.353-2.297,1.481l-0.25,0.075l0.062-1.573
		c0.061-1.467,0.363-4.299,0.613-5.854c0.055-0.369,0.086-0.691,0.074-0.701c-0.02-0.021-0.615,0.142-1.34,0.365
		c-1.484,0.457-1.473,0.457-0.832-0.609c0.498-0.834,0.877-1.139,1.719-1.389l0.742-0.221l0.287-1.748
		c0.158-0.965,0.484-2.781,0.729-4.021l0.436-2.257l0.553-0.346c0.582-0.398,2.385-1.212,2.473-1.122
		c0.031,0.03-0.076,0.563-0.223,1.196c-0.615,2.605-1.521,7.411-1.418,7.51c0.055,0.047,6.854-1.701,8.465-2.176l0.695-0.222
		l0.121-0.868c0.07-0.483,0.328-2.123,0.568-3.64c0.426-2.66,0.445-2.767,0.754-3.056c0.32-0.294,2.314-1.344,2.566-1.344
		c0.102,0,0.082,0.204-0.076,0.872H28.508L28.508,50.379z M51.799,52.926c0.686,0.306,0.99,1.936,0.645,3.411
		c-0.551,2.33-2.521,4.938-4.494,5.939c-1.572,0.8-2.246,0.262-2.338-1.82c-0.09-2.262,0.713-4.079,2.631-5.945
		c1.369-1.336,2.752-1.955,3.555-1.578L51.799,52.926z M34.584,56.712c0.203,0.174,0.252,0.297,0.232,0.682
		c-0.041,1.19-1.615,2.979-3.549,4.036l-0.713,0.394l0.062,0.553c0.131,1.376,0.453,1.874,1.195,1.874
		c0.848,0,1.844-0.771,2.914-2.269l0.521-0.733l0.084,0.343c0.135,0.454-0.262,1.018-1.656,2.404
		c-1.146,1.134-2.127,1.846-2.963,2.125c-0.473,0.154-0.559,0.154-0.863,0.01c-0.646-0.307-0.953-1.459-0.871-3.252
		c0.055-1.305,0.305-2.174,0.889-3.172c0.744-1.24,2.195-2.51,3.428-2.988c0.621-0.246,0.973-0.246,1.275,0L34.584,56.712z"/>
	<path id="svg_5_1_" fill="#D5D5D5" d="M77.018,47.343c-0.484,0.251-0.758,0.553-0.984,1.081c-0.23,0.536-0.508,1.79-0.412,1.888
		c0.086,0.086,1.121-0.463,1.738-0.921c0.643-0.486,0.879-0.871,0.879-1.448c0-0.704-0.531-0.957-1.223-0.6H77.018z"/>
	<path id="svg_6_1_" fill="#D5D5D5" d="M49.123,54.447c-0.195,0.099-0.543,0.38-0.789,0.646c-1.062,1.146-1.428,3.084-0.877,4.715
		c0.609,1.894,2.779,0.715,3.381-1.848c0.291-1.278,0.148-2.793-0.336-3.364C50.191,54.23,49.684,54.171,49.123,54.447z"/>
	<path id="svg_7_1_" fill="#D5D5D5" d="M32.107,57.972c-0.395,0.156-0.932,0.797-1.137,1.344c-0.244,0.641-0.422,1.807-0.258,1.731
		c0.055-0.03,0.361-0.187,0.715-0.358c1.496-0.758,2.211-1.848,1.693-2.577c-0.16-0.23-0.627-0.308-1.02-0.151L32.107,57.972z"/>
	<path id="svg_8_1_" fill="#D5D5D5" d="M85.182,62.982c-3.254,0.203-7.633,0.833-11.377,1.644c-4.768,1.018-9.432,2.32-18.25,5.1
		c-11.562,3.637-16.092,4.893-21.309,5.954c-5.666,1.148-9.877,1.572-14.619,1.46c-4.393-0.094-8.307-0.686-11.773-1.758
		c-0.365-0.117-0.701-0.205-0.711-0.176c-0.018,0.016,0.137,0.285,0.354,0.6c1.027,1.502,1.664,3.403,1.834,5.402
		c0.156,2.072,0.711,3.325,2.078,4.705c0.816,0.836,1.422,1.229,2.477,1.616c2.664,0.962,4.984,3.252,6.119,6.04
		c0.498,1.223,0.627,1.445,1.248,2.188c0.596,0.709,1.553,1.414,2.551,1.877c0.998,0.471,1.564,0.604,2.9,0.686
		c2.436,0.159,5.516,1.658,6.918,3.352c1.01,1.225,1.832,1.951,2.758,2.402c1.109,0.541,1.896,0.755,3.111,0.834
		c0.838,0.059,1.094,0.02,2.07-0.244c1.018-0.273,1.264-0.293,2.812-0.293c1.471,0.012,1.818,0.043,2.701,0.289
		c1.227,0.328,2.131,0.741,3.131,1.385c1.037,0.689,2.158,1.033,3.566,1.109c1.852,0.08,2.857-0.22,4.818-1.426
		c0.988-0.616,2.139-1.028,3.564-1.273c1.309-0.22,3.211-0.145,4.326,0.174c1.516,0.434,2.906,0.393,4.486-0.16
		c1.096-0.393,1.822-0.859,2.621-1.685c1.762-1.85,2.27-2.301,3.084-2.815c1.688-1.027,3.205-1.527,5.299-1.688
		c1.893-0.165,3.236-0.758,4.52-2.006c0.77-0.734,1.262-1.486,1.713-2.643c1.08-2.702,3.252-4.917,5.885-5.965
		c1.281-0.525,1.516-0.648,2.201-1.209c1.531-1.243,2.627-3.48,2.627-5.318c0-2.261,1.455-5.378,3.262-7.051
		c0.371-0.339,1.223-0.975,1.867-1.398c2.27-1.508,3.572-3.012,4.252-4.906l0.256-0.73l-0.66-0.311
		c-0.965-0.445-6.059-2.111-7.604-2.491c-4.893-1.188-9.83-1.6-15.104-1.267h-0.004V62.982z M98.637,64.827
		c0.488,0.48,0.232,1.424-0.426,1.578c-0.357,0.1-0.941-0.19-1.1-0.531c-0.176-0.398-0.145-0.621,0.158-0.986
		C97.635,64.454,98.25,64.423,98.637,64.827z M97.689,67.902c0.379,0.366,0.359,0.93-0.041,1.339
		c-0.174,0.168-0.416,0.306-0.543,0.306c-0.623,0-1.148-0.626-0.994-1.21C96.273,67.666,97.205,67.402,97.689,67.902z
		 M73.861,71.528c-0.135,3.205-1.271,7.432-2.875,10.688c-2.65,5.391-6.713,8.838-11.943,10.125
		c-3.178,0.77-6.072,0.684-8.584-0.254c-1.393-0.524-2.436-1.182-3.68-2.312c-0.623-0.565-1.203-1.029-1.312-1.037
		c-0.25,0-1.018,0.9-1.383,1.659c-0.182,0.368-0.363,0.671-0.396,0.671c-0.027,0-0.129-0.338-0.223-0.758l-0.168-0.748l0.455-0.801
		c0.711-1.25,0.801-1.938,0.51-3.785c-0.352-2.183-0.055-4.268,0.914-6.297c0.521-1.078,0.887-1.641,1.725-2.532
		c1.707-1.819,4.148-3.087,7.184-3.757c0.967-0.201,1.297-0.221,3.104-0.166c1.309,0.031,2.975,0.166,4.678,0.388
		c3.332,0.415,5.828,0.513,7.326,0.289c1.963-0.306,3.285-0.974,4.08-2.063c0.252-0.365,0.508-0.645,0.562-0.645
		c0.055-0.014,0.061,0.572,0.033,1.336H73.861L73.861,71.528z M96.482,70.913c0.404,0.412,0.42,0.932,0.027,1.328
		c-0.391,0.393-0.916,0.365-1.322-0.033c-0.352-0.363-0.393-0.729-0.129-1.135C95.408,70.536,96.021,70.472,96.482,70.913z
		 M94.936,73.634c0.211,0.092,0.48,0.6,0.48,0.933c0,0.149-0.119,0.396-0.256,0.567c-0.305,0.361-0.973,0.414-1.328,0.101
		c-0.414-0.396-0.379-1.157,0.094-1.515c0.176-0.138,0.729-0.18,1.012-0.077L94.936,73.634z M93.594,76.708
		c0.52,0.602,0.094,1.531-0.721,1.531c-0.994,0-1.314-1.262-0.451-1.748C92.807,76.274,93.285,76.376,93.594,76.708z M17.236,78.181
		c0.277,0.256,0.371,0.756,0.217,1.171c-0.092,0.195-0.586,0.479-0.895,0.479c-0.623,0-1.061-0.722-0.803-1.328
		c0.268-0.635,0.982-0.783,1.488-0.321H17.236L17.236,78.181z M91.76,79.363c0.344,0.368,0.352,0.888,0.035,1.253
		c-0.756,0.857-2.059-0.066-1.527-1.083c0.191-0.371,0.293-0.425,0.832-0.435c0.309-0.014,0.465,0.057,0.658,0.265H91.76z
		 M19.154,80.833c0.371,0.366,0.365,0.988,0,1.328c-0.6,0.564-1.574,0.127-1.574-0.703C17.58,80.675,18.6,80.262,19.154,80.833z
		 M89.75,81.892c0.512,0.5,0.264,1.436-0.424,1.605c-0.637,0.16-1.307-0.481-1.164-1.133C88.32,81.673,89.25,81.386,89.75,81.892z
		 M21.238,83.318c0.211,0.215,0.307,0.409,0.307,0.644c0,0.453-0.5,0.953-0.955,0.953s-0.947-0.5-0.947-0.953
		c0-0.234,0.094-0.435,0.307-0.644c0.211-0.214,0.408-0.303,0.641-0.303S21.023,83.115,21.238,83.318z M87.631,84.347
		c0.666,0.715-0.123,1.896-1.008,1.529c-0.584-0.244-0.775-0.796-0.482-1.381c0.182-0.35,0.291-0.404,0.834-0.41
		C87.277,84.069,87.436,84.142,87.631,84.347z M23.492,85.611c0.203,0.192,0.275,0.366,0.275,0.654
		c-0.012,1.083-1.289,1.345-1.787,0.372c-0.451-0.873,0.783-1.708,1.512-1.031V85.611z M85.289,86.579
		c0.396,0.39,0.371,0.912-0.029,1.321c-0.219,0.215-0.408,0.309-0.646,0.309c-0.449,0-0.949-0.501-0.949-0.952
		c0-0.234,0.1-0.434,0.309-0.643c0.406-0.406,0.934-0.426,1.322-0.033L85.289,86.579z M25.977,87.846
		c0.531,0.595,0.1,1.528-0.709,1.528c-0.426-0.011-0.656-0.148-0.836-0.5C23.904,87.888,25.229,87.002,25.977,87.846z
		 M82.854,88.747c0.352,0.413,0.352,0.756-0.016,1.166c-0.83,0.924-2.162-0.233-1.389-1.221c0.172-0.219,0.307-0.277,0.682-0.277
		c0.379,0,0.506,0.059,0.729,0.332H82.854z M28.262,89.61c0.346,0.174,0.486,0.407,0.486,0.825c0,0.571-0.406,0.952-1,0.952
		c-0.4,0-0.896-0.531-0.896-0.952C26.852,89.755,27.656,89.286,28.262,89.61z M80.217,90.598c0.566,0.55,0.16,1.536-0.627,1.536
		c-0.51,0-0.686-0.088-0.857-0.435c-0.219-0.434-0.191-0.761,0.107-1.091C79.188,90.227,79.844,90.213,80.217,90.598z M31,91.392
		c0.355,0.201,0.549,0.701,0.406,1.11c-0.35,1.062-1.789,0.83-1.803-0.294c0-0.701,0.756-1.146,1.387-0.816H31L31,91.392z
		 M77.457,92.296c0.482,0.461,0.309,1.221-0.33,1.496c-0.945,0.403-1.73-0.805-0.992-1.545c0.309-0.309,0.992-0.291,1.322,0.055
		V92.296L77.457,92.296z M33.764,93.007c0.355,0.177,0.486,0.408,0.486,0.826c0,0.568-0.4,0.951-0.992,0.951
		c-0.398,0-0.898-0.527-0.898-0.951C32.359,93.157,33.162,92.681,33.764,93.007z M74.586,93.792
		c0.393,0.403,0.381,0.912-0.043,1.338c-0.285,0.275-0.381,0.322-0.723,0.265c-0.822-0.138-1.129-0.998-0.562-1.571
		C73.67,93.415,74.191,93.396,74.586,93.792z M36.711,94.363c0.25,0.135,0.525,0.642,0.525,0.948c0,0.371-0.564,0.853-0.986,0.853
		c-0.51,0-0.924-0.427-0.924-0.956C35.326,94.526,36.109,94.045,36.711,94.363z M71.586,95.089c0.639,0.648,0.221,1.602-0.701,1.602
		c-0.404,0-0.906-0.523-0.906-0.949c0-0.232,0.102-0.434,0.312-0.642c0.42-0.415,0.871-0.415,1.293,0v-0.011H71.586z M39.893,95.732
		c0.406,0.407,0.422,0.932,0.029,1.323c-0.391,0.395-0.916,0.369-1.322-0.031c-0.33-0.341-0.383-0.657-0.164-1.062
		C38.768,95.378,39.424,95.276,39.893,95.732z M68.588,96.186c0.326,0.319,0.318,0.962-0.037,1.304
		c-0.709,0.72-1.918-0.086-1.527-1.028C67.273,95.858,68.078,95.716,68.588,96.186z M42.949,96.647
		c0.941,0.786-0.223,2.183-1.188,1.424c-0.516-0.406-0.451-1.223,0.125-1.539C42.297,96.312,42.582,96.343,42.949,96.647z
		 M65.1,96.808c0.629,0.225,0.832,1.031,0.379,1.514c-0.551,0.6-1.641,0.219-1.641-0.564c0-0.553,0.189-0.776,0.908-1.066
		C64.764,96.69,64.912,96.747,65.1,96.808z M46.148,97.425c0.408,0.407,0.426,0.934,0.033,1.323
		c-0.783,0.783-2.098-0.286-1.461-1.192C45.084,97.035,45.705,96.989,46.148,97.425z M61.984,97.48
		c0.965,0.401,0.682,1.761-0.371,1.761c-1.045,0-1.342-1.336-0.391-1.752C61.646,97.302,61.559,97.312,61.984,97.48z M49.355,97.925
		c0.672,0.668,0.1,1.761-0.832,1.593c-0.479-0.102-0.742-0.418-0.742-0.935C47.781,97.75,48.768,97.332,49.355,97.925z
		 M58.74,97.868c0.959,0.341,0.695,1.795-0.33,1.795c-1.068,0-1.311-1.459-0.297-1.836C58.344,97.739,58.367,97.739,58.74,97.868z
		 M52.648,98.294c0.309,0.361,0.328,0.454,0.158,0.916c-0.221,0.643-1.156,0.799-1.582,0.253c-0.758-0.946,0.645-2.122,1.428-1.177
		L52.648,98.294z M55.604,98.091c0.363,0.176,0.484,0.409,0.496,0.844c0,0.297-0.074,0.451-0.33,0.654
		c-0.449,0.385-0.869,0.365-1.285-0.037c-0.277-0.293-0.314-0.377-0.26-0.722C54.336,98.146,55.021,97.774,55.604,98.091z"/>
	<path id="svg_9_1_" fill="#D5D5D5" d="M66.896,74.956c-6.287,0.482-12.004,2.175-15.064,4.484c-1.162,0.876-2.84,2.641-3.666,3.838
		c-0.621,0.917-1.727,2.783-1.727,2.932c0,0.047,0.627-0.42,1.385-1.044c3.205-2.575,6.598-4.981,8.17-5.782
		c2.406-1.207,6.326-2.508,11.697-3.866l2.648-0.675l-1.109,0.016C68.617,74.858,67.566,74.915,66.896,74.956z"/>
</g>
</svg>
