<?xml version="1.0" encoding="utf-8"?>
<!-- Generator: Adobe Illustrator 16.0.0, SVG Export Plug-In . SVG Version: 6.00 Build 0)  -->
<!DOCTYPE svg PUBLIC "-//W3C//DTD SVG 1.1//EN" "http://www.w3.org/Graphics/SVG/1.1/DTD/svg11.dtd">
<svg version="1.1" id="Calque_1" xmlns="http://www.w3.org/2000/svg" xmlns:xlink="http://www.w3.org/1999/xlink" x="0px" y="0px"
	 width="151px" height="150.998px" viewBox="0 0 151 150.998" enable-background="new 0 0 151 150.998" xml:space="preserve">
<g>
	<path fill="#F2F2F2" stroke="#34495F" stroke-miterlimit="10" d="M150.684,75.423c0,41.362-33.531,74.897-74.9,74.897
		c-41.363,0-74.896-33.535-74.896-74.897S34.42,0.526,75.783,0.526C117.152,0.526,150.684,34.061,150.684,75.423z"/>
	<g>
		<g>
			<path fill="#34495F" d="M90.524,72.516h9.005l18.195-15.674c-0.785-1.868-1.681-3.667-2.693-5.398L90.9,72.188L90.524,72.516z"/>
			<path fill="#34495F" d="M77.491,28.708v7.38l7.412-6.389C82.492,29.188,80.026,28.827,77.491,28.708z"/>
			<path fill="#34495F" d="M115.614,72.516l5.247-4.521c-0.321-2.208-0.84-4.352-1.463-6.444l-12.76,10.966H115.614z"/>
			<path fill="#34495F" d="M100.557,36.224l-23.065,19.83v7.75l27.843-23.99C103.823,38.517,102.227,37.321,100.557,36.224z"/>
			<path fill="#34495F" d="M90.324,31.162l-12.833,11.03v7.754l18.797-16.198C94.367,32.766,92.39,31.873,90.324,31.162z"/>
			<path fill="#34495F" d="M112.445,47.53c-1.148-1.569-2.391-3.058-3.725-4.466L77.491,69.913v2.603h5.953L112.445,47.53z"/>
		</g>
		<path fill="#E94B36" d="M73.136,73.694V28.708c-24.44,1.144-43.921,21.264-43.921,45.985c0,10.698,3.68,20.52,9.793,28.342
			L73.136,73.694z"/>
		<path fill="#34495F" d="M76.119,76.871l-34.271,29.465c8.405,8.886,20.272,14.458,33.468,14.458
			c24.721,0,44.841-19.481,45.984-43.923H76.119z"/>
	</g>
</g>
</svg>
