<?xml version="1.0" encoding="utf-8"?>
<!-- Generator: Adobe Illustrator 16.0.0, SVG Export Plug-In . SVG Version: 6.00 Build 0)  -->
<!DOCTYPE svg PUBLIC "-//W3C//DTD SVG 1.1//EN" "http://www.w3.org/Graphics/SVG/1.1/DTD/svg11.dtd">
<svg version="1.1" id="Calque_1" xmlns="http://www.w3.org/2000/svg" xmlns:xlink="http://www.w3.org/1999/xlink" x="0px" y="0px"
	 width="151.003px" height="151.002px" viewBox="0.841 -0.159 151.003 151.002"
	 enable-background="new 0.841 -0.159 151.003 151.002" xml:space="preserve">
<g>
	<path fill="#F2F2F2" stroke="#34495F" stroke-miterlimit="10" d="M151.344,75.34c0,41.421-33.576,75.003-75.003,75.003
		c-41.42,0-75-33.582-75-75.003c0-41.419,33.58-74.999,75-74.999C117.768,0.341,151.344,33.921,151.344,75.34z"/>
	<g>
		<g>
			<path fill="#E94B36" d="M77.46,88.427c-5.21,0-9.448-4.238-9.448-9.449c0-5.21,4.238-9.45,9.448-9.45
				c5.213,0,9.451,4.238,9.451,9.45C86.911,84.188,82.673,88.427,77.46,88.427L77.46,88.427z M77.46,73.89
				c-2.803,0-5.086,2.283-5.086,5.087c0,2.806,2.283,5.088,5.086,5.088c2.808,0,5.09-2.282,5.09-5.088
				C82.55,76.173,80.268,73.89,77.46,73.89L77.46,73.89z"/>
		</g>
		<path fill="#E94B36" d="M101.348,89.662c-7.664,1.308-16.105,2.036-24.979,2.036s-17.311-0.729-24.978-2.036
			c-0.051,0.673-0.102,1.349-0.102,2.036c0,13.852,11.227,25.08,25.079,25.08c13.853,0,25.079-11.229,25.079-25.08
			C101.448,91.011,101.4,90.335,101.348,89.662z M73.826,101.329c-1.708,0-3.089-1.383-3.089-3.088c0-1.707,1.381-3.092,3.089-3.092
			c1.704,0,3.088,1.385,3.088,3.092C76.914,99.946,75.53,101.329,73.826,101.329z M86.004,106.783c-2.611,0-4.729-2.114-4.729-4.724
			c0-2.61,2.117-4.728,4.729-4.728c2.605,0,4.725,2.117,4.725,4.728C90.729,104.669,88.609,106.783,86.004,106.783z"/>
		<circle fill="#E94B36" cx="77.459" cy="58.624" r="4.724"/>
		<g>
			<path fill="#34495F" d="M76.369,127.683c-19.841,0-35.983-16.145-35.983-35.983c0-14.104,8.059-26.651,20.717-32.563V28.988
				l4.678,2.219c5.844,2.777,15.334,2.777,21.182,0l4.673-2.219v30.146c12.659,5.912,20.718,18.46,20.718,32.563
				C112.354,111.538,96.21,127.683,76.369,127.683L76.369,127.683z M67.646,38.813v24.698l-2.07,0.818
				C54.25,68.802,46.929,79.544,46.929,91.698c0,16.234,13.208,29.441,29.441,29.441c16.231,0,29.44-13.207,29.44-29.441
				c0-12.154-7.316-22.896-18.646-27.369l-2.07-0.818V38.813C79.666,40.249,73.072,40.249,67.646,38.813L67.646,38.813z"/>
		</g>
		<g>
			<path fill="#34495F" d="M86.868,29.681c-0.204,0-0.412-0.036-0.617-0.115c-5.481-2.112-14.277-2.112-19.764,0
				c-0.887,0.343-1.883-0.1-2.224-0.988c-0.341-0.886,0.099-1.883,0.988-2.224c6.253-2.411,15.981-2.411,22.238,0
				c0.886,0.341,1.329,1.337,0.983,2.224C88.214,29.261,87.562,29.681,86.868,29.681L86.868,29.681z"/>
		</g>
	</g>
</g>
</svg>
