<?xml version="1.0" encoding="utf-8"?>
<!-- Generator: Adobe Illustrator 16.0.0, SVG Export Plug-In . SVG Version: 6.00 Build 0)  -->
<!DOCTYPE svg PUBLIC "-//W3C//DTD SVG 1.1//EN" "http://www.w3.org/Graphics/SVG/1.1/DTD/svg11.dtd">
<svg version="1.1" id="Calque_1" xmlns="http://www.w3.org/2000/svg" xmlns:xlink="http://www.w3.org/1999/xlink" x="0px" y="0px"
	 width="151px" height="150.998px" viewBox="0 0 151 150.998" enable-background="new 0 0 151 150.998" xml:space="preserve">
<g>
	<path fill="#F2F2F2" stroke="#34495F" stroke-miterlimit="10" d="M150.5,75.497c0,41.42-33.576,75.001-75,75.001
		c-41.421,0-75-33.581-75-75.001C0.5,34.078,34.079,0.5,75.5,0.5C116.924,0.5,150.5,34.078,150.5,75.497z"/>
	<g>
		<g>
			<g>
				<path fill="#E94B36" d="M63.692,112.489c-6.9,0-12.515-5.613-12.517-12.516c-0.002-3.342,1.302-6.485,3.666-8.85
					c2.363-2.366,5.507-3.668,8.851-3.668c6.9,0,12.519,5.615,12.519,12.518c0,3.341-1.301,6.484-3.666,8.85
					S67.036,112.489,63.692,112.489L63.692,112.489z M63.692,93.999c-1.597,0-3.097,0.622-4.226,1.751
					c-1.129,1.128-1.748,2.628-1.748,4.224c0.002,3.294,2.682,5.973,5.974,5.973c1.597,0,3.097-0.621,4.226-1.75
					s1.75-2.629,1.75-4.223C69.668,96.679,66.984,93.999,63.692,93.999L63.692,93.999z"/>
			</g>
			<g>
				<path fill="#E94B36" d="M66.666,90.292l-6.5-0.771c0.038-0.309,4.072-30.959,39.127-35.702l0.877,6.483
					C70.082,64.371,66.695,90.032,66.666,90.292L66.666,90.292z"/>
			</g>
			<g>
				<path fill="#E94B36" d="M85.961,76.349c-0.775,0-1.551-0.273-2.178-0.829c-1.346-1.204-1.465-3.271-0.264-4.62l11.437-12.833
					l-15.464-4.988c-1.719-0.556-2.664-2.397-2.11-4.119c0.556-1.719,2.402-2.658,4.119-2.108l20.24,6.53
					c1.054,0.341,1.864,1.188,2.153,2.255c0.292,1.067,0.021,2.208-0.713,3.035L88.403,75.253
					C87.758,75.978,86.861,76.349,85.961,76.349L85.961,76.349z"/>
			</g>
		</g>
		<g>
			<g>
				<polygon fill="#34495F" points="99.169,105.551 80.385,86.307 85.066,81.736 103.85,100.98 99.169,105.551 				"/>
			</g>
			<g>
				<polygon fill="#34495F" points="84.781,105.38 80.211,100.699 99.459,81.913 104.029,86.595 84.781,105.38 				"/>
			</g>
		</g>
		<g>
			<g>
				<polygon fill="#34495F" points="61.005,74.291 42.221,55.047 46.902,50.477 65.686,69.721 61.005,74.291 				"/>
			</g>
			<g>
				<polygon fill="#34495F" points="46.617,74.121 42.047,69.439 61.295,50.654 65.865,55.334 46.617,74.121 				"/>
			</g>
		</g>
		<path fill="#34495F" d="M124.666,59.159c-1.688,1.828-4.086,2.991-6.769,2.991c-0.516,0-1.01-0.071-1.501-0.152
			c1.463,4.353,2.287,8.996,2.287,13.836c0,24.051-19.566,43.616-43.617,43.616c-24.05,0-43.615-19.565-43.615-43.616
			s19.565-43.616,43.615-43.616c13.986,0,26.422,6.642,34.41,16.91c1.25-2.786,3.834-4.817,6.943-5.32
			c-9.584-12.346-24.552-20.313-41.354-20.313c-28.859,0-52.338,23.48-52.338,52.339s23.479,52.34,52.338,52.34
			s52.34-23.48,52.34-52.34C127.406,70.004,126.434,64.401,124.666,59.159z"/>
		<path fill="#E94B36" d="M117.897,65.421c-3.344,0-6.487-1.301-8.851-3.665c-2.365-2.364-3.666-5.507-3.664-8.849
			c-0.002-3.344,1.299-6.487,3.664-8.852c2.363-2.363,5.507-3.667,8.851-3.667c6.899,0,12.514,5.614,12.514,12.514
			c0.003,3.344-1.299,6.487-3.663,8.851C124.385,64.12,121.24,65.421,117.897,65.421L117.897,65.421z M117.897,46.931
			c-1.598,0-3.097,0.622-4.226,1.751c-1.127,1.126-1.746,2.628-1.746,4.226c0,1.595,0.619,3.094,1.746,4.221
			c2.258,2.257,6.193,2.257,8.449,0c1.128-1.129,1.748-2.628,1.748-4.226C123.869,49.61,121.189,46.931,117.897,46.931
			L117.897,46.931z"/>
	</g>
</g>
</svg>
