<?xml version="1.0" encoding="utf-8"?>
<!-- Generator: Adobe Illustrator 16.0.0, SVG Export Plug-In . SVG Version: 6.00 Build 0)  -->
<!DOCTYPE svg PUBLIC "-//W3C//DTD SVG 1.1//EN" "http://www.w3.org/Graphics/SVG/1.1/DTD/svg11.dtd">
<svg version="1.1" id="Calque_1" xmlns="http://www.w3.org/2000/svg" xmlns:xlink="http://www.w3.org/1999/xlink" x="0px" y="0px"
	 width="150.348px" height="150.345px" viewBox="0.826 -0.264 150.348 150.345"
	 enable-background="new 0.826 -0.264 150.348 150.345" xml:space="preserve">
<g>
	<path fill="#F2F2F2" stroke="#34485E" stroke-miterlimit="10" d="M150.674,74.904c0,41.244-33.432,74.677-74.675,74.677
		c-41.241,0-74.673-33.436-74.673-74.677c0-41.238,33.432-74.668,74.673-74.668C117.242,0.235,150.674,33.666,150.674,74.904z"/>
	<g>
		<path fill="#E94B36" d="M66.198,52.966c0,1.201-0.972,2.172-2.172,2.172h-8.414c-1.198,0-2.171-0.971-2.171-2.172v-6.785
			c0-1.201,0.973-2.171,2.171-2.171h8.414c1.2,0,2.172,0.971,2.172,2.171V52.966z"/>
		<path fill="#E94B36" d="M66.198,67.351c0,1.201-0.972,2.171-2.172,2.171h-8.414c-1.198,0-2.171-0.97-2.171-2.171v-6.786
			c0-1.2,0.973-2.171,2.171-2.171h8.414c1.2,0,2.172,0.972,2.172,2.171V67.351z"/>
		<path fill="#E94B36" d="M63.321,78.147c-0.698-1.488-0.703-3.154-0.008-4.68c0.112-0.248,0.272-0.462,0.416-0.689h-8.117
			c-1.198,0-2.171,0.972-2.171,2.171v6.785c0,1.201,0.973,2.172,2.171,2.172h8.414c0.457,0,0.856-0.174,1.204-0.413
			C64.373,80.444,63.39,78.297,63.321,78.147z"/>
		<path fill="#E94B36" d="M71.716,68.353c1.162,0,2.392,0.301,3.602,0.924V58.394H72.17c-1.198,0-2.171,0.972-2.171,2.171v6.786
			c0,0.43,0.157,0.808,0.372,1.145C70.791,68.413,71.24,68.353,71.716,68.353z"/>
		<path fill="#E94B36" d="M72.169,55.138h3.148v-0.265c0-4.277,3.272-7.767,7.436-8.205v-0.487c0-1.201-0.97-2.171-2.17-2.171
			h-8.414c-1.198,0-2.171,0.971-2.171,2.171v6.785C69.998,54.167,70.971,55.138,72.169,55.138z"/>
		<path fill="#34495F" d="M79.689,113.149l-4.35-4.276c-0.284-0.272-0.554-0.581-0.812-0.911c0.345,0.615,0.557,1.312,0.557,2.064
			c0,2.352-1.903,4.263-4.26,4.263c-2.338,0-4.251-1.911-4.251-4.263c0-2.351,1.913-4.254,4.251-4.254
			c1.331,0,2.505,0.621,3.285,1.574c-0.14-0.211-0.287-0.404-0.416-0.633c-1.549-1.89-2.834-3.751-3.885-5.586H49.942v-61.9h41.776
			v13.93c0.119,0.553,0.187,1.126,0.187,1.715v4.741c0.227-0.02,0.455-0.028,0.686-0.028c0.819,0,1.605,0.132,2.354,0.353V32.135
			c0-4.054-3.295-7.345-7.346-7.345H54.069c-4.06,0-7.351,3.291-7.351,7.345v80.216c0,4.059,3.291,7.354,7.351,7.354h25.621V113.149
			z M64.517,30.142h12.631c0.353,0,0.652,0.434,0.652,0.962c0,0.547-0.301,0.963-0.652,0.963H64.517
			c-0.364,0-0.645-0.416-0.645-0.963C63.872,30.576,64.152,30.142,64.517,30.142z"/>
		<path fill="#34495F" d="M114.493,90.095c0.016-0.543,0-1.088-0.048-1.621V76.729c0-2.18-1.766-3.958-3.938-3.958
			c-2.178,0-3.957,1.777-3.957,3.958v0.902c-0.345-0.129-0.693-0.236-1.052-0.341V71.35c0-2.175-1.772-3.954-3.953-3.954
			c-2.182,0-3.95,1.779-3.95,3.954v3.408c-0.354-0.125-0.699-0.246-1.059-0.369v-6.51c0-2.184-1.768-3.95-3.948-3.95
			c-2.179,0-3.952,1.767-3.952,3.95v5.043c-0.369,0.063-0.725,0.14-1.076,0.256V54.873c0-2.171-1.772-3.949-3.947-3.949
			c-2.187,0-3.953,1.777-3.953,3.949v32.625c-0.865-1.877-0.887-4.256-1.268-6.015c-1.455-6.674-5.158-9.396-7.428-8.676
			c-0.527,0.151-4.562,1.684-3.705,3.514c0.522,1.128,3.263,7.473,3.581,14.363c0.23,4.922,3.322,9.819,6.472,13.59
			c0.28,0.55,0.619,1.068,1.073,1.504l5.646,5.554v13.66h26.557v-14.017c2.06-3.139,3.368-7.004,3.524-10.498
			c0.126-3.408,0.248-6.812,0.371-10.217c0.008-0.035-0.004-0.064,0-0.1C114.486,90.147,114.493,90.12,114.493,90.095z"/>
	</g>
</g>
</svg>
