<?xml version="1.0" encoding="utf-8"?>
<!-- Generator: Adobe Illustrator 16.0.0, SVG Export Plug-In . SVG Version: 6.00 Build 0)  -->
<!DOCTYPE svg PUBLIC "-//W3C//DTD SVG 1.1//EN" "http://www.w3.org/Graphics/SVG/1.1/DTD/svg11.dtd">
<svg version="1.1" id="Calque_1" xmlns="http://www.w3.org/2000/svg" xmlns:xlink="http://www.w3.org/1999/xlink" x="0px" y="0px"
	 width="151px" height="150.998px" viewBox="0 0 151 150.998" enable-background="new 0 0 151 150.998" xml:space="preserve">
<g>
	<path fill="#F2F2F2" stroke="#34495F" stroke-miterlimit="10" d="M150.898,75.732c0,41.408-33.568,74.981-74.982,74.981
		c-41.411,0-74.982-33.573-74.982-74.981S34.505,0.751,75.916,0.751C117.33,0.751,150.898,34.324,150.898,75.732z"/>
	<g>
		<path fill="#34495F" d="M76.861,35.795v-1.763c0-1.507-1.223-2.729-2.73-2.729s-2.729,1.222-2.729,2.729v1.763H29.318v15.241
			h1.729v46.742c0,1.186,0.961,2.142,2.145,2.142h22.611l-10.025,17.366c-0.754,1.305-0.307,2.975,0.998,3.728
			c0.43,0.249,0.898,0.366,1.363,0.366c0.942,0,1.86-0.49,2.365-1.365l5.15-8.921h15.747v7.557c0,1.507,1.222,2.729,2.729,2.729
			s2.73-1.223,2.73-2.729v-7.557h15.747l5.147,8.921c0.754,1.304,2.424,1.755,3.73,0.999c1.304-0.753,1.75-2.423,0.997-3.728
			L92.459,99.92h22.605c1.192,0,2.148-0.956,2.148-2.142V51.036h1.729V35.795H76.861z M71.401,107.453H57.758l4.348-7.533h9.296
			V107.453z M76.861,107.453V99.92h9.295l4.348,7.533H76.861z M111.877,94.763H36.383V51.017h75.494V94.763z"/>
		<path fill="#E94B36" d="M101.615,54.33c-3.918,0-7.105,3.185-7.105,7.101c0,1.045,0.24,2.029,0.645,2.923l-8.172,7.944
			c-0.94-0.458-1.979-0.739-3.096-0.739c-1.83,0-3.487,0.716-4.748,1.861l-6.689-3.549c0.025-0.243,0.074-0.477,0.074-0.726
			c0-3.917-3.188-7.103-7.105-7.103c-3.915,0-7.103,3.186-7.103,7.103c0,0.801,0.164,1.559,0.409,2.276L50.84,78.33
			c-1.041-0.599-2.233-0.969-3.52-0.969c-3.916,0-7.101,3.185-7.101,7.101c0,3.92,3.185,7.107,7.101,7.107
			c3.918,0,7.105-3.188,7.105-7.107c0-0.869-0.18-1.688-0.467-2.459l7.775-6.815c1.078,0.66,2.332,1.06,3.684,1.06
			c1.93,0,3.674-0.776,4.953-2.026l6.516,3.458c-0.047,0.326-0.099,0.649-0.099,0.988c0,3.917,3.186,7.103,7.099,7.103
			c3.918,0,7.105-3.186,7.105-7.103c0-1.044-0.24-2.027-0.645-2.922l8.176-7.946c0.937,0.458,1.978,0.739,3.092,0.739
			c3.915,0,7.1-3.188,7.1-7.107C108.715,57.515,105.53,54.33,101.615,54.33z M47.32,86.834c-1.303,0-2.365-1.064-2.365-2.372
			c0-1.305,1.062-2.365,2.365-2.365c1.308,0,2.37,1.061,2.37,2.365C49.69,85.77,48.628,86.834,47.32,86.834z M65.418,71.512
			c-1.303,0-2.367-1.062-2.367-2.368s1.064-2.367,2.367-2.367c1.308,0,2.37,1.062,2.37,2.367S66.726,71.512,65.418,71.512z
			 M83.887,81.034c-1.303,0-2.363-1.062-2.363-2.367c0-1.308,1.061-2.373,2.363-2.373c1.308,0,2.37,1.065,2.37,2.373
			C86.257,79.972,85.194,81.034,83.887,81.034z M101.615,63.803c-1.309,0-2.371-1.064-2.371-2.372c0-1.305,1.062-2.365,2.371-2.365
			c1.303,0,2.365,1.06,2.365,2.365C103.98,62.738,102.918,63.803,101.615,63.803z"/>
	</g>
</g>
</svg>
