<?xml version="1.0" encoding="utf-8"?>
<!-- Generator: Adobe Illustrator 16.0.0, SVG Export Plug-In . SVG Version: 6.00 Build 0)  -->
<!DOCTYPE svg PUBLIC "-//W3C//DTD SVG 1.1//EN" "http://www.w3.org/Graphics/SVG/1.1/DTD/svg11.dtd">
<svg version="1.1" id="Calque_1" xmlns="http://www.w3.org/2000/svg" xmlns:xlink="http://www.w3.org/1999/xlink" x="0px" y="0px"
	 width="151px" height="150.998px" viewBox="0 0 151 150.998" enable-background="new 0 0 151 150.998" xml:space="preserve">
<g>
	<path fill="#F2F2F2" stroke="#34495F" stroke-miterlimit="10" d="M150.59,75.522c0,41.242-33.432,74.677-74.676,74.677
		c-41.24,0-74.672-33.435-74.672-74.677c0-41.238,33.432-74.669,74.672-74.669C117.158,0.854,150.59,34.284,150.59,75.522z"/>
	<g>
		<g>
			<path fill="#34495F" d="M34.409,98.336h83.528c1.208,0,2.188-0.979,2.188-2.188V45.255c0-1.211-0.979-2.188-2.188-2.188H34.409
				c-1.213,0-2.188,0.978-2.188,2.188v50.892C32.221,97.356,33.196,98.336,34.409,98.336z M76.174,44.379
				c0.763,0,1.382,0.619,1.382,1.383c0,0.763-0.619,1.382-1.382,1.382c-0.764,0-1.383-0.619-1.383-1.382
				C74.791,44.999,75.41,44.379,76.174,44.379z M37.662,48.328h77.018v44.63H37.662V48.328z"/>
			<path fill="#34495F" d="M128.234,100.706H92.199c-0.076,0.734-0.674,1.317-1.43,1.317H61.576c-0.755,0-1.357-0.583-1.43-1.317
				H24.113c-0.018,0.174-0.052,0.344-0.052,0.526v1.579c0,2.615,2.12,4.735,4.737,4.735h94.749c2.616,0,4.737-2.12,4.737-4.735
				v-1.579C128.285,101.05,128.255,100.88,128.234,100.706z"/>
		</g>
		<g>
			<path fill="#E94B36" d="M98.977,61.578c-1.591-0.716-3.459-0.008-4.176,1.582c-0.715,1.59-0.006,3.456,1.584,4.173
				c1.586,0.715,3.457,0.009,4.174-1.581C101.272,64.163,100.562,62.293,98.977,61.578z"/>
			<path fill="#E94B36" d="M40.848,51.513v38.261h9.631l-1.18-2.457l-0.496-1.056l3.461-2.354c-0.195-0.903-0.326-1.819-0.387-2.745
				l-3.723-0.885l0.089-1.157l0.233-2.946l0.093-1.168l4.063-0.301c0.283-0.893,0.652-1.77,1.09-2.633l-2.731-2.577l0.663-0.96
				l1.678-2.43l0.662-0.963l3.681,1.779c0.708-0.642,1.458-1.223,2.256-1.732l-1.081-3.603l1.051-0.509l2.672-1.272l1.053-0.5
				l2.35,3.458c0.902-0.183,1.814-0.293,2.738-0.333l0.9-3.783l1.157,0.097l2.952,0.229l1.157,0.096l0.313,4.236
				c0.849,0.282,1.684,0.636,2.498,1.048l2.697-2.861l0.963,0.662l2.438,1.684l0.963,0.657l-1.855,3.836
				c0.613,0.677,1.182,1.387,1.67,2.138l3.736-1.116l0.508,1.056l1.272,2.663l0.501,1.054l-3.465,2.36
				c0.195,0.9,0.335,1.82,0.395,2.741l3.719,0.88l-0.094,1.164l-0.232,2.945l-0.085,1.173l-4.071,0.292
				c-0.284,0.904-0.657,1.775-1.086,2.637l1.544,1.456H111.5V51.513H40.848z M106.296,65.452l-2.138,0.214
				c-0.096,0.507-0.232,1.014-0.453,1.505c-0.148,0.327-0.336,0.619-0.526,0.91c0.03,0.025,0.074,0.025,0.098,0.06l1.29,1.8
				c0.22,0.297,0.148,0.723-0.153,0.941l-2.341,1.684c-0.306,0.221-0.729,0.153-0.948-0.15l-1.253-1.741
				c-0.822,0.289-1.696,0.409-2.582,0.356c-0.014,0.038,0.012,0.076-0.005,0.112l-0.907,2.017c-0.152,0.342-0.552,0.494-0.895,0.34
				l-2.635-1.186c-0.343-0.155-0.496-0.555-0.343-0.899l0.886-1.972c-0.67-0.577-1.204-1.272-1.594-2.044
				c-0.043,0.013-0.064,0.055-0.111,0.059l-2.196,0.219c-0.373,0.04-0.704-0.231-0.741-0.606l-0.289-2.871
				c-0.043-0.369,0.233-0.706,0.602-0.744l2.143-0.214c0.093-0.505,0.23-1.01,0.451-1.5c0.146-0.329,0.335-0.622,0.528-0.914
				c-0.032-0.027-0.081-0.027-0.103-0.062l-1.289-1.796c-0.221-0.299-0.148-0.723,0.157-0.95l2.337-1.684
				c0.305-0.218,0.729-0.148,0.947,0.159l1.258,1.741c0.822-0.291,1.696-0.413,2.582-0.36c0.012-0.038-0.012-0.076,0.005-0.114
				l0.907-2.015c0.152-0.341,0.557-0.494,0.895-0.341l2.633,1.186c0.345,0.155,0.498,0.555,0.341,0.896l-0.886,1.974
				c0.672,0.579,1.208,1.272,1.594,2.049c0.043-0.015,0.068-0.058,0.115-0.062l2.196-0.214c0.368-0.044,0.7,0.229,0.742,0.598
				l0.292,2.875C106.945,65.084,106.669,65.414,106.296,65.452z"/>
			<path fill="#E94B36" d="M80.047,87.329c3.879-5.635,2.391-13.41-3.318-17.348c-5.717-3.929-13.516-2.551-17.396,3.083
				c-3.679,5.344-2.515,12.616,2.502,16.709h15.967C78.637,89.076,79.4,88.269,80.047,87.329z M75.897,84.47
				c-2.362,3.425-7.05,4.297-10.483,1.931c-3.422-2.356-4.294-7.053-1.93-10.478c2.362-3.431,7.057-4.298,10.481-1.936
				C77.395,76.347,78.26,81.038,75.897,84.47z"/>
		</g>
	</g>
</g>
</svg>
