<?xml version="1.0" encoding="utf-8"?>
<!-- Generator: Adobe Illustrator 16.0.0, SVG Export Plug-In . SVG Version: 6.00 Build 0)  -->
<!DOCTYPE svg PUBLIC "-//W3C//DTD SVG 1.1//EN" "http://www.w3.org/Graphics/SVG/1.1/DTD/svg11.dtd">
<svg version="1.1" id="Calque_1" xmlns="http://www.w3.org/2000/svg" xmlns:xlink="http://www.w3.org/1999/xlink" x="0px" y="0px"
	 width="121.527px" height="113.417px" viewBox="0 0 121.527 113.417" enable-background="new 0 0 121.527 113.417"
	 xml:space="preserve">
<g>
	<g id="Text_Logo_1_">
		<path id="R_1_" fill="#D5D5D5" d="M120.246,111.082c-0.545,0.6-1.125,0.324-1.281,0.141l-3.76-4.738h0.238
			c7.205-1.545,5.383-10.111-0.52-10.259h-12.328v16.836h1.963v-5.515c0-0.7,0.261-1.062,1.039-1.062h7.145l4.923,6.16
			c0.987,0.844,2.746,1.201,3.862,0L120.246,111.082z M105.438,104.644c-0.706,0-0.879,0.359-0.879,0.359v-6.909h10.365
			c4.377,0.173,4.509,6.325,0,6.55H105.438z"/>
		<path id="E_1_" fill="#D5D5D5" d="M84.939,96.225H69.408v16.836h16.051v-1.925H71.371v-4.776c0-0.701,0.259-1.062,1.039-1.062
			h8.365v-1.842h-8.524c-0.706,0-0.88,0.359-0.88,0.359v-5.722h13.568V96.225z"/>
		<path id="B_1_" fill="#D5D5D5" d="M50.164,104.419c3.361-2.482,1.922-7.648-2.322-8.194h-12.85v16.836h12.85
			C51.992,112.528,54.016,107.258,50.164,104.419z M36.955,98.094h10.688c3.442,0.398,3.321,5.04,0,5.362h-9.807
			c-0.707,0-0.881,0.359-0.881,0.359V98.094z M47.643,111.136H36.955v-4.776c0-0.701,0.259-1.062,1.043-1.062h9.645
			C51.305,105.76,51.187,110.763,47.643,111.136z"/>
		<path id="U_3_" fill="#D5D5D5" d="M10.459,113.411c1.441,0,7.365-0.949,7.365-6.512V96.225H15.85v10.247
			c0,4.934-5.498,4.695-5.498,4.695H8.617c0,0-5.497,0.238-5.497-4.695v-7.364c0-1.522-1.202-2.883-3.12-2.883v1.923
			c0.772,0,1.146,0.719,1.146,1.279v7.472c0,5.562,5.924,6.512,7.363,6.512H10.459z"/>
	</g>
	<g id="Image_Logo_1_">
		<path fill="#D5D5D5" d="M94.459,85.265H27.002c-4.912,0-8.906-3.996-8.906-8.906V8.904C18.096,3.995,22.09,0,27.002,0h67.457
			c4.91,0,8.903,3.995,8.903,8.904v67.455C103.362,81.269,99.369,85.265,94.459,85.265z M27.002,2.816
			c-3.359,0-6.092,2.73-6.092,6.088v67.455c0,3.359,2.732,6.092,6.092,6.092h67.457c3.356,0,6.089-2.732,6.089-6.092V8.904
			c0-3.358-2.732-6.088-6.089-6.088H27.002z"/>
		<path id="Stripe_1_" fill="#D5D5D5" d="M94.195,4.691H27.269c-2.474,0-4.478,2.003-4.483,4.479v66.925
			c0,2.473,2.007,4.477,4.48,4.483h66.924c2.475,0,4.479-2.004,4.483-4.479V9.166C98.67,6.694,96.669,4.692,94.195,4.691z
			 M95.311,75.935c0,0.707-0.574,1.277-1.28,1.277H27.428c-0.706,0-1.281-0.57-1.281-1.277V9.333c0-0.708,0.575-1.281,1.281-1.281
			H94.03c0.706,0,1.28,0.574,1.28,1.281V75.935z"/>
		<path id="U_2_" fill="#D5D5D5" d="M67.295,65.22c11.446,0,16.037-6.404,16.037-14.143V23.061c0-1.683-1.201-3.016-3.123-3.016
			H65.747v3.416c0,1.354,1.034,3.014,3.04,3.014h8.354v23.803c0,8.271-6.244,8.804-9.98,8.804H54.301
			c-3.735,0-9.98-0.533-9.98-8.804V26.475h11.394v-3.414c0-1.356-1.034-3.016-3.04-3.016H41.252c-1.922,0-3.123,1.333-3.123,3.016
			v28.016c0,7.739,4.591,14.143,16.037,14.143H67.295z"/>
	</g>
</g>
</svg>
